<?xml version="1.0" encoding="iso-8859-1"?>
<!-- Generator: Adobe Illustrator 19.0.0, SVG Export Plug-In . SVG Version: 6.00 Build 0)  -->
<svg xmlns="http://www.w3.org/2000/svg" xmlns:xlink="http://www.w3.org/1999/xlink" version="1.1" id="Layer_1" x="0px" y="0px" viewBox="0 0 512.001 512.001" style="enable-background:new 0 0 512.001 512.001;" xml:space="preserve" width="512px" height="512px">
<g>
	<g>
		<path d="M500.687,150.467H366.615V28.717c0-6.248-5.065-11.313-11.313-11.313H104.164c-6.248,0-11.313,5.065-11.313,11.313    v205.379c-28.999,5.256-51.198,30.295-52.022,60.591C16.972,301.972,0,324.173,0,349.902c0,31.841,25.904,57.744,57.744,57.744    h35.108v72.201v3.436c0,6.248,5.065,11.313,11.313,11.313h86.35h78.437h86.351h145.385c6.248,0,11.313-5.065,11.313-11.313V161.78    C512,155.532,506.935,150.467,500.687,150.467z M179.201,471.971h-63.723v-64.325h35.127c10.4,0,20.159-2.777,28.596-7.609    V471.971z M182.481,364.613c-0.159,0.345-0.325,0.683-0.493,1.02c-0.135,0.267-0.268,0.534-0.408,0.796    c-0.114,0.215-0.234,0.423-0.353,0.635c-6.023,10.706-17.489,17.956-30.622,17.956h-35.127v-41.058    c0-6.248-5.065-11.313-11.313-11.313s-11.313,5.065-11.313,11.313v41.058H57.744c-19.365-0.001-35.118-15.755-35.118-35.118    c0-17.741,13.262-32.722,30.85-34.848c5.681-0.687,9.956-5.508,9.956-11.232v-7.389c0-22.466,18.277-40.743,40.743-40.743    c20.353,0,37.268,15.002,40.269,34.529c0.003,0.021,0.006,0.042,0.009,0.063c0.089,0.592,0.164,1.188,0.227,1.787    c0.015,0.141,0.029,0.283,0.043,0.425c0.049,0.499,0.085,1.001,0.115,1.506c0.01,0.165,0.023,0.33,0.029,0.496    c0.031,0.643,0.049,1.287,0.049,1.937v7.389c0,0.715,0.067,1.416,0.195,2.097c0.128,0.681,0.317,1.342,0.562,1.975    c0.122,0.317,0.259,0.627,0.408,0.93c1.644,3.331,4.885,5.757,8.79,6.229c0.034,0.005,0.067,0.01,0.101,0.015    c0.494,0.061,0.987,0.132,1.473,0.213c0.391,0.066,0.781,0.144,1.169,0.223c0.119,0.024,0.24,0.044,0.359,0.069    c7.106,1.522,13.615,5.248,18.581,10.689c0.019,0.02,0.041,0.038,0.06,0.059c5.678,6.265,9.108,14.565,9.108,23.581    C185.722,355.154,184.555,360.135,182.481,364.613z M193.909,307.323h-0.001h-4.318c-6.228-5.71-13.725-10.088-22.07-12.635    c-0.025-0.911-0.072-1.817-0.135-2.72c-0.007-0.098-0.016-0.196-0.023-0.294c-0.014-0.181-0.032-0.362-0.047-0.543    c-0.053-0.643-0.112-1.284-0.184-1.923c-0.015-0.126-0.032-0.251-0.046-0.377c-0.009-0.08-0.019-0.16-0.029-0.24    c-0.015-0.122-0.029-0.244-0.045-0.367c-0.079-0.619-0.169-1.234-0.266-1.849c-0.007-0.041-0.014-0.081-0.019-0.122    c-0.581-3.62-1.463-7.167-2.657-10.607h29.842V307.323z M257.638,471.97h-55.811v-91.741h3.394h52.417V471.97z M343.989,161.78    v310.191h-63.725v-91.742h9.169c6.248,0,11.313-5.065,11.313-11.313s-5.065-11.313-11.313-11.313h-20.482H207.82    c0.337-2.522,0.528-5.089,0.528-7.701c0-6.988-1.261-13.713-3.564-19.953h0.436c6.248,0,11.313-5.065,11.313-11.313v-54.303    c0-6.248-5.065-11.313-11.313-11.313h-54.929c-0.588-0.624-1.19-1.237-1.803-1.836c-0.231-0.226-0.471-0.442-0.704-0.665    c-0.469-0.446-0.939-0.891-1.422-1.323c-0.305-0.273-0.62-0.534-0.93-0.801c-0.406-0.348-0.81-0.698-1.225-1.037    c-0.337-0.275-0.68-0.542-1.023-0.81c-0.402-0.315-0.804-0.628-1.213-0.933c-0.357-0.267-0.721-0.527-1.084-0.787    c-0.408-0.291-0.819-0.578-1.233-0.86c-0.372-0.252-0.747-0.502-1.125-0.747c-0.422-0.274-0.85-0.54-1.278-0.804    c-0.38-0.234-0.76-0.467-1.145-0.694c-0.446-0.261-0.898-0.511-1.35-0.762c-0.38-0.21-0.758-0.424-1.143-0.627    c-0.491-0.259-0.99-0.502-1.488-0.749c-0.356-0.176-0.709-0.36-1.069-0.529c-0.837-0.394-1.682-0.77-2.539-1.128    c-0.311-0.13-0.63-0.245-0.945-0.371c-0.577-0.23-1.153-0.46-1.739-0.674c-0.393-0.144-0.791-0.273-1.187-0.408    c-0.517-0.178-1.035-0.355-1.558-0.519c-0.417-0.131-0.839-0.251-1.26-0.373c-0.512-0.149-1.026-0.295-1.543-0.432    c-0.43-0.113-0.861-0.218-1.294-0.322c-0.521-0.126-1.045-0.245-1.573-0.357c-0.432-0.093-0.865-0.181-1.301-0.265    c-0.215-0.041-0.426-0.092-0.641-0.13V40.03h228.51V161.78z M489.374,471.97H366.615V173.093h122.759V471.97z" fill="#FF6500"/>
	</g>
</g>
<g>
	<g>
		<path d="M454.167,207.005h-54.045c-6.248,0-11.313,5.065-11.313,11.313v64.907v64.906v64.828c0,6.248,5.065,11.313,11.313,11.313    h54.045c6.248,0,11.313-5.065,11.313-11.313v-64.828v-64.906v-64.907C465.48,212.07,460.416,207.005,454.167,207.005z     M442.854,401.645h-31.419v-42.201h31.419V401.645z M442.854,336.818h-31.419v-42.279h31.419V336.818z M442.854,271.912h-31.419    v-42.281h31.419V271.912z" fill="#FF6500"/>
	</g>
</g>
<g>
	<g>
		<path d="M334.762,360.918c-0.52-0.52-1.097-0.996-1.72-1.403c-0.611-0.407-1.267-0.758-1.946-1.041    c-0.69-0.283-1.392-0.509-2.116-0.645c-1.459-0.294-2.964-0.294-4.423,0c-0.724,0.136-1.437,0.362-2.116,0.645    c-0.69,0.283-1.346,0.634-1.957,1.041c-0.622,0.407-1.199,0.882-1.72,1.403c-0.52,0.52-0.996,1.097-1.403,1.72    c-0.407,0.611-0.758,1.267-1.041,1.946c-0.283,0.69-0.498,1.403-0.645,2.127c-0.147,0.724-0.226,1.471-0.226,2.206    c0,0.735,0.079,1.482,0.226,2.206c0.147,0.724,0.362,1.437,0.645,2.116c0.283,0.69,0.634,1.346,1.041,1.957    c0.407,0.622,0.882,1.199,1.403,1.72c0.52,0.52,1.097,0.996,1.72,1.403c0.611,0.407,1.267,0.758,1.957,1.041    c0.679,0.283,1.392,0.498,2.116,0.645c0.724,0.147,1.471,0.226,2.206,0.226c0.747,0,1.482-0.079,2.217-0.226    c0.724-0.147,1.425-0.362,2.116-0.645c0.679-0.283,1.335-0.634,1.946-1.041c0.622-0.407,1.199-0.882,1.72-1.403    c2.116-2.104,3.315-5.023,3.315-7.998S336.878,363.022,334.762,360.918z" fill="#FF6500"/>
	</g>
</g>
<g>
	<g>
		<path d="M205.221,63.439h-59.583c-6.248,0-11.313,5.065-11.313,11.313v54.303c0,6.248,5.065,11.313,11.313,11.313h59.583    c6.248,0,11.313-5.065,11.313-11.313V74.753C216.534,68.504,211.469,63.439,205.221,63.439z M193.908,117.742h-36.957V86.066    h36.957V117.742z" fill="#FF6500"/>
	</g>
</g>
<g>
	<g>
		<path d="M311.26,63.439h-59.583c-6.248,0-11.313,5.065-11.313,11.313v54.303c0,6.248,5.065,11.313,11.313,11.313h59.583    c6.248,0,11.313-5.065,11.313-11.313V74.753C322.573,68.504,317.508,63.439,311.26,63.439z M299.947,117.742H262.99V86.066h36.957    V117.742z" fill="#FF6500"/>
	</g>
</g>
<g>
	<g>
		<path d="M205.221,158.23h-59.583c-6.248,0-11.313,5.065-11.313,11.313v54.303c0,6.248,5.065,11.313,11.313,11.313h59.583    c6.248,0,11.313-5.065,11.313-11.313v-54.303C216.534,163.295,211.469,158.23,205.221,158.23z M193.908,212.533h-36.957v-31.677    h36.957V212.533z" fill="#FF6500"/>
	</g>
</g>
<g>
	<g>
		<path d="M311.26,158.23h-59.583c-6.248,0-11.313,5.065-11.313,11.313v54.303c0,6.248,5.065,11.313,11.313,11.313h59.583    c6.248,0,11.313-5.065,11.313-11.313v-54.303C322.573,163.295,317.508,158.23,311.26,158.23z M299.947,212.533H262.99v-31.677    h36.957V212.533z" fill="#FF6500"/>
	</g>
</g>
<g>
	<g>
		<path d="M311.26,253.02h-59.583c-6.248,0-11.313,5.065-11.313,11.313v54.303c0,6.248,5.065,11.313,11.313,11.313h59.583    c6.248,0,11.313-5.065,11.313-11.313v-54.303C322.573,258.085,317.508,253.02,311.26,253.02z M299.947,307.323H262.99v-31.677    h36.957V307.323z" fill="#FF6500"/>
	</g>
</g>
<g>
	<g>
		<path d="M115.265,304.42c-0.147-0.724-0.362-1.437-0.645-2.116c-0.283-0.69-0.634-1.346-1.041-1.957    c-0.407-0.622-0.882-1.199-1.403-1.72c-0.52-0.52-1.097-0.996-1.72-1.403c-0.611-0.407-1.267-0.758-1.957-1.041    c-0.679-0.283-1.391-0.498-2.116-0.645c-1.459-0.294-2.964-0.294-4.423,0c-0.713,0.147-1.425,0.362-2.116,0.645    c-0.679,0.283-1.335,0.634-1.946,1.041c-0.622,0.407-1.199,0.882-1.72,1.403c-0.532,0.52-0.996,1.097-1.414,1.72    c-0.407,0.611-0.758,1.267-1.041,1.957c-0.283,0.679-0.498,1.392-0.645,2.116c-0.147,0.724-0.215,1.471-0.215,2.206    c0,0.735,0.068,1.482,0.215,2.217c0.147,0.713,0.362,1.425,0.645,2.116c0.283,0.679,0.634,1.335,1.041,1.946    c0.419,0.622,0.882,1.199,1.414,1.72c0.52,0.52,1.097,0.996,1.72,1.414c0.611,0.407,1.267,0.758,1.946,1.041    c0.69,0.283,1.403,0.498,2.116,0.645c0.735,0.147,1.482,0.215,2.217,0.215s1.482-0.068,2.206-0.215    c0.724-0.147,1.437-0.362,2.116-0.645c0.69-0.283,1.346-0.634,1.957-1.041c0.622-0.419,1.199-0.894,1.72-1.414    c0.52-0.52,0.996-1.097,1.403-1.72c0.407-0.611,0.758-1.267,1.041-1.946c0.283-0.69,0.498-1.403,0.645-2.116    c0.147-0.735,0.226-1.482,0.226-2.217S115.412,305.144,115.265,304.42z" fill="#FF6500"/>
	</g>
</g>
<g>
</g>
<g>
</g>
<g>
</g>
<g>
</g>
<g>
</g>
<g>
</g>
<g>
</g>
<g>
</g>
<g>
</g>
<g>
</g>
<g>
</g>
<g>
</g>
<g>
</g>
<g>
</g>
<g>
</g>
</svg>
