<?xml version="1.0" encoding="iso-8859-1"?>
<!-- Generator: Adobe Illustrator 19.0.0, SVG Export Plug-In . SVG Version: 6.00 Build 0)  -->
<svg xmlns="http://www.w3.org/2000/svg" xmlns:xlink="http://www.w3.org/1999/xlink" version="1.1" id="Layer_1" x="0px" y="0px" viewBox="0 0 512 512" style="enable-background:new 0 0 512 512;" xml:space="preserve" width="512px" height="512px">
<g>
	<g>
		<path d="M500.297,0.381H374.673h-237.29c-6.464,0-11.703,5.239-11.703,11.703V193.54v181.457c0,6.463,5.239,11.703,11.703,11.703    h237.29h125.624c6.464,0,11.703-5.239,11.703-11.703V12.083C512,5.62,506.761,0.381,500.297,0.381z M362.971,363.295H149.086    V256.001h151.278c6.463,0,11.703-5.239,11.703-11.703c0-6.464-5.239-11.703-11.703-11.703H149.086v-27.352h213.884V363.295z     M362.971,181.838H149.086V23.786h213.884V181.838z M488.595,363.295h-36.647V107.588c0-6.464-5.239-11.703-11.703-11.703    c-6.464,0-11.703,5.239-11.703,11.703v255.707h-42.165V193.54V23.786h102.218V363.295z" fill="#FF6500"/>
	</g>
</g>
<g>
	<g>
		<path d="M100.406,258.657h-9.005V128.423h9.007c4.181,0,8.044-2.231,10.135-5.851c2.091-3.621,2.091-8.082,0-11.703L66.19,34.05    c-2.09-3.621-5.953-5.851-10.135-5.851c-4.181,0-8.044,2.231-10.135,5.851l-44.353,76.82c-2.091,3.621-2.091,8.082,0,11.703    c2.09,3.621,5.953,5.851,10.135,5.851h9.005v130.234h-9.005c-4.181,0-8.044,2.231-10.135,5.851c-2.091,3.621-2.091,8.082,0,11.703    l44.351,76.82c2.09,3.621,5.953,5.851,10.135,5.851c4.181,0,8.045-2.231,10.135-5.851l44.351-76.82    c2.091-3.621,2.091-8.082,0-11.703C108.45,260.888,104.587,258.657,100.406,258.657z M79.699,282.063h0.439l-24.082,41.711    l-24.082-41.711h0.439c6.463,0,11.703-5.239,11.703-11.703V116.721c0-6.464-5.239-11.703-11.703-11.703h-0.439l24.082-41.711    l24.082,41.711h-0.439c-6.463,0-11.703,5.239-11.703,11.703V270.36C67.996,276.824,73.235,282.063,79.699,282.063z" fill="#FF6500"/>
	</g>
</g>
<g>
	<g>
		<path d="M478.331,445.431l-76.82-44.351c-3.621-2.09-8.082-2.09-11.703,0s-5.851,5.953-5.851,10.135v9.005H253.723v-9.005    c0-4.181-2.231-8.044-5.851-10.135s-8.082-2.09-11.703,0l-76.82,44.351c-3.621,2.09-5.851,5.953-5.851,10.135    c0,4.181,2.231,8.044,5.851,10.135l76.82,44.351c3.621,2.09,8.082,2.09,11.703,0c3.621-2.09,5.851-5.953,5.851-10.135v-9.005    h130.234v9.005c0,4.181,2.231,8.044,5.851,10.135c1.81,1.046,3.83,1.568,5.851,1.568c2.02,0,4.041-0.523,5.851-1.568l76.82-44.351    c3.621-2.09,5.851-5.953,5.851-10.135C484.183,451.384,481.952,447.521,478.331,445.431z M407.363,479.648v-0.439    c0-6.464-5.239-11.703-11.703-11.703H242.021c-6.463,0-11.703,5.239-11.703,11.703v0.439l-41.711-24.082l41.711-24.082v0.439    c0,6.464,5.239,11.703,11.703,11.703H395.66c6.463,0,11.703-5.239,11.703-11.703v-0.439l41.711,24.082L407.363,479.648z" fill="#FF6500"/>
	</g>
</g>
<g>
	<g>
		<path d="M350.453,242.015c-0.152-0.749-0.375-1.486-0.667-2.188c-0.293-0.714-0.655-1.393-1.077-2.025    c-0.421-0.644-0.913-1.24-1.451-1.779s-1.135-1.03-1.779-1.451c-0.632-0.421-1.311-0.784-2.025-1.077    c-0.702-0.293-1.439-0.527-2.188-0.667c-1.51-0.304-3.066-0.304-4.576,0c-0.737,0.14-1.475,0.374-2.188,0.667    c-0.702,0.293-1.381,0.655-2.013,1.077c-0.644,0.421-1.24,0.913-1.779,1.451s-1.03,1.135-1.463,1.779    c-0.421,0.632-0.784,1.311-1.077,2.025c-0.293,0.702-0.515,1.439-0.667,2.188s-0.222,1.521-0.222,2.282s0.07,1.533,0.222,2.282    s0.375,1.486,0.667,2.2c0.293,0.702,0.655,1.381,1.077,2.013c0.433,0.644,0.924,1.241,1.463,1.779s1.135,1.03,1.779,1.451    c0.632,0.421,1.311,0.784,2.013,1.077c0.714,0.293,1.451,0.527,2.188,0.667c0.761,0.152,1.533,0.234,2.294,0.234    s1.533-0.082,2.282-0.234c0.749-0.14,1.486-0.375,2.188-0.667c0.714-0.293,1.393-0.655,2.025-1.077    c0.644-0.421,1.24-0.913,1.779-1.451s1.03-1.135,1.451-1.779c0.421-0.632,0.784-1.311,1.077-2.013    c0.293-0.714,0.515-1.451,0.667-2.2s0.234-1.521,0.234-2.282S350.605,242.764,350.453,242.015z" fill="#FF6500"/>
	</g>
</g>
<g>
	<g>
		<path d="M451.718,66.683c-0.152-0.749-0.375-1.486-0.667-2.188c-0.293-0.714-0.655-1.393-1.077-2.025    c-0.421-0.644-0.913-1.241-1.451-1.779s-1.147-1.03-1.779-1.451c-0.644-0.421-1.322-0.784-2.025-1.077    c-0.702-0.293-1.439-0.515-2.188-0.667c-1.51-0.304-3.066-0.304-4.576,0c-0.749,0.152-1.486,0.374-2.188,0.667    c-0.702,0.293-1.381,0.655-2.025,1.077c-0.632,0.421-1.24,0.913-1.779,1.451s-1.03,1.135-1.451,1.779    c-0.421,0.632-0.784,1.311-1.077,2.025c-0.293,0.702-0.515,1.439-0.667,2.188c-0.152,0.749-0.222,1.521-0.222,2.282    s0.07,1.533,0.222,2.294c0.152,0.738,0.375,1.475,0.667,2.188c0.293,0.702,0.655,1.381,1.077,2.013    c0.421,0.644,0.913,1.24,1.451,1.779s1.147,1.03,1.779,1.463c0.644,0.421,1.322,0.784,2.025,1.077    c0.702,0.293,1.44,0.515,2.188,0.667c0.761,0.152,1.521,0.222,2.294,0.222c0.761,0,1.521-0.07,2.282-0.222    c0.749-0.152,1.486-0.375,2.188-0.667c0.702-0.293,1.381-0.655,2.025-1.077c0.632-0.433,1.24-0.925,1.779-1.463    s1.03-1.135,1.451-1.779c0.421-0.632,0.784-1.311,1.077-2.013c0.293-0.714,0.515-1.451,0.667-2.188    c0.152-0.761,0.234-1.533,0.234-2.294S451.87,67.432,451.718,66.683z" fill="#FF6500"/>
	</g>
</g>
<g>
</g>
<g>
</g>
<g>
</g>
<g>
</g>
<g>
</g>
<g>
</g>
<g>
</g>
<g>
</g>
<g>
</g>
<g>
</g>
<g>
</g>
<g>
</g>
<g>
</g>
<g>
</g>
<g>
</g>
</svg>
