<?xml version="1.0" standalone="no"?><!DOCTYPE svg PUBLIC "-//W3C//DTD SVG 1.1//EN" "http://www.w3.org/Graphics/SVG/1.1/DTD/svg11.dtd" ><svg xmlns="http://www.w3.org/2000/svg"><metadata></metadata><defs><font id="MarkSimonson: Proxima Nova Extrabold: 2005" horiz-adv-x="1230"><font-face font-family="Proxima Nova Bl" font-weight="900" font-stretch="normal" units-per-em="1000" panose-1="2 0 5 6 3 0 0 2 0 4" ascent="920" descent="-298" x-height="4" bbox="-172 -304 1213 910" underline-thickness="20" underline-position="-143" unicode-range="U+0000-fb04" /><missing-glyph horiz-adv-x="459" d="M405 -90 l-351 0 l0 842 l351 0 l0 -842 ZM373 -60 l0 782 l-288 0 l0 -782 l288 0 Z" /><glyph glyph-name=".null" unicode="" d="" /><glyph glyph-name="nonmarkingreturn" unicode="" d="" /><glyph glyph-name="space" unicode=" " d="" /><glyph glyph-name="exclam" unicode="!" d="M222 248 l-162 0 l-27 419 l214 0 l-25 -419 ZM215.5 20.5 q-31.5 -31.5 -74.5 -31.5 q-43 0 -74.5 31.5 q-31.5 31.5 -31.5 74.5 q0 44 31.5 75.5 q31.5 31.5 74.5 31.5 q43 0 74.5 -31.5 q31.5 -31.5 31.5 -75.5 q0 -43 -31.5 -74.5 Z" /><glyph glyph-name="quotedbl" unicode="&quot;" d="M163 339 l-74 0 q-55 223 -55 246 q0 38 27 65 q27 27 65 27 q38 0 65 -27 q27 -27 27 -65 q0 -10 -14 -71.5 q-14 -61.5 -28 -117.5 l-13 -57 ZM380 339 l-73 0 q-55 223 -55 246 q0 38 27 65 q27 27 65 27 q38 0 64.5 -27 q26.5 -27 26.5 -65 q0 -10 -13.5 -71.5 q-13.5 -61.5 -27.5 -117.5 l-14 -57 Z" /><glyph glyph-name="numbersign" unicode="#" d="M377 0 l-127 0 l53 158 l-79 0 l-52 -158 l-127 0 l53 158 l-86 0 l35 109 l88 0 l43 132 l-87 0 l34 108 l90 0 l53 160 l127 0 l-53 -160 l78 0 l53 160 l127 0 l-54 -160 l88 0 l-33 -108 l-91 0 l-44 -132 l91 0 l-34 -109 l-94 0 l-52 -158 ZM339 267 l44 132 l-78 0 l-43 -132 l77 0 Z" /><glyph glyph-name="dollar" unicode="$" d="M262 -100 l0 92 q-148 14 -244 102 l105 150 q90 -86 215 -86 q74 0 74 36 q0 17 -38.5 26 q-38.5 9 -93 19 q-54.5 10 -109 29 q-54.5 19 -93 67 q-38.5 48 -38.5 121 q0 80 58.5 141.5 q58.5 61.5 163.5 75.5 l0 95 l128 0 l0 -96 q123 -17 210 -88 l-108 -143 q-87 66 -196 66 q-51 0 -51 -30 q0 -16 38 -26 q38 -10 92.5 -21 q54.5 -11 109.5 -30 q55 -19 93 -65 q38 -46 38 -115 q0 -96 -59.5 -155 q-59.5 -59 -166.5 -73 l0 -92 l-128 0 Z" /><glyph glyph-name="percent" unicode="%" d="M198 341 q-80 0 -129 48 q-49 48 -49 119 q0 72 49 120.5 q49 48.5 129 48.5 q81 0 130.5 -48.5 q49.5 -48.5 49.5 -120.5 q0 -71 -49.5 -119 q-49.5 -48 -130.5 -48 ZM228 0 l-97 0 l426 667 l98 0 l-427 -667 ZM714.5 36 q-49.5 -48 -129.5 -48 q-80 0 -129 48 q-49 48 -49 119 q0 72 49 120.5 q49 48.5 129 48.5 q80 0 129.5 -48.5 q49.5 -48.5 49.5 -120.5 q0 -71 -49.5 -119 ZM198 447 q26 0 42 15 q16 15 16 46 q0 32 -16 47.5 q-16 15.5 -42 15.5 q-25 0 -40.5 -15.5 q-15.5 -15.5 -15.5 -47.5 q0 -31 15.5 -46 q15.5 -15 40.5 -15 ZM585 94 q58 0 58 61 q0 32 -16 47.5 q-16 15.5 -42 15.5 q-57 0 -57 -63 q0 -61 57 -61 Z" /><glyph glyph-name="ampersand" unicode="&amp;" d="M664 0 l-222 0 l-31 32 q-77 -44 -166 -44 q-102 0 -167.5 52 q-65.5 52 -65.5 149 q0 120 140 187 q-37 74 -37 136 q0 70 59.5 117.5 q59.5 47.5 153.5 47.5 q81 0 140 -41.5 q59 -41.5 59 -109.5 q0 -69 -41.5 -108 q-41.5 -39 -116.5 -71 q21 -30 38 -49 l36 -46 q33 52 49 106 l139 -66 q-43 -89 -95 -151 q49 -55 128 -141 ZM272 126 q24 0 47 10 q-31 36 -50 61 q-24 30 -49 66 q-20 -25 -20 -56 q0 -35 21 -58 q21 -23 51 -23 ZM291 507 q0 -28 19 -66 q66 32 66 74 q0 16 -11 26.5 q-11 10.5 -28 10.5 q-20 0 -33 -12.5 q-13 -12.5 -13 -32.5 Z" /><glyph glyph-name="quotesingle" unicode="&#39;" d="M163 339 l-74 0 q-55 223 -55 246 q0 38 27 65 q27 27 65 27 q38 0 65 -27 q27 -27 27 -65 q0 -10 -14 -71.5 q-14 -61.5 -28 -117.5 l-13 -57 Z" /><glyph glyph-name="parenleft" unicode="(" d="M328 -110 l-114 -89 q-79 70 -128 195 q-49 125 -49 247 q0 122 49 247 q49 125 128 195 l114 -87 q-53 -87 -75.5 -170 q-22.5 -83 -22.5 -185 q0 -101 22.5 -184.5 q22.5 -83.5 75.5 -168.5 Z" /><glyph glyph-name="parenright" unicode=")" d="M132 -199 l-114 89 q53 85 75.5 168.5 q22.5 83.5 22.5 184.5 q0 102 -22.5 185 q-22.5 83 -75.5 170 l114 87 q79 -70 128 -195 q49 -125 49 -247 q0 -122 -49 -247 q-49 -125 -128 -195 Z" /><glyph glyph-name="asterisk" unicode="*" d="M222 343 l-81 0 l4 105 l-88 -56 l-40 70 l92 48 l-92 48 l40 70 l88 -56 l-4 105 l81 0 l-5 -105 l88 56 l41 -70 l-93 -48 l93 -48 l-41 -70 l-88 56 l5 -105 Z" /><glyph glyph-name="plus" unicode="+" d="M481 285 l-168 0 l0 -193 l-116 0 l0 193 l-168 0 l0 105 l168 0 l0 185 l116 0 l0 -185 l168 0 l0 -105 Z" /><glyph glyph-name="comma" unicode="," d="M254 73 q0 -132 -125 -220 l-73 59 q25 11 53.5 40 q28.5 29 37.5 56 q-10 -4 -26 -4 q-37 0 -62 26 q-25 26 -25 67 q0 43 31 74 q31 31 73 31 q48 0 82 -35 q34 -35 34 -94 Z" /><glyph glyph-name="hyphen" unicode="-" d="M270 167 l-240 0 l0 150 l240 0 l0 -150 Z" /><glyph glyph-name="period" unicode="." d="M216 20 q-32 -32 -75 -32 q-43 0 -75 32 q-32 32 -32 75 q0 43 32 75 q32 32 75 32 q43 0 75 -32 q32 -32 32 -75 q0 -43 -32 -75 Z" /><glyph glyph-name="slash" unicode="/" d="M125 -20 l-125 0 l237 707 l125 0 l-237 -707 Z" /><glyph glyph-name="zero" unicode="0" d="M478.5 37.5 q-68.5 -49.5 -164.5 -49.5 q-96 0 -164.5 49.5 q-68.5 49.5 -100 126 q-31.5 76.5 -31.5 169.5 q0 145 77 244.5 q77 99.5 219 99.5 q142 0 219 -99.5 q77 -99.5 77 -244.5 q0 -93 -31.5 -169.5 q-31.5 -76.5 -100 -126 ZM221 333 q0 -167 93 -167 q93 0 93 167 q0 166 -93 166 q-93 0 -93 -166 Z" /><glyph glyph-name="one" unicode="1" d="M429 0 l-202 0 l0 410 l-113 -112 l-114 119 l255 250 l174 0 l0 -667 Z" /><glyph glyph-name="two" unicode="2" d="M586 0 l-545 0 l0 157 q125 88 183 130 q58 42 97 76 q39 34 46.5 49 q7.5 15 7.5 35 q0 23 -22 37.5 q-22 14.5 -55 14.5 q-94 0 -176 -69 l-110 134 q54 58 129.5 85.5 q75.5 27.5 152.5 27.5 q129 0 207.5 -64.5 q78.5 -64.5 78.5 -165.5 q0 -70 -47 -132 q-47 -62 -164 -139 l217 0 l0 -176 Z" /><glyph glyph-name="three" unicode="3" d="M300 -12 q-95 0 -169.5 28.5 q-74.5 28.5 -118.5 75.5 l99 138 q36 -31 87 -47.5 q51 -16.5 94 -16.5 q47 0 72 13 q25 13 25 32 q0 19 -20.5 27.5 q-20.5 8.5 -82.5 8.5 q-77 0 -97 -2 l0 179 q13 -1 97 -1 q92 0 92 33 q0 43 -99 43 q-93 0 -163 -58 l-95 126 q100 110 280 110 q135 0 206.5 -50 q71.5 -50 71.5 -135 q0 -53 -41.5 -95.5 q-41.5 -42.5 -105.5 -52.5 q61 -7 109.5 -49 q48.5 -42 48.5 -107 q0 -89 -80 -144.5 q-80 -55.5 -210 -55.5 Z" /><glyph glyph-name="four" unicode="4" d="M541 0 l-202 0 l0 107 l-321 0 l0 155 l243 405 l280 0 l0 -384 l77 0 l0 -176 l-77 0 l0 -107 ZM339 283 l0 210 l-126 -210 l126 0 Z" /><glyph glyph-name="five" unicode="5" d="M311 -12 q-175 0 -279 94 l108 142 q70 -58 169 -58 q47 0 70.5 16 q23.5 16 23.5 39 q0 24 -22 39.5 q-22 15.5 -66 15.5 q-75 0 -124 -46 l-139 32 l0 405 l510 0 l0 -176 l-308 0 l0 -94 q53 51 139 51 q89 0 152 -60.5 q63 -60.5 63 -157.5 q0 -111 -79 -176.5 q-79 -65.5 -218 -65.5 Z" /><glyph glyph-name="six" unicode="6" d="M336 -12 q-157 0 -237.5 95 q-80.5 95 -80.5 249 q0 164 95.5 254.5 q95.5 90.5 254.5 90.5 q123 0 208 -58 l-85 -156 q-51 36 -123 36 q-56 0 -101 -30 q-45 -30 -45 -86 l0 -2 q53 68 155 68 q96 0 166 -59.5 q70 -59.5 70 -161.5 q0 -107 -78.5 -173.5 q-78.5 -66.5 -198.5 -66.5 ZM323 166 q37 0 61 16 q24 16 24 38 q0 29 -28.5 43.5 q-28.5 14.5 -64.5 14.5 q-59 0 -94 -27 q3 -37 28 -61 q25 -24 74 -24 Z" /><glyph glyph-name="seven" unicode="7" d="M341 0 l-221 0 l211 491 l-313 0 l0 176 l545 0 l0 -140 l-222 -527 Z" /><glyph glyph-name="eight" unicode="8" d="M458.5 6.5 q-64.5 -18.5 -143.5 -18.5 q-79 0 -143.5 18.5 q-64.5 18.5 -109 62.5 q-44.5 44 -44.5 109 q0 53 34.5 97.5 q34.5 44.5 92.5 68.5 q-116 48 -116 154 q0 62 44.5 104 q44.5 42 106 58.5 q61.5 16.5 135.5 16.5 q74 0 135.5 -16.5 q61.5 -16.5 106 -58.5 q44.5 -42 44.5 -104 q0 -106 -117 -154 q58 -24 93 -68.5 q35 -44.5 35 -97.5 q0 -65 -44.5 -109 q-44.5 -44 -109 -62.5 ZM315 422 q32 5 56 18 q24 13 24 28 q0 20 -21.5 32.5 q-21.5 12.5 -58.5 12.5 q-38 0 -59.5 -12.5 q-21.5 -12.5 -21.5 -32.5 q0 -15 24.5 -28 q24.5 -13 56.5 -18 ZM315 152 q41 0 66.5 14 q25.5 14 25.5 35 q0 18 -28.5 32.5 q-28.5 14.5 -63.5 19.5 q-36 -5 -64 -19.5 q-28 -14.5 -28 -32.5 q0 -21 25 -35 q25 -14 67 -14 Z" /><glyph glyph-name="nine" unicode="9" d="M257 -11 q-123 0 -208 58 l85 156 q51 -36 123 -36 q63 0 104.5 33 q41.5 33 41.5 82 l0 3 q-53 -68 -155 -68 q-96 0 -166 59.5 q-70 59.5 -70 161.5 q0 107 78.5 173.5 q78.5 66.5 198.5 66.5 q157 0 237.5 -95 q80.5 -95 80.5 -249 q0 -164 -95.5 -254.5 q-95.5 -90.5 -254.5 -90.5 ZM310 388 q59 0 94 27 q-3 37 -28 61 q-25 24 -75 24 q-36 0 -60 -16 q-24 -16 -24 -38 q0 -29 28.5 -43.5 q28.5 -14.5 64.5 -14.5 Z" /><glyph glyph-name="colon" unicode=":" d="M216 308 q-32 -32 -75 -32 q-43 0 -75 32 q-32 32 -32 75 q0 43 32 75 q32 32 75 32 q43 0 75 -32 q32 -32 32 -75 q0 -43 -32 -75 ZM216 20 q-32 -32 -75 -32 q-43 0 -75 32 q-32 32 -32 75 q0 43 32 75 q32 32 75 32 q43 0 75 -32 q32 -32 32 -75 q0 -43 -32 -75 Z" /><glyph glyph-name="semicolon" unicode=";" d="M216 308 q-32 -32 -75 -32 q-43 0 -75 32 q-32 32 -32 76 q0 43 31.5 74.5 q31.5 31.5 75.5 31.5 q44 0 75.5 -31.5 q31.5 -31.5 31.5 -74.5 q0 -44 -32 -76 ZM254 74 q0 -132 -125 -220 l-73 59 q25 11 53.5 40 q28.5 29 37.5 56 q-10 -4 -26 -4 q-37 0 -62 26 q-25 26 -25 67 q0 43 31 74 q31 31 73 31 q48 0 82 -35 q34 -35 34 -94 Z" /><glyph glyph-name="less" unicode="&lt;" d="M481 90 l-452 180 l0 130 l452 180 l0 -125 l-334 -121 l334 -119 l0 -125 Z" /><glyph glyph-name="equal" unicode="=" d="M481 373 l-452 0 l0 105 l452 0 l0 -105 ZM481 190 l-452 0 l0 105 l452 0 l0 -105 Z" /><glyph glyph-name="greater" unicode="&gt;" d="M481 270 l-452 -180 l0 125 l334 119 l-334 121 l0 125 l452 -180 l0 -130 Z" /><glyph glyph-name="question" unicode="?" d="M153 224 q-27 37 -27 95 q0 37 17.5 66 q17.5 29 38.5 43 q21 14 38.5 27 q17.5 13 17.5 23 q0 21 -39 21 q-47 0 -87 -42 l-112 129 q42 45 101.5 68 q59.5 23 120.5 23 q101 0 160.5 -43.5 q59.5 -43.5 59.5 -117.5 q0 -39 -14.5 -70 q-14.5 -31 -35.5 -49 q-21 -18 -42 -33.5 q-21 -15.5 -35.5 -32 q-14.5 -16.5 -14.5 -34.5 q0 -24 11 -37 l-158 -36 ZM303.5 20 q-31.5 -32 -75.5 -32 q-44 0 -75.5 32 q-31.5 32 -31.5 75 q0 43 31.5 75 q31.5 32 75.5 32 q44 0 75.5 -32 q31.5 -32 31.5 -75 q0 -43 -31.5 -75 Z" /><glyph glyph-name="at" unicode="@" d="M352 -70 q-136 0 -226.5 90.5 q-90.5 90.5 -90.5 223.5 q0 157 120 275.5 q120 118.5 277 118.5 q141 0 228 -86 q87 -86 87 -209 q0 -64 -22 -115.5 q-22 -51.5 -56 -81.5 q-34 -30 -71.5 -45.5 q-37.5 -15.5 -73.5 -15.5 q-84 0 -103 66 l-2 7 q-51 -73 -129 -73 q-73 0 -115 49 q-42 49 -42 125 q0 95 65.5 166.5 q65.5 71.5 151.5 71.5 q84 0 122 -56 l9 44 l158 0 l-46 -217 q-3 -15 -3 -27 q0 -38 28 -38 q32 0 55.5 37.5 q23.5 37.5 23.5 102.5 q0 115 -72 183 q-72 68 -197 68 q-140 0 -244 -104 q-104 -104 -104 -243 q0 -117 79 -195.5 q79 -78.5 198 -78.5 q93 0 179 54 l24 -34 q-98 -63 -208 -63 ZM358 209 q42 0 74 41 l19 95 q-19 28 -58 28 q-44 0 -71 -30 q-27 -30 -27 -70 q0 -29 17 -46.5 q17 -17.5 46 -17.5 Z" /><glyph glyph-name="A" unicode="a" d="M728 0 l-229 0 l-24 78 l-240 0 l-24 -78 l-229 0 l246 667 l254 0 l246 -667 ZM421 254 l-66 215 l-66 -215 l132 0 Z" /><glyph glyph-name="B" unicode="b" d="M473 0 l-419 0 l0 667 l405 0 q96 0 147 -52 q51 -52 51 -118 q0 -61 -32 -101.5 q-32 -40.5 -82 -51.5 q55 -8 91 -53.5 q36 -45.5 36 -109.5 q0 -75 -51 -128 q-51 -53 -146 -53 ZM412 421 q16 0 28 11.5 q12 11.5 12 28.5 q0 17 -12 27.5 q-12 10.5 -28 10.5 l-156 0 l0 -78 l156 0 ZM418 168 q22 0 34.5 11.5 q12.5 11.5 12.5 30.5 q0 18 -13 30.5 q-13 12.5 -34 12.5 l-162 0 l0 -85 l162 0 Z" /><glyph glyph-name="C" unicode="c" d="M385 -12 q-158 0 -262.5 96.5 q-104.5 96.5 -104.5 248.5 q0 153 104 249 q104 96 263 96 q120 0 193.5 -56 q73.5 -56 109.5 -138 l-174 -81 q-13 40 -49 68.5 q-36 28.5 -80 28.5 q-72 0 -117 -48 q-45 -48 -45 -119 q0 -71 45 -119 q45 -48 117 -48 q44 0 80 28.5 q36 28.5 49 68.5 l174 -80 q-16 -37 -40 -68.5 q-24 -31.5 -60 -61.5 q-36 -30 -88.5 -47.5 q-52.5 -17.5 -114.5 -17.5 Z" /><glyph glyph-name="D" unicode="d" d="M353 0 l-299 0 l0 667 l298 0 q162 0 264 -88.5 q102 -88.5 102 -244.5 q0 -156 -102 -245 q-102 -89 -263 -89 ZM352 176 q73 0 117 46 q44 46 44 112 q0 71 -41 114 q-41 43 -119 43 l-97 0 l0 -315 l96 0 Z" /><glyph glyph-name="E" unicode="e" d="M560 0 l-506 0 l0 667 l506 0 l0 -176 l-304 0 l0 -66 l297 0 l0 -176 l-297 0 l0 -73 l304 0 l0 -176 Z" /><glyph glyph-name="F" unicode="f" d="M256 0 l-202 0 l0 667 l506 0 l0 -176 l-304 0 l0 -66 l297 0 l0 -176 l-297 0 l0 -249 Z" /><glyph glyph-name="G" unicode="g" d="M385 -12 q-156 0 -261.5 94.5 q-105.5 94.5 -105.5 250.5 q0 156 105.5 250.5 q105.5 94.5 261.5 94.5 q110 0 183.5 -50 q73.5 -50 109.5 -124 l-170 -87 q-16 34 -48.5 58.5 q-32.5 24.5 -74.5 24.5 q-72 0 -117 -48 q-45 -48 -45 -119 q0 -71 45 -119 q45 -48 117 -48 q28 0 58 9 q30 9 46 21 l0 24 l-124 0 l0 176 l325 0 l0 -273 q-122 -135 -305 -135 Z" /><glyph glyph-name="H" unicode="h" d="M697 0 l-202 0 l0 255 l-239 0 l0 -255 l-202 0 l0 667 l202 0 l0 -236 l239 0 l0 236 l202 0 l0 -667 Z" /><glyph glyph-name="I" unicode="i" d="M256 0 l-202 0 l0 667 l202 0 l0 -667 Z" /><glyph glyph-name="J" unicode="j" d="M186 -12 q-116 0 -186 54 l82 154 q44 -30 86 -30 q33 0 53.5 20 q20.5 20 20.5 55 l0 426 l202 0 l0 -429 q0 -125 -69 -187.5 q-69 -62.5 -189 -62.5 Z" /><glyph glyph-name="K" unicode="k" d="M689 0 l-246 0 l-150 235 l-37 -50 l0 -185 l-202 0 l0 667 l202 0 l0 -250 l175 250 l247 0 l-252 -310 l263 -357 Z" /><glyph glyph-name="L" unicode="l" d="M509 0 l-455 0 l0 667 l202 0 l0 -491 l253 0 l0 -176 Z" /><glyph glyph-name="M" unicode="m" d="M846 0 l-202 0 l0 401 l-149 -401 l-90 0 l-149 401 l0 -401 l-202 0 l0 667 l279 0 l117 -320 l117 320 l279 0 l0 -667 Z" /><glyph glyph-name="N" unicode="n" d="M696 0 l-194 0 l-246 338 l0 -338 l-202 0 l0 667 l208 0 l232 -316 l0 316 l202 0 l0 -667 Z" /><glyph glyph-name="O" unicode="o" d="M643.5 84.5 q-104.5 -96.5 -260.5 -96.5 q-156 0 -260.5 96.5 q-104.5 96.5 -104.5 248.5 q0 152 104.5 248.5 q104.5 96.5 260.5 96.5 q156 0 260.5 -96.5 q104.5 -96.5 104.5 -248.5 q0 -152 -104.5 -248.5 ZM267.5 214 q44.5 -48 115.5 -48 q71 0 115.5 48 q44.5 48 44.5 119 q0 71 -44.5 119 q-44.5 48 -115.5 48 q-71 0 -115.5 -48 q-44.5 -48 -44.5 -119 q0 -71 44.5 -119 Z" /><glyph glyph-name="P" unicode="p" d="M256 0 l-202 0 l0 667 l356 0 q113 0 176.5 -65.5 q63.5 -65.5 63.5 -163.5 q0 -97 -63.5 -162.5 q-63.5 -65.5 -176.5 -65.5 l-154 0 l0 -210 ZM384 386 q27 0 44 13.5 q17 13.5 17 38.5 q0 26 -17 39.5 q-17 13.5 -44 13.5 l-128 0 l0 -105 l128 0 Z" /><glyph glyph-name="Q" unicode="q" d="M383 -12 q-156 0 -260.5 96.5 q-104.5 96.5 -104.5 248.5 q0 152 104.5 248.5 q104.5 96.5 260.5 96.5 q156 0 260.5 -96.5 q104.5 -96.5 104.5 -248.5 q0 -133 -83 -226 l36 -45 l-140 -112 l-47 58 q-63 -20 -131 -20 ZM383 166 l6 0 l-46 58 l140 112 l50 -64 q10 27 10 61 q0 71 -44.5 119 q-44.5 48 -115.5 48 q-71 0 -115.5 -48 q-44.5 -48 -44.5 -119 q0 -71 44.5 -119 q44.5 -48 115.5 -48 Z" /><glyph glyph-name="R" unicode="r" d="M651 0 l-230 0 l-92 210 l-73 0 l0 -210 l-202 0 l0 667 l356 0 q113 0 176.5 -65.5 q63.5 -65.5 63.5 -163.5 q0 -78 -35.5 -128 q-35.5 -50 -84.5 -74 l121 -236 ZM379 386 q28 0 47 13.5 q19 13.5 19 39.5 q0 25 -19 38.5 q-19 13.5 -47 13.5 l-123 0 l0 -105 l123 0 Z" /><glyph glyph-name="S" unicode="s" d="M313 -12 q-192 0 -310 106 l105 150 q90 -86 215 -86 q74 0 74 36 q0 17 -38.5 26 q-38.5 9 -93 19 q-54.5 10 -109 29 q-54.5 19 -93 67 q-38.5 48 -38.5 121 q0 91 73.5 156 q73.5 65 203.5 65 q169 0 283 -93 l-108 -143 q-87 66 -196 66 q-51 0 -51 -30 q0 -14 27.5 -24 q27.5 -10 68.5 -15.5 q41 -5.5 89.5 -20 q48.5 -14.5 89.5 -34.5 q41 -20 68.5 -62.5 q27.5 -42.5 27.5 -100.5 q0 -110 -76.5 -171 q-76.5 -61 -211.5 -61 Z" /><glyph glyph-name="T" unicode="t" d="M399 0 l-202 0 l0 491 l-179 0 l0 176 l559 0 l0 -176 l-178 0 l0 -491 Z" /><glyph glyph-name="U" unicode="u" d="M630 66.5 q-83 -78.5 -246 -78.5 q-163 0 -246.5 78.5 q-83.5 78.5 -83.5 207.5 l0 393 l205 0 l0 -386 q0 -50 32.5 -82.5 q32.5 -32.5 92.5 -32.5 q59 0 91.5 32.5 q32.5 32.5 32.5 82.5 l0 386 l205 0 l0 -392 q0 -130 -83 -208.5 Z" /><glyph glyph-name="V" unicode="v" d="M482 0 l-254 0 l-246 667 l229 0 l144 -449 l144 449 l229 0 l-246 -667 Z" /><glyph glyph-name="W" unicode="w" d="M775 0 l-212 0 l-86 378 l-86 -378 l-212 0 l-191 667 l226 0 l86 -408 l101 408 l152 0 l101 -408 l85 408 l227 0 l-191 -667 Z" /><glyph glyph-name="X" unicode="x" d="M702 0 l-238 0 l-122 204 l-122 -204 l-238 0 l223 342 l-208 325 l237 0 l108 -190 l106 190 l239 0 l-208 -324 l223 -343 Z" /><glyph glyph-name="Y" unicode="y" d="M434 0 l-202 0 l0 265 l-250 402 l227 0 l124 -225 l122 225 l227 0 l-248 -402 l0 -265 Z" /><glyph glyph-name="Z" unicode="z" d="M564 0 l-528 0 l0 160 l254 331 l-254 0 l0 176 l521 0 l0 -159 l-255 -332 l262 0 l0 -176 Z" /><glyph glyph-name="bracketleft" unicode="[" d="M299 -190 l-245 0 l0 868 l245 0 l0 -114 l-120 0 l0 -640 l120 0 l0 -114 Z" /><glyph glyph-name="backslash" unicode="\" d="M237 -20 l-237 707 l125 0 l237 -707 l-125 0 Z" /><glyph glyph-name="bracketright" unicode="]" d="M263 -190 l-245 0 l0 114 l120 0 l0 640 l-120 0 l0 114 l245 0 l0 -868 Z" /><glyph glyph-name="asciicircum" unicode="^" d="M431 333 l-126 0 l-80 215 l-79 -215 l-127 0 l143 334 l129 0 l140 -334 Z" /><glyph glyph-name="underscore" unicode="_" d="M567 -154 l-570 0 l0 114 l570 0 l0 -114 Z" /><glyph glyph-name="grave" unicode="`" d="M275 556 l-120 0 l-155 144 l155 0 l120 -144 Z" /><glyph glyph-name="a" unicode="a" d="M509 0 l-180 0 l0 46 q-20 -26 -60.5 -42 q-40.5 -16 -85.5 -16 q-62 0 -114 41.5 q-52 41.5 -52 117.5 q0 56 27.5 92.5 q27.5 36.5 62.5 49 q35 12.5 76 12.5 q104 0 146 -53 l0 50 q0 26 -23.5 43 q-23.5 17 -66.5 17 q-72 0 -134 -47 l-61 111 q91 73 228 73 q48 0 88 -9.5 q40 -9.5 75 -31 q35 -21.5 54.5 -63 q19.5 -41.5 19.5 -99.5 l0 -292 ZM258 105 q53 0 71 26 l0 27 q-18 26 -71 26 q-63 0 -63 -40 q0 -39 63 -39 Z" /><glyph glyph-name="b" unicode="b" d="M230 179 q26 -32 75 -32 q38 0 64 25.5 q26 25.5 26 69.5 q0 43 -26 68.5 q-26 25.5 -64 25.5 q-48 0 -75 -33 l0 -124 ZM230 0 l-180 0 l0 667 l180 0 l0 -235 q52 63 136 63 q92 0 152.5 -68 q60.5 -68 60.5 -185 q0 -120 -60.5 -187 q-60.5 -67 -152.5 -67 q-80 0 -136 63 l0 -51 Z" /><glyph glyph-name="c" unicode="c" d="M288 -12 q-117 0 -194 70 q-77 70 -77 184 q0 113 77 183 q77 70 194 70 q75 0 128 -27.5 q53 -27.5 77 -63.5 l-116 -109 q-27 41 -81 41 q-40 0 -67.5 -24.5 q-27.5 -24.5 -27.5 -69.5 q0 -45 27.5 -70 q27.5 -25 67.5 -25 q52 0 81 42 l116 -110 q-24 -36 -77 -63.5 q-53 -27.5 -128 -27.5 Z" /><glyph glyph-name="d" unicode="d" d="M546 0 l-180 0 l0 51 q-56 -63 -136 -63 q-92 0 -152.5 67 q-60.5 67 -60.5 187 q0 117 60.5 185 q60.5 68 152.5 68 q84 0 136 -63 l0 235 l180 0 l0 -667 ZM291 147 q48 0 75 33 l0 124 q-26 32 -75 32 q-38 0 -64 -25.5 q-26 -25.5 -26 -68.5 q0 -44 26 -69.5 q26 -25.5 64 -25.5 Z" /><glyph glyph-name="e" unicode="e" d="M286 -12 q-116 0 -192.5 69 q-76.5 69 -76.5 185 q0 107 74 180 q74 73 189 73 q109 0 180 -73.5 q71 -73.5 71 -198.5 l0 -37 l-328 0 q8 -25 35 -43 q27 -18 69 -18 q23 0 58.5 10 q35.5 10 52.5 24 l74 -111 q-34 -29 -91 -44.5 q-57 -15.5 -115 -15.5 ZM360 300 q-14 58 -80 58 q-63 0 -79 -58 l159 0 Z" /><glyph glyph-name="f" unicode="f" d="M267 0 l-180 0 l0 327 l-80 0 l0 156 l80 0 l0 22 q0 76 52 124 q52 48 132 48 q102 0 151 -52 l-65 -100 q-16 19 -44 19 q-18 0 -32 -11 q-14 -11 -14 -28 l0 -22 l98 0 l0 -156 l-98 0 l0 -327 Z" /><glyph glyph-name="g" unicode="g" d="M253 -196 q-129 0 -220 72 l76 128 q53 -53 144 -53 q43 0 77.5 22.5 q34.5 22.5 34.5 78.5 l0 26 q-57 -65 -136 -65 q-93 0 -152.5 61.5 q-59.5 61.5 -59.5 179.5 q0 116 59.5 178.5 q59.5 62.5 152.5 62.5 q83 0 136 -63 l0 51 l180 0 l0 -431 q0 -60 -19.5 -106 q-19.5 -46 -48.5 -72 q-29 -26 -69.5 -42.5 q-40.5 -16.5 -77.5 -22 q-37 -5.5 -77 -5.5 ZM291 172 q19 0 40.5 8.5 q21.5 8.5 33.5 22.5 l0 102 q-12 14 -33.5 22.5 q-21.5 8.5 -40.5 8.5 q-40 0 -65 -20 q-25 -20 -25 -62 q0 -42 25 -62 q25 -20 65 -20 Z" /><glyph glyph-name="h" unicode="h" d="M558 0 l-180 0 l0 269 q0 67 -70 67 q-43 0 -77 -38 l0 -298 l-180 0 l0 667 l180 0 l0 -239 q59 67 166 67 q80 0 120.5 -41.5 q40.5 -41.5 40.5 -108.5 l0 -345 Z" /><glyph glyph-name="i" unicode="i" d="M211.5 547.5 q-29.5 -29.5 -71.5 -29.5 q-42 0 -71.5 29.5 q-29.5 29.5 -29.5 71.5 q0 42 29.5 71.5 q29.5 29.5 71.5 29.5 q42 0 71.5 -29.5 q29.5 -29.5 29.5 -71.5 q0 -42 -29.5 -71.5 ZM230 0 l-180 0 l0 483 l180 0 l0 -483 Z" /><glyph glyph-name="j" unicode="j" d="M211.5 547.5 q-29.5 -29.5 -71.5 -29.5 q-42 0 -71.5 29.5 q-29.5 29.5 -29.5 71.5 q0 42 29.5 71.5 q29.5 29.5 71.5 29.5 q42 0 71.5 -29.5 q29.5 -29.5 29.5 -71.5 q0 -42 -29.5 -71.5 ZM29 -196 q-52 0 -78 7 q-26 7 -57 26 l43 133 q25 -19 60 -19 q53 0 53 70 l0 462 l180 0 l0 -462 q0 -98 -50 -157.5 q-50 -59.5 -151 -59.5 Z" /><glyph glyph-name="k" unicode="k" d="M569 0 l-221 0 l-83 156 l-35 -47 l0 -109 l-180 0 l0 667 l180 0 l0 -356 l111 172 l217 0 l-166 -220 l177 -263 Z" /><glyph glyph-name="l" unicode="l" d="M230 0 l-180 0 l0 667 l180 0 l0 -667 Z" /><glyph glyph-name="m" unicode="m" d="M847 0 l-180 0 l0 282 q0 24 -13.5 39 q-13.5 15 -41.5 15 q-41 0 -74 -38 l0 -298 l-180 0 l0 282 q0 54 -55 54 q-40 0 -73 -38 l0 -298 l-180 0 l0 483 l180 0 l0 -55 q19 24 63 45.5 q44 21.5 97 21.5 q108 0 139 -85 q23 35 68.5 60 q45.5 25 100.5 25 q69 0 109 -36 q40 -36 40 -109 l0 -350 Z" /><glyph glyph-name="n" unicode="n" d="M557 0 l-180 0 l0 267 q0 69 -70 69 q-43 0 -77 -38 l0 -298 l-180 0 l0 483 l180 0 l0 -55 q59 67 166 67 q80 0 120.5 -42.5 q40.5 -42.5 40.5 -109.5 l0 -343 Z" /><glyph glyph-name="o" unicode="o" d="M486 62 q-74 -74 -198 -74 q-124 0 -197.5 74 q-73.5 74 -73.5 180 q0 106 73.5 179.5 q73.5 73.5 197.5 73.5 q124 0 198 -73.5 q74 -73.5 74 -179.5 q0 -106 -74 -180 ZM288 147 q41 0 64 26.5 q23 26.5 23 68.5 q0 41 -23 67.5 q-23 26.5 -64 26.5 q-40 0 -63 -26.5 q-23 -26.5 -23 -67.5 q0 -42 23 -68.5 q23 -26.5 63 -26.5 Z" /><glyph glyph-name="p" unicode="p" d="M366 -12 q-81 0 -136 63 l0 -235 l-180 0 l0 667 l180 0 l0 -51 q53 63 136 63 q93 0 152.5 -66.5 q59.5 -66.5 59.5 -186.5 q0 -121 -59.5 -187.5 q-59.5 -66.5 -152.5 -66.5 ZM304 147 q38 0 64 25.5 q26 25.5 26 69.5 q0 43 -26 68.5 q-26 25.5 -64 25.5 q-19 0 -40.5 -9 q-21.5 -9 -33.5 -24 l0 -123 q11 -14 33.5 -23.5 q22.5 -9.5 40.5 -9.5 Z" /><glyph glyph-name="q" unicode="q" d="M291 147 q18 0 40.5 9.5 q22.5 9.5 33.5 23.5 l0 123 q-12 15 -33.5 24 q-21.5 9 -40.5 9 q-38 0 -64 -25.5 q-26 -25.5 -26 -68.5 q0 -44 26 -69.5 q26 -25.5 64 -25.5 ZM229 -12 q-93 0 -152.5 66.5 q-59.5 66.5 -59.5 187.5 q0 120 59.5 186.5 q59.5 66.5 152.5 66.5 q83 0 136 -63 l0 51 l180 0 l0 -667 l-180 0 l0 235 q-55 -63 -136 -63 Z" /><glyph glyph-name="r" unicode="r" d="M230 0 l-180 0 l0 483 l180 0 l0 -53 q23 27 65.5 47 q42.5 20 82.5 20 l0 -172 q-15 5 -41 5 q-79 0 -107 -34 l0 -296 Z" /><glyph glyph-name="s" unicode="s" d="M246 -12 q-66 0 -132 20.5 q-66 20.5 -105 53.5 l72 121 q29 -23 82 -42 q53 -19 92 -19 q48 0 48 21 q0 10 -20.5 16 q-20.5 6 -50.5 8.5 q-30 2.5 -66 11.5 q-36 9 -66 23.5 q-30 14.5 -50.5 47.5 q-20.5 33 -20.5 80 q0 69 57.5 117 q57.5 48 158.5 48 q115 0 209 -62 l-66 -117 q-25 20 -63.5 35 q-38.5 15 -78.5 15 q-19 0 -32 -6.5 q-13 -6.5 -13 -14.5 q0 -10 28 -15 q28 -5 68.5 -12 q40.5 -7 81 -21 q40.5 -14 68.5 -50.5 q28 -36.5 28 -92.5 q0 -73 -62 -119.5 q-62 -46.5 -167 -46.5 Z" /><glyph glyph-name="t" unicode="t" d="M253 -12 q-81 0 -123.5 38.5 q-42.5 38.5 -42.5 113.5 l0 187 l-80 0 l0 156 l80 0 l0 132 l180 0 l0 -132 l98 0 l0 -156 l-98 0 l0 -135 q0 -19 11 -32 q11 -13 29 -13 q27 0 36 9 l32 -136 q-36 -32 -122 -32 Z" /><glyph glyph-name="u" unicode="u" d="M556 0 l-180 0 l0 54 q-60 -66 -166 -66 q-80 0 -120 42 q-40 42 -40 108 l0 345 l180 0 l0 -268 q0 -68 70 -68 q42 0 76 38 l0 298 l180 0 l0 -483 Z" /><glyph glyph-name="v" unicode="v" d="M363 0 l-191 0 l-187 483 l190 0 l92 -276 l93 276 l190 0 l-187 -483 Z" /><glyph glyph-name="w" unicode="w" d="M677 0 l-196 0 l-79 270 l-78 -270 l-196 0 l-140 483 l185 0 l64 -266 l85 266 l161 0 l84 -266 l64 266 l186 0 l-140 -483 Z" /><glyph glyph-name="x" unicode="x" d="M533 0 l-197 0 l-75 128 l-77 -128 l-196 0 l158 248 l-148 235 l197 0 l65 -113 l65 113 l197 0 l-148 -235 l159 -248 Z" /><glyph glyph-name="y" unicode="y" d="M45 -188 l25 160 q16 -9 38 -9 q54 0 63 19 l4 10 l-190 491 l190 0 l92 -276 l93 276 l190 0 l-210 -543 q-30 -78 -84 -105.5 q-54 -27.5 -141 -30.5 q-43 0 -70 8 Z" /><glyph glyph-name="z" unicode="z" d="M453 0 l-420 0 l0 132 l170 195 l-170 0 l0 156 l416 0 l0 -126 l-174 -201 l178 0 l0 -156 Z" /><glyph glyph-name="braceleft" unicode="{" d="M299 -190 l-60 0 q-76 0 -130.5 50 q-54.5 50 -54.5 134 l0 139 q0 29 -13.5 46.5 q-13.5 17.5 -38.5 17.5 l0 94 q25 0 38.5 17.5 q13.5 17.5 13.5 46.5 l0 138 q0 84 54.5 134.5 q54.5 50.5 130.5 50.5 l60 0 l0 -114 l-60 0 q-26 0 -43 -19 q-17 -19 -17 -51 l0 -159 q0 -71 -46 -91 q46 -20 46 -91 l0 -158 q0 -32 17.5 -51.5 q17.5 -19.5 42.5 -19.5 l60 0 l0 -114 Z" /><glyph glyph-name="bar" unicode="|" d="M168 -20 l-114 0 l0 707 l114 0 l0 -707 Z" /><glyph glyph-name="braceright" unicode="}" d="M17 -190 l0 114 l60 0 q25 0 42.5 19.5 q17.5 19.5 17.5 51.5 l0 158 q0 71 46 91 q-46 20 -46 91 l0 159 q0 32 -17 51 q-17 19 -43 19 l-60 0 l0 114 l60 0 q76 0 130.5 -50.5 q54.5 -50.5 54.5 -134.5 l0 -138 q0 -29 13.5 -46.5 q13.5 -17.5 38.5 -17.5 l0 -94 q-25 0 -38.5 -17.5 q-13.5 -17.5 -13.5 -46.5 l0 -139 q0 -84 -54.5 -134 q-54.5 -50 -130.5 -50 l-60 0 Z" /><glyph glyph-name="asciitilde" unicode="~" d="M377 667 l116 -14 q-4 -52 -11.5 -90.5 q-7.5 -38.5 -24 -78.5 q-16.5 -40 -47.5 -61.5 q-31 -21.5 -76 -21.5 q-38 0 -63 16.5 q-25 16.5 -36 40.5 q-11 24 -17.5 48 q-6.5 24 -14 40.5 q-7.5 16.5 -18.5 16.5 q-32 0 -42 -162 l-118 13 q4 51 12 90.5 q8 39.5 24.5 79 q16.5 39.5 48 61.5 q31.5 22 75.5 22 q38 0 63 -17 q25 -17 36 -40.5 q11 -23.5 17.5 -47.5 q6.5 -24 14 -41 q7.5 -17 18.5 -17 q33 0 43 163 Z" /><glyph glyph-name="nonbreakingspace" unicode=" " d="" /><glyph glyph-name="exclamdown" unicode="¡" d="M33 -184 l25 419 l162 0 l27 -419 l-214 0 ZM33 389 q0 43 31.5 74.5 q31.5 31.5 74.5 31.5 q43 0 74.5 -31.5 q31.5 -31.5 31.5 -74.5 q0 -44 -31.5 -75.5 q-31.5 -31.5 -74.5 -31.5 q-43 0 -74.5 31.5 q-31.5 31.5 -31.5 75.5 Z" /><glyph glyph-name="cent" unicode="¢" d="M229 -100 l0 93 q-94 17 -153 84 q-59 67 -59 165 q0 97 59 163.5 q59 66.5 153 84.5 l0 75 l126 0 l0 -77 q96 -20 138 -84 l-116 -109 q-27 41 -81 41 q-40 0 -67.5 -24.5 q-27.5 -24.5 -27.5 -69.5 q0 -45 27.5 -70 q27.5 -25 67.5 -25 q52 0 81 42 l116 -110 q-43 -64 -138 -84 l0 -95 l-126 0 Z" /><glyph glyph-name="sterling" unicode="£" d="M26 270 l0 109 l38 0 q-22 42 -22 81 q0 68 42.5 119.5 q42.5 51.5 100.5 74.5 q58 23 118 23 q100 0 163.5 -31 q63.5 -31 99.5 -99 l-160 -92 q-21 60 -77 60 q-29 0 -47.5 -17 q-18.5 -17 -18.5 -42 q0 -27 22 -77 l134 0 l0 -109 l-109 0 q-2 -24 -16 -48 q-14 -24 -35 -37 q18 6 43 6 q28 0 61 -12.5 q33 -12.5 53 -12.5 q52 0 76 33 l77 -159 q-48 -52 -160 -52 q-47 0 -106 21 q-59 21 -77 21 q-50 0 -114 -37 l-66 132 q85 47 85 96 q0 22 -10 49 l-95 0 Z" /><glyph glyph-name="currency" unicode="¤" d="M324 79 q-69 0 -125 25 l-74 -74 l-105 104 l68 68 q-35 59 -35 131 q0 74 36 132 l-69 69 l105 104 l75 -76 q58 24 124 24 q66 0 124 -24 l76 76 l104 -104 l-68 -69 q36 -61 36 -132 q0 -73 -37 -133 l69 -66 l-104 -104 l-77 73 q-56 -24 -123 -24 ZM324 238 q44 0 68.5 26.5 q24.5 26.5 24.5 68.5 q0 41 -24.5 67.5 q-24.5 26.5 -68.5 26.5 q-43 0 -67.5 -26.5 q-24.5 -26.5 -24.5 -67.5 q0 -42 24.5 -68.5 q24.5 -26.5 67.5 -26.5 Z" /><glyph glyph-name="yen" unicode="¥" d="M434 0 l-202 0 l0 107 l-207 0 l0 105 l207 0 l0 53 l-207 0 l0 105 l141 0 l-184 297 l227 0 l124 -225 l122 225 l227 0 l-183 -297 l142 0 l0 -105 l-207 0 l0 -53 l207 0 l0 -105 l-207 0 l0 -107 Z" /><glyph glyph-name="brokenbar" unicode="¦" d="M168 -20 l-114 0 l0 316 l114 0 l0 -316 ZM168 371 l-114 0 l0 316 l114 0 l0 -316 Z" /><glyph glyph-name="section" unicode="§" d="M475 336 q0 -39 -20 -73.5 q-20 -34.5 -55 -54.5 q75 -37 75 -123 q0 -77 -64.5 -121.5 q-64.5 -44.5 -164.5 -44.5 q-137 0 -234 80 l69 112 q31 -27 77 -48.5 q46 -21.5 88 -21.5 q57 0 57 27 q0 18 -28 28 q-28 10 -68.5 18 q-40.5 8 -81 21.5 q-40.5 13.5 -68.5 48 q-28 34.5 -28 89.5 q0 43 25.5 74.5 q25.5 31.5 54.5 46.5 q-80 37 -80 130 q0 66 62 109.5 q62 43.5 153 43.5 q134 0 209 -65 l-65 -105 q-60 48 -135 48 q-52 0 -52 -27 q0 -15 28 -23.5 q28 -8.5 68.5 -15.5 q40.5 -7 81 -20 q40.5 -13 68.5 -46.5 q28 -33.5 28 -86.5 ZM298 298 q0 42 -54 53 q-43 -8 -43 -48 q0 -43 63 -54 q34 14 34 49 Z" /><glyph glyph-name="dieresis" unicode="¨" d="M331 681 q26 -26 26 -63 q0 -37 -26 -63 q-26 -26 -64 -26 q-37 0 -63 26 q-26 26 -26 63 q0 37 26 63 q26 26 63 26 q38 0 64 -26 ZM114 681.5 q26 -25.5 26 -63.5 q0 -38 -26 -63.5 q-26 -25.5 -63 -25.5 q-37 0 -63 25.5 q-26 25.5 -26 63.5 q0 38 26 63.5 q26 25.5 63 25.5 q37 0 63 -25.5 Z" /><glyph glyph-name="copyright" unicode="©" d="M633 578 q101 -101 101 -244 q0 -143 -101 -244 q-101 -101 -244 -101 q-143 0 -244 101.5 q-101 101.5 -101 243.5 q0 143 101 244 q101 101 244 101 q143 0 244 -101 ZM603 120 q89 89 89 214 q0 125 -89 214 q-89 89 -214 89 q-125 0 -214 -89 q-89 -89 -89 -214 q0 -124 89 -213.5 q89 -89.5 214 -89.5 q125 0 214 89 ZM511 231 l38 -36 q-60 -70 -152 -70 q-87 0 -147.5 60 q-60.5 60 -60.5 150 q0 90 60.5 149 q60.5 59 147.5 59 q92 0 150 -68 l-37 -37 q-43 58 -113 58 q-65 0 -109 -45.5 q-44 -45.5 -44 -115.5 q0 -69 44.5 -116 q44.5 -47 108.5 -47 q70 0 114 59 Z" /><glyph glyph-name="ordfeminine" unicode="ª" d="M352 326 l-127 0 l0 29 q-29 -37 -96 -37 q-42 0 -75.5 27 q-33.5 27 -33.5 76 q0 49 33 74.5 q33 25.5 76 25.5 q68 0 96 -33 l0 24 q0 19 -14.5 31 q-14.5 12 -42.5 12 q-47 0 -86 -36 l-44 82 q63 47 153 47 q161 0 161 -139 l0 -183 ZM183 395 q31 0 42 19 l0 15 q-11 18 -42 18 q-38 0 -38 -26 q0 -26 38 -26 Z" /><glyph glyph-name="guillemotleft" unicode="«" d="M585 63 l-160 0 l-160 180 l160 177 l160 0 l-160 -177 l160 -180 ZM350 63 l-160 0 l-160 180 l160 177 l160 0 l-160 -177 l160 -180 Z" /><glyph glyph-name="logicalnot" unicode="¬" d="M481 478 l0 -288 l-108 0 l0 183 l-344 0 l0 105 l452 0 Z" /><glyph glyph-name="uni00AD" unicode="­" d="M270 167 l-240 0 l0 150 l240 0 l0 -150 Z" /><glyph glyph-name="registered" unicode="®" d="M459 465 q0 -88 -62 -150 q-62 -62 -150 -62 q-88 0 -150 62 q-62 62 -62 150 q0 88 62 150 q62 62 150 62 q89 0 150.5 -61.5 q61.5 -61.5 61.5 -150.5 ZM424 465 q0 74 -51.5 125.5 q-51.5 51.5 -125.5 51.5 q-74 0 -125.5 -51.5 q-51.5 -51.5 -51.5 -125.5 q0 -73 52 -125 q52 -52 125 -52 q73 0 125 52 q52 52 52 125 ZM349 343 l-45 0 l-63 96 l-39 0 l0 -96 l-37 0 l0 243 l99 0 q32 0 57 -21 q25 -21 25 -53 q0 -35 -22.5 -53.5 q-22.5 -18.5 -39.5 -18.5 l65 -97 ZM308 512 q0 19 -13.5 31 q-13.5 12 -30.5 12 l-62 0 l0 -84 l62 0 q17 0 30.5 11.5 q13.5 11.5 13.5 29.5 Z" /><glyph glyph-name="macron" unicode="¯" d="M363 551 l-363 0 l0 97 l363 0 l0 -97 Z" /><glyph glyph-name="degree" unicode="°" d="M314 528 q0 -61 -43.5 -104.5 q-43.5 -43.5 -105.5 -43.5 q-61 0 -104.5 43 q-43.5 43 -43.5 105 q0 62 43.5 105.5 q43.5 43.5 104.5 43.5 q61 0 105 -43.5 q44 -43.5 44 -105.5 ZM206.5 487.5 q17.5 16.5 17.5 40.5 q0 24 -17.5 41.5 q-17.5 17.5 -41.5 17.5 q-24 0 -40.5 -17.5 q-16.5 -17.5 -16.5 -41.5 q0 -24 16.5 -40.5 q16.5 -16.5 40.5 -16.5 q24 0 41.5 16.5 Z" /><glyph glyph-name="plusminus" unicode="±" d="M481 328 l-168 0 l0 -193 l-116 0 l0 193 l-168 0 l0 105 l168 0 l0 185 l116 0 l0 -185 l168 0 l0 -105 ZM481 0 l-452 0 l0 105 l452 0 l0 -105 Z" /><glyph glyph-name="twosuperior" unicode="²" d="M380 421 l-338 0 l0 95 q96 67 138.5 99 q42.5 32 53 44.5 q10.5 12.5 10.5 25.5 q0 38 -50 38 q-30 0 -60 -15 q-30 -15 -46 -33 l-66 84 q65 68 175 68 q83 0 131 -35.5 q48 -35.5 48 -95.5 q0 -39 -30.5 -76 q-30.5 -37 -113.5 -95 l148 0 l0 -104 Z" /><glyph glyph-name="threesuperior" unicode="³" d="M383 534 q0 -53 -50 -86.5 q-50 -33.5 -131 -33.5 q-119 0 -179 62 l62 87 q23 -23 55 -34 q32 -11 57 -11 q55 0 55 26 q0 18 -17 23 q-17 5 -56 5 q-43 0 -49 -1 l0 102 q9 -1 48 -1 q38 0 52.5 5.5 q14.5 5.5 14.5 20.5 q0 25 -57 25 q-60 0 -102 -39 l-58 77 q63 66 175 66 q85 0 129 -30.5 q44 -30.5 44 -80.5 q0 -31 -24.5 -56.5 q-24.5 -25.5 -64.5 -32.5 q37 -3 66.5 -28.5 q29.5 -25.5 29.5 -64.5 Z" /><glyph glyph-name="acute" unicode="´" d="M275 700 l-155 -144 l-120 0 l120 144 l155 0 Z" /><glyph glyph-name="mu" unicode="µ" d="M230 -4 l0 -180 l-180 0 l0 667 l180 0 l0 -268 q0 -68 70 -68 q42 0 76 38 l0 298 l180 0 l0 -305 q0 -15 10 -23 q10 -8 24 -8 q10 0 19 3 l11 -152 q-33 -10 -78 -10 q-121 0 -156 87 q-16 -40 -46.5 -63.5 q-30.5 -23.5 -70.5 -23.5 q-23 0 -39 8 Z" /><glyph glyph-name="paragraph" unicode="¶" d="M427 -100 l-80 0 l0 687 l-68 0 l0 -687 l-80 0 l0 423 q-71 0 -121.5 50.5 q-50.5 50.5 -50.5 121.5 q0 71 50.5 121.5 q50.5 50.5 121.5 50.5 l228 0 l0 -767 Z" /><glyph glyph-name="periodcentered" unicode="·" d="M247 244 q0 -43 -31.5 -74.5 q-31.5 -31.5 -74.5 -31.5 q-43 0 -74.5 31.5 q-31.5 31.5 -31.5 74.5 q0 44 31.5 75.5 q31.5 31.5 74.5 31.5 q43 0 74.5 -31.5 q31.5 -31.5 31.5 -75.5 Z" /><glyph glyph-name="cedilla" unicode="¸" d="M119 -200 q-77 0 -119 34 l31 64 q43 -30 83 -30 q42 0 42 24 q0 17 -21 17 q-16 0 -26 -12 l-59 34 l30 80 l80 0 l-25 -58 q15 9 34 9 q28 0 48 -20.5 q20 -20.5 20 -52.5 q0 -41 -34 -65 q-34 -24 -84 -24 Z" /><glyph glyph-name="onesuperior" unicode="¹" d="M276 421 l-132 0 l0 233 l-70 -69 l-74 78 l163 158 l113 0 l0 -400 Z" /><glyph glyph-name="ordmasculine" unicode="º" d="M202 318 q-82 0 -132 48.5 q-50 48.5 -50 116.5 q0 68 50 116.5 q50 48.5 132 48.5 q84 0 133.5 -48.5 q49.5 -48.5 49.5 -116.5 q0 -68 -49.5 -116.5 q-49.5 -48.5 -133.5 -48.5 ZM202 418 q53 0 53 65 q0 63 -53 63 q-51 0 -51 -63 q0 -65 51 -65 Z" /><glyph glyph-name="guillemotright" unicode="»" d="M350 243 l-160 -180 l-160 0 l160 180 l-160 177 l160 0 l160 -177 ZM585 243 l-160 -180 l-160 0 l160 180 l-160 177 l160 0 l160 -177 Z" /><glyph glyph-name="onequarter" unicode="¼" d="M276 267 l-132 0 l0 233 l-70 -69 l-74 78 l163 158 l113 0 l0 -400 ZM884 71 l-47 0 l0 -71 l-131 0 l0 71 l-197 0 l0 87 l143 242 l185 0 l0 -227 l47 0 l0 -102 ZM706 173 l0 118 l-68 -118 l68 0 ZM692 667 l-427 -667 l-97 0 l426 667 l98 0 Z" /><glyph glyph-name="onehalf" unicode="½" d="M276 267 l-132 0 l0 233 l-70 -69 l-74 78 l163 158 l113 0 l0 -400 ZM900 0 l-338 0 l0 95 q96 67 138.5 99 q42.5 32 53 44.5 q10.5 12.5 10.5 25.5 q0 38 -50 38 q-30 0 -60 -15 q-30 -15 -46 -33 l-66 84 q65 68 175 68 q83 0 131 -35.5 q48 -35.5 48 -95.5 q0 -39 -30.5 -76 q-30.5 -37 -113.5 -95 l148 0 l0 -104 ZM692 667 l-427 -667 l-97 0 l426 667 l98 0 Z" /><glyph glyph-name="threequarters" unicode="¾" d="M951 71 l-47 0 l0 -71 l-131 0 l0 71 l-197 0 l0 87 l143 242 l185 0 l0 -227 l47 0 l0 -102 ZM773 173 l0 118 l-68 -118 l68 0 ZM759 667 l-427 -667 l-97 0 l426 667 l98 0 ZM383 380 q0 -53 -50 -86.5 q-50 -33.5 -131 -33.5 q-119 0 -179 62 l62 87 q23 -23 55 -34 q32 -11 57 -11 q55 0 55 26 q0 18 -17 23 q-17 5 -56 5 q-43 0 -49 -1 l0 102 q9 -1 48 -1 q38 0 52.5 5.5 q14.5 5.5 14.5 20.5 q0 25 -57 25 q-60 0 -102 -39 l-58 77 q63 66 175 66 q85 0 129 -30.5 q44 -30.5 44 -80.5 q0 -31 -24.5 -56.5 q-24.5 -25.5 -64.5 -32.5 q37 -3 66.5 -28.5 q29.5 -25.5 29.5 -64.5 Z" /><glyph glyph-name="questiondown" unicode="¿" d="M297 259 q27 -37 27 -95 q0 -37 -17.5 -66 q-17.5 -29 -38.5 -43 q-21 -14 -38.5 -27 q-17.5 -13 -17.5 -23 q0 -21 39 -21 q47 0 87 42 l112 -129 q-42 -45 -101.5 -68 q-59.5 -23 -120.5 -23 q-101 0 -160.5 43.5 q-59.5 43.5 -59.5 117.5 q0 39 14.5 70 q14.5 31 35.5 49 q21 18 42 33.5 q21 15.5 35.5 32 q14.5 16.5 14.5 34.5 q0 24 -11 37 l158 36 ZM146.5 463.5 q31.5 31.5 75.5 31.5 q44 0 75.5 -31.5 q31.5 -31.5 31.5 -75.5 q0 -44 -31.5 -75.5 q-31.5 -31.5 -75.5 -31.5 q-44 0 -75.5 31.5 q-31.5 31.5 -31.5 75.5 q0 44 31.5 75.5 Z" /><glyph glyph-name="Agrave" unicode="à" d="M728 0 l-229 0 l-24 78 l-240 0 l-24 -78 l-229 0 l246 667 l254 0 l246 -667 ZM421 254 l-66 215 l-66 -215 l132 0 ZM422 723 l-120 0 l-155 144 l155 0 l120 -144 Z" /><glyph glyph-name="Aacute" unicode="á" d="M728 0 l-229 0 l-24 78 l-240 0 l-24 -78 l-229 0 l246 667 l254 0 l246 -667 ZM421 254 l-66 215 l-66 -215 l132 0 ZM560 867 l-155 -144 l-120 0 l120 144 l155 0 Z" /><glyph glyph-name="Acircumflex" unicode="â" d="M524 723 l-105 0 l-64 73 l-61 -73 l-105 0 l88 144 l156 0 l91 -144 ZM728 0 l-229 0 l-24 78 l-240 0 l-24 -78 l-229 0 l246 667 l254 0 l246 -667 ZM421 254 l-66 215 l-66 -215 l132 0 Z" /><glyph glyph-name="Atilde" unicode="ã" d="M728 0 l-229 0 l-24 78 l-240 0 l-24 -78 l-229 0 l246 667 l254 0 l246 -667 ZM421 254 l-66 215 l-66 -215 l132 0 ZM408 721 q-35 0 -68 21.5 q-33 21.5 -42 21.5 q-24 0 -24 -37 l-89 0 q0 134 118 134 q35 0 68 -21.5 q33 -21.5 42 -21.5 q24 0 24 37 l89 0 q0 -134 -118 -134 Z" /><glyph glyph-name="Adieresis" unicode="ä" d="M527 848 q26 -26 26 -63 q0 -37 -26 -63 q-26 -26 -64 -26 q-37 0 -63 26 q-26 26 -26 63 q0 37 26 63 q26 26 63 26 q38 0 64 -26 ZM310 848 q26 -26 26 -63 q0 -37 -26 -63 q-26 -26 -63 -26 q-37 0 -63 26 q-26 26 -26 63 q0 37 26 63 q26 26 63 26 q37 0 63 -26 ZM728 0 l-229 0 l-24 78 l-240 0 l-24 -78 l-229 0 l246 667 l254 0 l246 -667 ZM421 254 l-66 215 l-66 -215 l132 0 Z" /><glyph glyph-name="Aring" unicode="å" d="M728 0 l-229 0 l-24 78 l-240 0 l-24 -78 l-229 0 l246 667 l254 0 l246 -667 ZM421 254 l-66 215 l-66 -215 l132 0 ZM434 719 q-32 -33 -78 -33 q-46 0 -79 33 q-33 33 -33 79 q0 46 33 79 q33 33 79 33 q46 0 78 -33 q32 -33 32 -79 q0 -46 -32 -79 ZM331.5 773.5 q10.5 -10.5 24.5 -10.5 q14 0 24 10.5 q10 10.5 10 24.5 q0 14 -10 24.5 q-10 10.5 -24 10.5 q-14 0 -24.5 -10.5 q-10.5 -10.5 -10.5 -24.5 q0 -14 10.5 -24.5 Z" /><glyph glyph-name="AE" unicode="æ" d="M959 0 l-506 0 l0 78 l-207 0 l-41 -78 l-230 0 l395 667 l589 0 l0 -176 l-304 0 l0 -66 l297 0 l0 -176 l-297 0 l0 -73 l304 0 l0 -176 ZM453 254 l0 215 l-113 -215 l113 0 Z" /><glyph glyph-name="Ccedilla" unicode="ç" d="M379 -196 q-77 0 -119 34 l31 64 q43 -30 83 -30 q42 0 42 24 q0 17 -21 17 q-16 0 -26 -12 l-59 34 l21 57 q-138 16 -225.5 109 q-87.5 93 -87.5 232 q0 153 104 249 q104 96 263 96 q120 0 193.5 -56 q73.5 -56 109.5 -138 l-174 -81 q-13 40 -49 68.5 q-36 28.5 -80 28.5 q-72 0 -117 -48 q-45 -48 -45 -119 q0 -71 45 -119 q45 -48 117 -48 q44 0 80 28.5 q36 28.5 49 68.5 l174 -80 q-33 -76 -102 -132 q-69 -56 -178 -62 l-13 -32 q15 9 34 9 q28 0 48 -20.5 q20 -20.5 20 -52.5 q0 -41 -34 -65 q-34 -24 -84 -24 Z" /><glyph glyph-name="Egrave" unicode="è" d="M560 0 l-506 0 l0 667 l506 0 l0 -176 l-304 0 l0 -66 l297 0 l0 -176 l-297 0 l0 -73 l304 0 l0 -176 ZM371 723 l-120 0 l-155 144 l155 0 l120 -144 Z" /><glyph glyph-name="Eacute" unicode="é" d="M514 867 l-155 -144 l-120 0 l120 144 l155 0 ZM560 0 l-506 0 l0 667 l506 0 l0 -176 l-304 0 l0 -66 l297 0 l0 -176 l-297 0 l0 -73 l304 0 l0 -176 Z" /><glyph glyph-name="Ecircumflex" unicode="ê" d="M475 723 l-105 0 l-64 73 l-61 -73 l-105 0 l88 144 l156 0 l91 -144 ZM560 0 l-506 0 l0 667 l506 0 l0 -176 l-304 0 l0 -66 l297 0 l0 -176 l-297 0 l0 -73 l304 0 l0 -176 Z" /><glyph glyph-name="Edieresis" unicode="ë" d="M482 848 q26 -26 26 -63 q0 -37 -26 -63 q-26 -26 -64 -26 q-37 0 -63 26 q-26 26 -26 63 q0 37 26 63 q26 26 63 26 q38 0 64 -26 ZM265.5 848 q25.5 -26 25.5 -63 q0 -37 -25.5 -63 q-25.5 -26 -63.5 -26 q-38 0 -63.5 26 q-25.5 26 -25.5 63 q0 37 25.5 63 q25.5 26 63.5 26 q38 0 63.5 -26 ZM560 0 l-506 0 l0 667 l506 0 l0 -176 l-304 0 l0 -66 l297 0 l0 -176 l-297 0 l0 -73 l304 0 l0 -176 Z" /><glyph glyph-name="Igrave" unicode="ì" d="M256 0 l-202 0 l0 667 l202 0 l0 -667 ZM225 723 l-120 0 l-155 144 l155 0 l120 -144 Z" /><glyph glyph-name="Iacute" unicode="í" d="M256 0 l-202 0 l0 667 l202 0 l0 -667 ZM362 867 l-155 -144 l-120 0 l120 144 l155 0 Z" /><glyph glyph-name="Icircumflex" unicode="î" d="M321 723 l-105 0 l-64 73 l-61 -73 l-105 0 l88 144 l156 0 l91 -144 ZM256 0 l-202 0 l0 667 l202 0 l0 -667 Z" /><glyph glyph-name="Idieresis" unicode="ï" d="M327 848 q26 -26 26 -63 q0 -37 -26 -63 q-26 -26 -64 -26 q-37 0 -63 26 q-26 26 -26 63 q0 37 26 63 q26 26 63 26 q38 0 64 -26 ZM110 848 q26 -26 26 -63 q0 -37 -26 -63 q-26 -26 -63 -26 q-37 0 -63 26 q-26 26 -26 63 q0 37 26 63 q26 26 63 26 q37 0 63 -26 ZM256 0 l-202 0 l0 667 l202 0 l0 -667 Z" /><glyph glyph-name="Eth" unicode="ð" d="M374 0 l-299 0 l0 254 l-68 0 l0 159 l68 0 l0 254 l298 0 q162 0 264 -88.5 q102 -88.5 102 -244.5 q0 -156 -102 -245 q-102 -89 -263 -89 ZM373 176 q73 0 117 46 q44 46 44 112 q0 71 -41 114 q-41 43 -119 43 l-97 0 l0 -78 l129 0 l0 -159 l-129 0 l0 -78 l96 0 Z" /><glyph glyph-name="Ntilde" unicode="ñ" d="M426 721 q-35 0 -68 21.5 q-33 21.5 -42 21.5 q-24 0 -24 -37 l-89 0 q0 134 118 134 q35 0 68 -21.5 q33 -21.5 42 -21.5 q24 0 24 37 l89 0 q0 -134 -118 -134 ZM696 0 l-194 0 l-246 338 l0 -338 l-202 0 l0 667 l208 0 l232 -316 l0 316 l202 0 l0 -667 Z" /><glyph glyph-name="Ograve" unicode="ò" d="M452 723 l-120 0 l-155 144 l155 0 l120 -144 ZM643.5 84.5 q-104.5 -96.5 -260.5 -96.5 q-156 0 -260.5 96.5 q-104.5 96.5 -104.5 248.5 q0 152 104.5 248.5 q104.5 96.5 260.5 96.5 q156 0 260.5 -96.5 q104.5 -96.5 104.5 -248.5 q0 -152 -104.5 -248.5 ZM267.5 214 q44.5 -48 115.5 -48 q71 0 115.5 48 q44.5 48 44.5 119 q0 71 -44.5 119 q-44.5 48 -115.5 48 q-71 0 -115.5 -48 q-44.5 -48 -44.5 -119 q0 -71 44.5 -119 Z" /><glyph glyph-name="Oacute" unicode="ó" d="M587 867 l-155 -144 l-120 0 l120 144 l155 0 ZM643.5 84.5 q-104.5 -96.5 -260.5 -96.5 q-156 0 -260.5 96.5 q-104.5 96.5 -104.5 248.5 q0 152 104.5 248.5 q104.5 96.5 260.5 96.5 q156 0 260.5 -96.5 q104.5 -96.5 104.5 -248.5 q0 -152 -104.5 -248.5 ZM267.5 214 q44.5 -48 115.5 -48 q71 0 115.5 48 q44.5 48 44.5 119 q0 71 -44.5 119 q-44.5 48 -115.5 48 q-71 0 -115.5 -48 q-44.5 -48 -44.5 -119 q0 -71 44.5 -119 Z" /><glyph glyph-name="Ocircumflex" unicode="ô" d="M554 723 l-105 0 l-64 73 l-61 -73 l-105 0 l88 144 l156 0 l91 -144 ZM643.5 84.5 q-104.5 -96.5 -260.5 -96.5 q-156 0 -260.5 96.5 q-104.5 96.5 -104.5 248.5 q0 152 104.5 248.5 q104.5 96.5 260.5 96.5 q156 0 260.5 -96.5 q104.5 -96.5 104.5 -248.5 q0 -152 -104.5 -248.5 ZM267.5 214 q44.5 -48 115.5 -48 q71 0 115.5 48 q44.5 48 44.5 119 q0 71 -44.5 119 q-44.5 48 -115.5 48 q-71 0 -115.5 -48 q-44.5 -48 -44.5 -119 q0 -71 44.5 -119 Z" /><glyph glyph-name="Otilde" unicode="õ" d="M643.5 84.5 q-104.5 -96.5 -260.5 -96.5 q-156 0 -260.5 96.5 q-104.5 96.5 -104.5 248.5 q0 152 104.5 248.5 q104.5 96.5 260.5 96.5 q156 0 260.5 -96.5 q104.5 -96.5 104.5 -248.5 q0 -152 -104.5 -248.5 ZM267.5 214 q44.5 -48 115.5 -48 q71 0 115.5 48 q44.5 48 44.5 119 q0 71 -44.5 119 q-44.5 48 -115.5 48 q-71 0 -115.5 -48 q-44.5 -48 -44.5 -119 q0 -71 44.5 -119 ZM436 721 q-35 0 -68 21.5 q-33 21.5 -42 21.5 q-24 0 -24 -37 l-89 0 q0 134 118 134 q35 0 68 -21.5 q33 -21.5 42 -21.5 q24 0 24 37 l89 0 q0 -134 -118 -134 Z" /><glyph glyph-name="Odieresis" unicode="ö" d="M558 848 q26 -26 26 -63 q0 -37 -26 -63 q-26 -26 -64 -26 q-37 0 -63 26 q-26 26 -26 63 q0 37 26 63 q26 26 63 26 q38 0 64 -26 ZM341.5 848 q25.5 -26 25.5 -63 q0 -37 -25.5 -63 q-25.5 -26 -63.5 -26 q-38 0 -63.5 26 q-25.5 26 -25.5 63 q0 37 25.5 63 q25.5 26 63.5 26 q38 0 63.5 -26 ZM643.5 84.5 q-104.5 -96.5 -260.5 -96.5 q-156 0 -260.5 96.5 q-104.5 96.5 -104.5 248.5 q0 152 104.5 248.5 q104.5 96.5 260.5 96.5 q156 0 260.5 -96.5 q104.5 -96.5 104.5 -248.5 q0 -152 -104.5 -248.5 ZM267.5 214 q44.5 -48 115.5 -48 q71 0 115.5 48 q44.5 48 44.5 119 q0 71 -44.5 119 q-44.5 48 -115.5 48 q-71 0 -115.5 -48 q-44.5 -48 -44.5 -119 q0 -71 44.5 -119 Z" /><glyph glyph-name="multiply" unicode="×" d="M389 126 l-134 134 l-133 -134 l-75 74 l134 134 l-134 134 l75 74 l133 -134 l134 134 l74 -74 l-133 -134 l133 -134 l-74 -74 Z" /><glyph glyph-name="Oslash" unicode="ø" d="M383 -12 q-110 0 -196 49 l-31 -37 l-138 0 l87 102 q-87 93 -87 231 q0 152 104.5 248.5 q104.5 96.5 260.5 96.5 q93 0 178 -40 l25 29 l138 0 l-76 -90 q100 -97 100 -244 q0 -152 -104.5 -248.5 q-104.5 -96.5 -260.5 -96.5 ZM383 166 q71 0 115.5 48 q44.5 48 44.5 119 q0 51 -25 92 l-207 -243 q34 -16 72 -16 ZM223 333 q0 -42 15 -75 l198 233 q-24 9 -53 9 q-71 0 -115.5 -48 q-44.5 -48 -44.5 -119 Z" /><glyph glyph-name="Ugrave" unicode="ù" d="M630 66.5 q-83 -78.5 -246 -78.5 q-163 0 -246.5 78.5 q-83.5 78.5 -83.5 207.5 l0 393 l205 0 l0 -386 q0 -50 32.5 -82.5 q32.5 -32.5 92.5 -32.5 q59 0 91.5 32.5 q32.5 32.5 32.5 82.5 l0 386 l205 0 l0 -392 q0 -130 -83 -208.5 ZM452 723 l-120 0 l-155 144 l155 0 l120 -144 Z" /><glyph glyph-name="Uacute" unicode="ú" d="M590 867 l-155 -144 l-120 0 l120 144 l155 0 ZM630 66.5 q-83 -78.5 -246 -78.5 q-163 0 -246.5 78.5 q-83.5 78.5 -83.5 207.5 l0 393 l205 0 l0 -386 q0 -50 32.5 -82.5 q32.5 -32.5 92.5 -32.5 q59 0 91.5 32.5 q32.5 32.5 32.5 82.5 l0 386 l205 0 l0 -392 q0 -130 -83 -208.5 Z" /><glyph glyph-name="Ucircumflex" unicode="û" d="M559 723 l-105 0 l-64 73 l-61 -73 l-105 0 l88 144 l156 0 l91 -144 ZM630 66.5 q-83 -78.5 -246 -78.5 q-163 0 -246.5 78.5 q-83.5 78.5 -83.5 207.5 l0 393 l205 0 l0 -386 q0 -50 32.5 -82.5 q32.5 -32.5 92.5 -32.5 q59 0 91.5 32.5 q32.5 32.5 32.5 82.5 l0 386 l205 0 l0 -392 q0 -130 -83 -208.5 Z" /><glyph glyph-name="Udieresis" unicode="ü" d="M559 848 q26 -26 26 -63 q0 -37 -26 -63 q-26 -26 -64 -26 q-37 0 -63 26 q-26 26 -26 63 q0 37 26 63 q26 26 63 26 q38 0 64 -26 ZM342 848 q26 -26 26 -63 q0 -37 -26 -63 q-26 -26 -63 -26 q-37 0 -63 26 q-26 26 -26 63 q0 37 26 63 q26 26 63 26 q37 0 63 -26 ZM630 66.5 q-83 -78.5 -246 -78.5 q-163 0 -246.5 78.5 q-83.5 78.5 -83.5 207.5 l0 393 l205 0 l0 -386 q0 -50 32.5 -82.5 q32.5 -32.5 92.5 -32.5 q59 0 91.5 32.5 q32.5 32.5 32.5 82.5 l0 386 l205 0 l0 -392 q0 -130 -83 -208.5 Z" /><glyph glyph-name="Yacute" unicode="ý" d="M434 0 l-202 0 l0 265 l-250 402 l227 0 l124 -225 l122 225 l227 0 l-248 -402 l0 -265 ZM538 867 l-155 -144 l-120 0 l120 144 l155 0 Z" /><glyph glyph-name="Thorn" unicode="þ" d="M256 0 l-202 0 l0 667 l202 0 l0 -96 l154 0 q113 0 176.5 -66 q63.5 -66 63.5 -164 q0 -98 -63.5 -162.5 q-63.5 -64.5 -176.5 -64.5 l-154 0 l0 -114 ZM379 290 q27 0 46.5 13.5 q19.5 13.5 19.5 38.5 q0 25 -19.5 39 q-19.5 14 -46.5 14 l-123 0 l0 -105 l123 0 Z" /><glyph glyph-name="germandbls" unicode="ß" d="M676 154 q0 -75 -61 -120.5 q-61 -45.5 -155 -45.5 q-122 0 -207 72 l69 123 q20 -25 60.5 -43 q40.5 -18 77.5 -18 q44 0 44 21 q0 11 -24 17.5 q-24 6.5 -58.5 14 q-34.5 7.5 -69 21 q-34.5 13.5 -58.5 48.5 q-24 35 -24 88 q0 34 15.5 62.5 q15.5 28.5 34.5 43 q19 14.5 34.5 28 q15.5 13.5 15.5 20.5 q0 32 -56 32 q-38 0 -60.5 -17.5 q-22.5 -17.5 -22.5 -49.5 l0 -451 l-180 0 l0 451 q0 95 71.5 160.5 q71.5 65.5 195.5 65.5 q95 0 166 -45 q71 -45 71 -118 q0 -39 -17.5 -70 q-17.5 -31 -39 -46 q-21.5 -15 -39 -30.5 q-17.5 -15.5 -17.5 -27.5 q0 -8 17.5 -12.5 q17.5 -4.5 43.5 -7 q26 -2.5 56 -12 q30 -9.5 56 -25 q26 -15.5 43.5 -49 q17.5 -33.5 17.5 -80.5 Z" /><glyph glyph-name="agrave" unicode="à" d="M509 0 l-180 0 l0 46 q-20 -26 -60.5 -42 q-40.5 -16 -85.5 -16 q-62 0 -114 41.5 q-52 41.5 -52 117.5 q0 56 27.5 92.5 q27.5 36.5 62.5 49 q35 12.5 76 12.5 q104 0 146 -53 l0 50 q0 26 -23.5 43 q-23.5 17 -66.5 17 q-72 0 -134 -47 l-61 111 q91 73 228 73 q48 0 88 -9.5 q40 -9.5 75 -31 q35 -21.5 54.5 -63 q19.5 -41.5 19.5 -99.5 l0 -292 ZM258 105 q53 0 71 26 l0 27 q-18 26 -71 26 q-63 0 -63 -40 q0 -39 63 -39 ZM341 556 l-120 0 l-155 144 l155 0 l120 -144 Z" /><glyph glyph-name="aacute" unicode="á" d="M509 0 l-180 0 l0 46 q-20 -26 -60.5 -42 q-40.5 -16 -85.5 -16 q-62 0 -114 41.5 q-52 41.5 -52 117.5 q0 56 27.5 92.5 q27.5 36.5 62.5 49 q35 12.5 76 12.5 q104 0 146 -53 l0 50 q0 26 -23.5 43 q-23.5 17 -66.5 17 q-72 0 -134 -47 l-61 111 q91 73 228 73 q48 0 88 -9.5 q40 -9.5 75 -31 q35 -21.5 54.5 -63 q19.5 -41.5 19.5 -99.5 l0 -292 ZM258 105 q53 0 71 26 l0 27 q-18 26 -71 26 q-63 0 -63 -40 q0 -39 63 -39 ZM478 700 l-155 -144 l-120 0 l120 144 l155 0 Z" /><glyph glyph-name="acircumflex" unicode="â" d="M509 0 l-180 0 l0 46 q-20 -26 -60.5 -42 q-40.5 -16 -85.5 -16 q-62 0 -114 41.5 q-52 41.5 -52 117.5 q0 56 27.5 92.5 q27.5 36.5 62.5 49 q35 12.5 76 12.5 q104 0 146 -53 l0 50 q0 26 -23.5 43 q-23.5 17 -66.5 17 q-72 0 -134 -47 l-61 111 q91 73 228 73 q48 0 88 -9.5 q40 -9.5 75 -31 q35 -21.5 54.5 -63 q19.5 -41.5 19.5 -99.5 l0 -292 ZM258 105 q53 0 71 26 l0 27 q-18 26 -71 26 q-63 0 -63 -40 q0 -39 63 -39 ZM446 556 l-105 0 l-64 73 l-61 -73 l-105 0 l88 144 l156 0 l91 -144 Z" /><glyph glyph-name="atilde" unicode="ã" d="M509 0 l-180 0 l0 46 q-20 -26 -60.5 -42 q-40.5 -16 -85.5 -16 q-62 0 -114 41.5 q-52 41.5 -52 117.5 q0 56 27.5 92.5 q27.5 36.5 62.5 49 q35 12.5 76 12.5 q104 0 146 -53 l0 50 q0 26 -23.5 43 q-23.5 17 -66.5 17 q-72 0 -134 -47 l-61 111 q91 73 228 73 q48 0 88 -9.5 q40 -9.5 75 -31 q35 -21.5 54.5 -63 q19.5 -41.5 19.5 -99.5 l0 -292 ZM258 105 q53 0 71 26 l0 27 q-18 26 -71 26 q-63 0 -63 -40 q0 -39 63 -39 ZM328 554 q-35 0 -68 21.5 q-33 21.5 -42 21.5 q-24 0 -24 -37 l-89 0 q0 134 118 134 q35 0 68 -21.5 q33 -21.5 42 -21.5 q24 0 24 37 l89 0 q0 -134 -118 -134 Z" /><glyph glyph-name="adieresis" unicode="ä" d="M509 0 l-180 0 l0 46 q-20 -26 -60.5 -42 q-40.5 -16 -85.5 -16 q-62 0 -114 41.5 q-52 41.5 -52 117.5 q0 56 27.5 92.5 q27.5 36.5 62.5 49 q35 12.5 76 12.5 q104 0 146 -53 l0 50 q0 26 -23.5 43 q-23.5 17 -66.5 17 q-72 0 -134 -47 l-61 111 q91 73 228 73 q48 0 88 -9.5 q40 -9.5 75 -31 q35 -21.5 54.5 -63 q19.5 -41.5 19.5 -99.5 l0 -292 ZM258 105 q53 0 71 26 l0 27 q-18 26 -71 26 q-63 0 -63 -40 q0 -39 63 -39 ZM445 681 q26 -26 26 -63 q0 -37 -26 -63 q-26 -26 -64 -26 q-37 0 -63 26 q-26 26 -26 63 q0 37 26 63 q26 26 63 26 q38 0 64 -26 ZM228 681.5 q26 -25.5 26 -63.5 q0 -38 -26 -63.5 q-26 -25.5 -63 -25.5 q-37 0 -63 25.5 q-26 25.5 -26 63.5 q0 38 26 63.5 q26 25.5 63 25.5 q37 0 63 -25.5 Z" /><glyph glyph-name="aring" unicode="å" d="M509 0 l-180 0 l0 46 q-20 -26 -60.5 -42 q-40.5 -16 -85.5 -16 q-62 0 -114 41.5 q-52 41.5 -52 117.5 q0 56 27.5 92.5 q27.5 36.5 62.5 49 q35 12.5 76 12.5 q104 0 146 -53 l0 50 q0 26 -23.5 43 q-23.5 17 -66.5 17 q-72 0 -134 -47 l-61 111 q91 73 228 73 q48 0 88 -9.5 q40 -9.5 75 -31 q35 -21.5 54.5 -63 q19.5 -41.5 19.5 -99.5 l0 -292 ZM258 105 q53 0 71 26 l0 27 q-18 26 -71 26 q-63 0 -63 -40 q0 -39 63 -39 ZM355 552 q-32 -33 -78 -33 q-46 0 -79 33 q-33 33 -33 79 q0 46 33 79 q33 33 79 33 q46 0 78 -33 q32 -33 32 -79 q0 -46 -32 -79 ZM252.5 606.5 q10.5 -10.5 24.5 -10.5 q14 0 24 10.5 q10 10.5 10 24.5 q0 14 -10 24.5 q-10 10.5 -24 10.5 q-14 0 -24.5 -10.5 q-10.5 -10.5 -10.5 -24.5 q0 -14 10.5 -24.5 Z" /><glyph glyph-name="ae" unicode="æ" d="M839 186 l-319 0 q27 -57 104 -57 q59 0 98 34 l78 -115 q-34 -29 -89.5 -44.5 q-55.5 -15.5 -107.5 -15.5 q-106 0 -175 65 q-77 -65 -198 -65 q-94 0 -153.5 39 q-59.5 39 -59.5 117 q0 77 48 117 q48 40 121 40 q47 0 89 -14 q42 -14 63 -38 l0 49 q0 26 -24.5 42.5 q-24.5 16.5 -69.5 16.5 q-76 0 -139 -47 l-61 112 q91 73 228 73 q104 0 156 -59 q66 59 170 59 q102 0 171.5 -74 q69.5 -74 69.5 -198 l0 -37 ZM518 300 l150 0 q-14 58 -76 58 q-59 0 -74 -58 ZM338 154 l0 3 q-21 27 -76 27 q-27 0 -47 -9 q-20 -9 -20 -26 q0 -17 17.5 -25.5 q17.5 -8.5 38.5 -8.5 q35 0 61 12.5 q26 12.5 26 26.5 Z" /><glyph glyph-name="ccedilla" unicode="ç" d="M293 -198 q-77 0 -119 34 l31 64 q43 -30 83 -30 q42 0 42 24 q0 17 -21 17 q-16 0 -26 -12 l-59 34 l21 58 q-101 12 -164.5 80 q-63.5 68 -63.5 171 q0 113 77 183 q77 70 194 70 q75 0 128 -27.5 q53 -27.5 77 -63.5 l-116 -109 q-27 41 -81 41 q-40 0 -67.5 -24.5 q-27.5 -24.5 -27.5 -69.5 q0 -45 27.5 -70 q27.5 -25 67.5 -25 q52 0 81 42 l116 -110 q-21 -31 -64.5 -56.5 q-43.5 -25.5 -104.5 -32.5 l-15 -35 q15 9 34 9 q28 0 48 -20.5 q20 -20.5 20 -52.5 q0 -41 -34 -65 q-34 -24 -84 -24 Z" /><glyph glyph-name="egrave" unicode="è" d="M286 -12 q-116 0 -192.5 69 q-76.5 69 -76.5 185 q0 107 74 180 q74 73 189 73 q109 0 180 -73.5 q71 -73.5 71 -198.5 l0 -37 l-328 0 q8 -25 35 -43 q27 -18 69 -18 q23 0 58.5 10 q35.5 10 52.5 24 l74 -111 q-34 -29 -91 -44.5 q-57 -15.5 -115 -15.5 ZM360 300 q-14 58 -80 58 q-63 0 -79 -58 l159 0 ZM347 556 l-120 0 l-155 144 l155 0 l120 -144 Z" /><glyph glyph-name="eacute" unicode="é" d="M484 700 l-155 -144 l-120 0 l120 144 l155 0 ZM286 -12 q-116 0 -192.5 69 q-76.5 69 -76.5 185 q0 107 74 180 q74 73 189 73 q109 0 180 -73.5 q71 -73.5 71 -198.5 l0 -37 l-328 0 q8 -25 35 -43 q27 -18 69 -18 q23 0 58.5 10 q35.5 10 52.5 24 l74 -111 q-34 -29 -91 -44.5 q-57 -15.5 -115 -15.5 ZM360 300 q-14 58 -80 58 q-63 0 -79 -58 l159 0 Z" /><glyph glyph-name="ecircumflex" unicode="ê" d="M448 556 l-105 0 l-64 73 l-61 -73 l-105 0 l88 144 l156 0 l91 -144 ZM286 -12 q-116 0 -192.5 69 q-76.5 69 -76.5 185 q0 107 74 180 q74 73 189 73 q109 0 180 -73.5 q71 -73.5 71 -198.5 l0 -37 l-328 0 q8 -25 35 -43 q27 -18 69 -18 q23 0 58.5 10 q35.5 10 52.5 24 l74 -111 q-34 -29 -91 -44.5 q-57 -15.5 -115 -15.5 ZM360 300 q-14 58 -80 58 q-63 0 -79 -58 l159 0 Z" /><glyph glyph-name="edieresis" unicode="ë" d="M453 681 q26 -26 26 -63 q0 -37 -26 -63 q-26 -26 -64 -26 q-37 0 -63 26 q-26 26 -26 63 q0 37 26 63 q26 26 63 26 q38 0 64 -26 ZM236 681.5 q26 -25.5 26 -63.5 q0 -38 -26 -63.5 q-26 -25.5 -63 -25.5 q-37 0 -63 25.5 q-26 25.5 -26 63.5 q0 38 26 63.5 q26 25.5 63 25.5 q37 0 63 -25.5 ZM286 -12 q-116 0 -192.5 69 q-76.5 69 -76.5 185 q0 107 74 180 q74 73 189 73 q109 0 180 -73.5 q71 -73.5 71 -198.5 l0 -37 l-328 0 q8 -25 35 -43 q27 -18 69 -18 q23 0 58.5 10 q35.5 10 52.5 24 l74 -111 q-34 -29 -91 -44.5 q-57 -15.5 -115 -15.5 ZM360 300 q-14 58 -80 58 q-63 0 -79 -58 l159 0 Z" /><glyph glyph-name="igrave" unicode="ì" d="M230 0 l-180 0 l0 483 l180 0 l0 -483 ZM210 556 l-120 0 l-155 144 l155 0 l120 -144 Z" /><glyph glyph-name="iacute" unicode="í" d="M346 700 l-155 -144 l-120 0 l120 144 l155 0 ZM230 0 l-180 0 l0 483 l180 0 l0 -483 Z" /><glyph glyph-name="icircumflex" unicode="î" d="M308 556 l-105 0 l-64 73 l-61 -73 l-105 0 l88 144 l156 0 l91 -144 ZM230 0 l-180 0 l0 483 l180 0 l0 -483 Z" /><glyph glyph-name="idieresis" unicode="ï" d="M312 681 q26 -26 26 -63 q0 -37 -26 -63 q-26 -26 -64 -26 q-37 0 -63 26 q-26 26 -26 63 q0 37 26 63 q26 26 63 26 q38 0 64 -26 ZM95.5 681.5 q25.5 -25.5 25.5 -63.5 q0 -38 -25.5 -63.5 q-25.5 -25.5 -63.5 -25.5 q-38 0 -63.5 25.5 q-25.5 25.5 -25.5 63.5 q0 38 25.5 63.5 q25.5 25.5 63.5 25.5 q38 0 63.5 -25.5 ZM230 0 l-180 0 l0 483 l180 0 l0 -483 Z" /><glyph glyph-name="eth" unicode="ð" d="M84 440 l-32 78 l97 42 l-47 28 l96 143 q70 -42 134 -90 l99 43 l33 -75 l-61 -27 q157 -146 157 -324 q0 -124 -72 -197 q-72 -73 -200 -73 q-122 0 -196.5 62.5 q-74.5 62.5 -74.5 164.5 q0 100 60.5 163 q60.5 63 147.5 63 q107 0 162 -96 q-22 68 -154 161 l-149 -66 ZM288 147 q41 0 64 18.5 q23 18.5 23 49.5 q0 31 -23 49.5 q-23 18.5 -64 18.5 q-40 0 -63 -18.5 q-23 -18.5 -23 -49.5 q0 -31 23 -49.5 q23 -18.5 63 -18.5 Z" /><glyph glyph-name="ntilde" unicode="ñ" d="M557 0 l-180 0 l0 267 q0 69 -70 69 q-43 0 -77 -38 l0 -298 l-180 0 l0 483 l180 0 l0 -55 q59 67 166 67 q80 0 120.5 -42.5 q40.5 -42.5 40.5 -109.5 l0 -343 ZM357 554 q-35 0 -68 21.5 q-33 21.5 -42 21.5 q-24 0 -24 -37 l-89 0 q0 134 118 134 q35 0 68 -21.5 q33 -21.5 42 -21.5 q24 0 24 37 l89 0 q0 -134 -118 -134 Z" /><glyph glyph-name="ograve" unicode="ò" d="M486 62 q-74 -74 -198 -74 q-124 0 -197.5 74 q-73.5 74 -73.5 180 q0 106 73.5 179.5 q73.5 73.5 197.5 73.5 q124 0 198 -73.5 q74 -73.5 74 -179.5 q0 -106 -74 -180 ZM288 147 q41 0 64 26.5 q23 26.5 23 68.5 q0 41 -23 67.5 q-23 26.5 -64 26.5 q-40 0 -63 -26.5 q-23 -26.5 -23 -67.5 q0 -42 23 -68.5 q23 -26.5 63 -26.5 ZM357 556 l-120 0 l-155 144 l155 0 l120 -144 Z" /><glyph glyph-name="oacute" unicode="ó" d="M493 700 l-155 -144 l-120 0 l120 144 l155 0 ZM486 62 q-74 -74 -198 -74 q-124 0 -197.5 74 q-73.5 74 -73.5 180 q0 106 73.5 179.5 q73.5 73.5 197.5 73.5 q124 0 198 -73.5 q74 -73.5 74 -179.5 q0 -106 -74 -180 ZM288 147 q41 0 64 26.5 q23 26.5 23 68.5 q0 41 -23 67.5 q-23 26.5 -64 26.5 q-40 0 -63 -26.5 q-23 -26.5 -23 -67.5 q0 -42 23 -68.5 q23 -26.5 63 -26.5 Z" /><glyph glyph-name="ocircumflex" unicode="ô" d="M457 556 l-105 0 l-64 73 l-61 -73 l-105 0 l88 144 l156 0 l91 -144 ZM486 62 q-74 -74 -198 -74 q-124 0 -197.5 74 q-73.5 74 -73.5 180 q0 106 73.5 179.5 q73.5 73.5 197.5 73.5 q124 0 198 -73.5 q74 -73.5 74 -179.5 q0 -106 -74 -180 ZM288 147 q41 0 64 26.5 q23 26.5 23 68.5 q0 41 -23 67.5 q-23 26.5 -64 26.5 q-40 0 -63 -26.5 q-23 -26.5 -23 -67.5 q0 -42 23 -68.5 q23 -26.5 63 -26.5 Z" /><glyph glyph-name="otilde" unicode="õ" d="M486 62 q-74 -74 -198 -74 q-124 0 -197.5 74 q-73.5 74 -73.5 180 q0 106 73.5 179.5 q73.5 73.5 197.5 73.5 q124 0 198 -73.5 q74 -73.5 74 -179.5 q0 -106 -74 -180 ZM288 147 q41 0 64 26.5 q23 26.5 23 68.5 q0 41 -23 67.5 q-23 26.5 -64 26.5 q-40 0 -63 -26.5 q-23 -26.5 -23 -67.5 q0 -42 23 -68.5 q23 -26.5 63 -26.5 ZM341 554 q-35 0 -68 21.5 q-33 21.5 -42 21.5 q-24 0 -24 -37 l-89 0 q0 134 118 134 q35 0 68 -21.5 q33 -21.5 42 -21.5 q24 0 24 37 l89 0 q0 -134 -118 -134 Z" /><glyph glyph-name="odieresis" unicode="ö" d="M460 681 q26 -26 26 -63 q0 -37 -26 -63 q-26 -26 -64 -26 q-37 0 -63 26 q-26 26 -26 63 q0 37 26 63 q26 26 63 26 q38 0 64 -26 ZM243.5 681.5 q25.5 -25.5 25.5 -63.5 q0 -38 -25.5 -63.5 q-25.5 -25.5 -63.5 -25.5 q-38 0 -63.5 25.5 q-25.5 25.5 -25.5 63.5 q0 38 25.5 63.5 q25.5 25.5 63.5 25.5 q38 0 63.5 -25.5 ZM486 62 q-74 -74 -198 -74 q-124 0 -197.5 74 q-73.5 74 -73.5 180 q0 106 73.5 179.5 q73.5 73.5 197.5 73.5 q124 0 198 -73.5 q74 -73.5 74 -179.5 q0 -106 -74 -180 ZM288 147 q41 0 64 26.5 q23 26.5 23 68.5 q0 41 -23 67.5 q-23 26.5 -64 26.5 q-40 0 -63 -26.5 q-23 -26.5 -23 -67.5 q0 -42 23 -68.5 q23 -26.5 63 -26.5 Z" /><glyph glyph-name="divide" unicode="÷" d="M331 505 q0 -32 -22.5 -54.5 q-22.5 -22.5 -53.5 -22.5 q-31 0 -53.5 22.5 q-22.5 22.5 -22.5 54.5 q0 31 22 53 q22 22 54 22 q32 0 54 -22 q22 -22 22 -53 ZM482 285 l-453 0 l0 105 l453 0 l0 -105 ZM308.5 224 q22.5 -22 22.5 -54 q0 -32 -22.5 -54 q-22.5 -22 -53.5 -22 q-31 0 -53.5 22 q-22.5 22 -22.5 54 q0 32 22.5 54 q22.5 22 53.5 22 q31 0 53.5 -22 Z" /><glyph glyph-name="oslash" unicode="ø" d="M119 0 l-102 0 l64 71 q-64 70 -64 171 q0 106 73.5 179.5 q73.5 73.5 197.5 73.5 q82 0 146 -35 l21 23 l105 0 l-65 -71 q65 -71 65 -170 q0 -106 -74 -180 q-74 -74 -198 -74 q-84 0 -147 36 l-22 -24 ZM288 147 q41 0 64 26.5 q23 26.5 23 68.5 q0 16 -5 33 l-113 -123 q15 -5 31 -5 ZM202 242 q0 -20 4 -33 l111 123 q-12 4 -29 4 q-40 0 -63 -26.5 q-23 -26.5 -23 -67.5 Z" /><glyph glyph-name="ugrave" unicode="ù" d="M556 0 l-180 0 l0 54 q-60 -66 -166 -66 q-80 0 -120 42 q-40 42 -40 108 l0 345 l180 0 l0 -268 q0 -68 70 -68 q42 0 76 38 l0 298 l180 0 l0 -483 ZM372 556 l-120 0 l-155 144 l155 0 l120 -144 Z" /><glyph glyph-name="uacute" unicode="ú" d="M508 700 l-155 -144 l-120 0 l120 144 l155 0 ZM556 0 l-180 0 l0 54 q-60 -66 -166 -66 q-80 0 -120 42 q-40 42 -40 108 l0 345 l180 0 l0 -268 q0 -68 70 -68 q42 0 76 38 l0 298 l180 0 l0 -483 Z" /><glyph glyph-name="ucircumflex" unicode="û" d="M473 556 l-105 0 l-64 73 l-61 -73 l-105 0 l88 144 l156 0 l91 -144 ZM556 0 l-180 0 l0 54 q-60 -66 -166 -66 q-80 0 -120 42 q-40 42 -40 108 l0 345 l180 0 l0 -268 q0 -68 70 -68 q42 0 76 38 l0 298 l180 0 l0 -483 Z" /><glyph glyph-name="udieresis" unicode="ü" d="M477 681 q26 -26 26 -63 q0 -37 -26 -63 q-26 -26 -64 -26 q-37 0 -63 26 q-26 26 -26 63 q0 37 26 63 q26 26 63 26 q38 0 64 -26 ZM260 681.5 q26 -25.5 26 -63.5 q0 -38 -26 -63.5 q-26 -25.5 -63 -25.5 q-37 0 -63 25.5 q-26 25.5 -26 63.5 q0 38 26 63.5 q26 25.5 63 25.5 q37 0 63 -25.5 ZM556 0 l-180 0 l0 54 q-60 -66 -166 -66 q-80 0 -120 42 q-40 42 -40 108 l0 345 l180 0 l0 -268 q0 -68 70 -68 q42 0 76 38 l0 298 l180 0 l0 -483 Z" /><glyph glyph-name="yacute" unicode="ý" d="M45 -188 l25 160 q16 -9 38 -9 q54 0 63 19 l4 10 l-190 491 l190 0 l92 -276 l93 276 l190 0 l-210 -543 q-30 -78 -84 -105.5 q-54 -27.5 -141 -30.5 q-43 0 -70 8 ZM472 700 l-155 -144 l-120 0 l120 144 l155 0 Z" /><glyph glyph-name="thorn" unicode="þ" d="M366 -12 q-81 0 -136 63 l0 -235 l-180 0 l0 851 l180 0 l0 -235 q53 63 136 63 q93 0 152.5 -66.5 q59.5 -66.5 59.5 -186.5 q0 -121 -59.5 -187.5 q-59.5 -66.5 -152.5 -66.5 ZM304 147 q38 0 64 25.5 q26 25.5 26 69.5 q0 43 -26 68.5 q-26 25.5 -64 25.5 q-19 0 -40.5 -9 q-21.5 -9 -33.5 -24 l0 -123 q11 -14 33.5 -23.5 q22.5 -9.5 40.5 -9.5 Z" /><glyph glyph-name="ydieresis" unicode="ÿ" d="M45 -188 l25 160 q16 -9 38 -9 q54 0 63 19 l4 10 l-190 491 l190 0 l92 -276 l93 276 l190 0 l-210 -543 q-30 -78 -84 -105.5 q-54 -27.5 -141 -30.5 q-43 0 -70 8 ZM439 681 q26 -26 26 -63 q0 -37 -26 -63 q-26 -26 -64 -26 q-37 0 -63 26 q-26 26 -26 63 q0 37 26 63 q26 26 63 26 q38 0 64 -26 ZM222 681.5 q26 -25.5 26 -63.5 q0 -38 -26 -63.5 q-26 -25.5 -63 -25.5 q-37 0 -63 25.5 q-26 25.5 -26 63.5 q0 38 26 63.5 q26 25.5 63 25.5 q37 0 63 -25.5 Z" /><glyph glyph-name="Amacron" unicode="&#x100;" d="M728 0 l-229 0 l-24 78 l-240 0 l-24 -78 l-229 0 l246 667 l254 0 l246 -667 ZM421 254 l-66 215 l-66 -215 l132 0 ZM536 718 l-363 0 l0 97 l363 0 l0 -97 Z" /><glyph glyph-name="amacron" unicode="&#x101;" d="M509 0 l-180 0 l0 46 q-20 -26 -60.5 -42 q-40.5 -16 -85.5 -16 q-62 0 -114 41.5 q-52 41.5 -52 117.5 q0 56 27.5 92.5 q27.5 36.5 62.5 49 q35 12.5 76 12.5 q104 0 146 -53 l0 50 q0 26 -23.5 43 q-23.5 17 -66.5 17 q-72 0 -134 -47 l-61 111 q91 73 228 73 q48 0 88 -9.5 q40 -9.5 75 -31 q35 -21.5 54.5 -63 q19.5 -41.5 19.5 -99.5 l0 -292 ZM258 105 q53 0 71 26 l0 27 q-18 26 -71 26 q-63 0 -63 -40 q0 -39 63 -39 ZM457 551 l-363 0 l0 97 l363 0 l0 -97 Z" /><glyph glyph-name="Abreve" unicode="&#x102;" d="M728 0 l-229 0 l-24 78 l-240 0 l-24 -78 l-229 0 l246 667 l254 0 l246 -667 ZM421 254 l-66 215 l-66 -215 l132 0 ZM530 779 q-65 -88 -175 -88 q-109 0 -176 88 l76 62 q38 -53 100 -53 q63 0 100 53 l75 -62 Z" /><glyph glyph-name="abreve" unicode="&#x103;" d="M509 0 l-180 0 l0 46 q-20 -26 -60.5 -42 q-40.5 -16 -85.5 -16 q-62 0 -114 41.5 q-52 41.5 -52 117.5 q0 56 27.5 92.5 q27.5 36.5 62.5 49 q35 12.5 76 12.5 q104 0 146 -53 l0 50 q0 26 -23.5 43 q-23.5 17 -66.5 17 q-72 0 -134 -47 l-61 111 q91 73 228 73 q48 0 88 -9.5 q40 -9.5 75 -31 q35 -21.5 54.5 -63 q19.5 -41.5 19.5 -99.5 l0 -292 ZM258 105 q53 0 71 26 l0 27 q-18 26 -71 26 q-63 0 -63 -40 q0 -39 63 -39 ZM451 612 q-65 -88 -175 -88 q-109 0 -176 88 l76 62 q38 -53 100 -53 q63 0 100 53 l75 -62 Z" /><glyph glyph-name="Aogonek" unicode="&#x104;" d="M727 -90 l66 -43 q-35 -53 -101 -53 q-47 0 -78.5 23.5 q-31.5 23.5 -31.5 70.5 q0 53 39 92 l-122 0 l-24 78 l-240 0 l-24 -78 l-229 0 l246 667 l254 0 l246 -667 q-65 -33 -65 -84 q0 -34 29 -34 q24 0 35 28 ZM421 254 l-66 215 l-66 -215 l132 0 Z" /><glyph glyph-name="aogonek" unicode="&#x105;" d="M508 -90 l66 -43 q-35 -53 -101 -53 q-47 0 -78.5 23.5 q-31.5 23.5 -31.5 70.5 q0 53 39 92 l-73 0 l0 46 q-20 -26 -60.5 -42 q-40.5 -16 -85.5 -16 q-62 0 -114 41.5 q-52 41.5 -52 117.5 q0 56 27.5 92.5 q27.5 36.5 62.5 49 q35 12.5 76 12.5 q104 0 146 -53 l0 50 q0 26 -23.5 43 q-23.5 17 -66.5 17 q-72 0 -134 -47 l-61 111 q91 73 228 73 q48 0 88 -9.5 q40 -9.5 75 -31 q35 -21.5 54.5 -63 q19.5 -41.5 19.5 -99.5 l0 -292 q-65 -33 -65 -84 q0 -34 29 -34 q24 0 35 28 ZM258 105 q53 0 71 26 l0 27 q-18 26 -71 26 q-63 0 -63 -40 q0 -39 63 -39 Z" /><glyph glyph-name="Cacute" unicode="&#x106;" d="M589 867 l-155 -144 l-120 0 l120 144 l155 0 ZM385 -12 q-158 0 -262.5 96.5 q-104.5 96.5 -104.5 248.5 q0 153 104 249 q104 96 263 96 q120 0 193.5 -56 q73.5 -56 109.5 -138 l-174 -81 q-13 40 -49 68.5 q-36 28.5 -80 28.5 q-72 0 -117 -48 q-45 -48 -45 -119 q0 -71 45 -119 q45 -48 117 -48 q44 0 80 28.5 q36 28.5 49 68.5 l174 -80 q-16 -37 -40 -68.5 q-24 -31.5 -60 -61.5 q-36 -30 -88.5 -47.5 q-52.5 -17.5 -114.5 -17.5 Z" /><glyph glyph-name="cacute" unicode="&#x107;" d="M495 700 l-155 -144 l-120 0 l120 144 l155 0 ZM288 -12 q-117 0 -194 70 q-77 70 -77 184 q0 113 77 183 q77 70 194 70 q75 0 128 -27.5 q53 -27.5 77 -63.5 l-116 -109 q-27 41 -81 41 q-40 0 -67.5 -24.5 q-27.5 -24.5 -27.5 -69.5 q0 -45 27.5 -70 q27.5 -25 67.5 -25 q52 0 81 42 l116 -110 q-24 -36 -77 -63.5 q-53 -27.5 -128 -27.5 Z" /><glyph glyph-name="Ccircumflex" unicode="&#x108;" d="M551 723 l-105 0 l-64 73 l-61 -73 l-105 0 l88 144 l156 0 l91 -144 ZM385 -12 q-158 0 -262.5 96.5 q-104.5 96.5 -104.5 248.5 q0 153 104 249 q104 96 263 96 q120 0 193.5 -56 q73.5 -56 109.5 -138 l-174 -81 q-13 40 -49 68.5 q-36 28.5 -80 28.5 q-72 0 -117 -48 q-45 -48 -45 -119 q0 -71 45 -119 q45 -48 117 -48 q44 0 80 28.5 q36 28.5 49 68.5 l174 -80 q-16 -37 -40 -68.5 q-24 -31.5 -60 -61.5 q-36 -30 -88.5 -47.5 q-52.5 -17.5 -114.5 -17.5 Z" /><glyph glyph-name="ccircumflex" unicode="&#x109;" d="M466 556 l-105 0 l-64 73 l-61 -73 l-105 0 l88 144 l156 0 l91 -144 ZM288 -12 q-117 0 -194 70 q-77 70 -77 184 q0 113 77 183 q77 70 194 70 q75 0 128 -27.5 q53 -27.5 77 -63.5 l-116 -109 q-27 41 -81 41 q-40 0 -67.5 -24.5 q-27.5 -24.5 -27.5 -69.5 q0 -45 27.5 -70 q27.5 -25 67.5 -25 q52 0 81 42 l116 -110 q-24 -36 -77 -63.5 q-53 -27.5 -128 -27.5 Z" /><glyph glyph-name="Cdotaccent" unicode="&#x10a;" d="M385 -12 q-158 0 -262.5 96.5 q-104.5 96.5 -104.5 248.5 q0 153 104 249 q104 96 263 96 q120 0 193.5 -56 q73.5 -56 109.5 -138 l-174 -81 q-13 40 -49 68.5 q-36 28.5 -80 28.5 q-72 0 -117 -48 q-45 -48 -45 -119 q0 -71 45 -119 q45 -48 117 -48 q44 0 80 28.5 q36 28.5 49 68.5 l174 -80 q-16 -37 -40 -68.5 q-24 -31.5 -60 -61.5 q-36 -30 -88.5 -47.5 q-52.5 -17.5 -114.5 -17.5 ZM387 697 q-37 0 -63 26 q-26 26 -26 63 q0 37 26 63 q26 26 63 26 q36 0 62 -26 q26 -26 26 -63 q0 -37 -26 -63 q-26 -26 -62 -26 Z" /><glyph glyph-name="cdotaccent" unicode="&#x10b;" d="M288 -12 q-117 0 -194 70 q-77 70 -77 184 q0 113 77 183 q77 70 194 70 q75 0 128 -27.5 q53 -27.5 77 -63.5 l-116 -109 q-27 41 -81 41 q-40 0 -67.5 -24.5 q-27.5 -24.5 -27.5 -69.5 q0 -45 27.5 -70 q27.5 -25 67.5 -25 q52 0 81 42 l116 -110 q-24 -36 -77 -63.5 q-53 -27.5 -128 -27.5 ZM287 530 q-37 0 -63 26 q-26 26 -26 63 q0 37 26 63 q26 26 63 26 q36 0 62 -26 q26 -26 26 -63 q0 -37 -26 -63 q-26 -26 -62 -26 Z" /><glyph glyph-name="Ccaron" unicode="&#x10c;" d="M463 723 l-156 0 l-91 144 l105 0 l64 -73 l61 73 l105 0 l-88 -144 ZM385 -12 q-158 0 -262.5 96.5 q-104.5 96.5 -104.5 248.5 q0 153 104 249 q104 96 263 96 q120 0 193.5 -56 q73.5 -56 109.5 -138 l-174 -81 q-13 40 -49 68.5 q-36 28.5 -80 28.5 q-72 0 -117 -48 q-45 -48 -45 -119 q0 -71 45 -119 q45 -48 117 -48 q44 0 80 28.5 q36 28.5 49 68.5 l174 -80 q-16 -37 -40 -68.5 q-24 -31.5 -60 -61.5 q-36 -30 -88.5 -47.5 q-52.5 -17.5 -114.5 -17.5 Z" /><glyph glyph-name="ccaron" unicode="&#x10d;" d="M378 556 l-156 0 l-91 144 l105 0 l64 -73 l61 73 l105 0 l-88 -144 ZM288 -12 q-117 0 -194 70 q-77 70 -77 184 q0 113 77 183 q77 70 194 70 q75 0 128 -27.5 q53 -27.5 77 -63.5 l-116 -109 q-27 41 -81 41 q-40 0 -67.5 -24.5 q-27.5 -24.5 -27.5 -69.5 q0 -45 27.5 -70 q27.5 -25 67.5 -25 q52 0 81 42 l116 -110 q-24 -36 -77 -63.5 q-53 -27.5 -128 -27.5 Z" /><glyph glyph-name="Dcaron" unicode="&#x10e;" d="M453 723 l-156 0 l-91 144 l105 0 l64 -73 l61 73 l105 0 l-88 -144 ZM353 0 l-299 0 l0 667 l298 0 q162 0 264 -88.5 q102 -88.5 102 -244.5 q0 -156 -102 -245 q-102 -89 -263 -89 ZM352 176 q73 0 117 46 q44 46 44 112 q0 71 -41 114 q-41 43 -119 43 l-97 0 l0 -315 l96 0 Z" /><glyph glyph-name="dcaron" unicode="&#x10f;" d="M742 582 q0 -99 -94 -165 l-55 44 q19 9 40.5 30.5 q21.5 21.5 27.5 42.5 q-5 -3 -19 -3 q-28 0 -46.5 19 q-18.5 19 -18.5 50 q0 33 23 56 q23 23 55 23 q36 0 61.5 -26 q25.5 -26 25.5 -71 ZM546 0 l-180 0 l0 51 q-56 -63 -136 -63 q-92 0 -152.5 67 q-60.5 67 -60.5 187 q0 117 60.5 185 q60.5 68 152.5 68 q84 0 136 -63 l0 235 l180 0 l0 -667 ZM291 147 q48 0 75 33 l0 124 q-26 32 -75 32 q-38 0 -64 -25.5 q-26 -25.5 -26 -68.5 q0 -44 26 -69.5 q26 -25.5 64 -25.5 Z" /><glyph glyph-name="Dcroat" unicode="&#x110;" d="M374 0 l-299 0 l0 254 l-68 0 l0 159 l68 0 l0 254 l298 0 q162 0 264 -88.5 q102 -88.5 102 -244.5 q0 -156 -102 -245 q-102 -89 -263 -89 ZM373 176 q73 0 117 46 q44 46 44 112 q0 71 -41 114 q-41 43 -119 43 l-97 0 l0 -78 l129 0 l0 -159 l-129 0 l0 -78 l96 0 Z" /><glyph glyph-name="dcroat" unicode="&#x111;" d="M546 0 l-180 0 l0 51 q-56 -63 -136 -63 q-92 0 -152.5 67 q-60.5 67 -60.5 187 q0 117 60.5 185 q60.5 68 152.5 68 q84 0 136 -63 l0 89 l-134 0 l0 97 l134 0 l0 49 l180 0 l0 -49 l49 0 l0 -97 l-49 0 l0 -521 ZM291 147 q48 0 75 33 l0 124 q-26 32 -75 32 q-38 0 -64 -25.5 q-26 -25.5 -26 -68.5 q0 -44 26 -69.5 q26 -25.5 64 -25.5 Z" /><glyph glyph-name="Emacron" unicode="&#x112;" d="M560 0 l-506 0 l0 667 l506 0 l0 -176 l-304 0 l0 -66 l297 0 l0 -176 l-297 0 l0 -73 l304 0 l0 -176 ZM485 718 l-363 0 l0 97 l363 0 l0 -97 Z" /><glyph glyph-name="emacron" unicode="&#x113;" d="M286 -12 q-116 0 -192.5 69 q-76.5 69 -76.5 185 q0 107 74 180 q74 73 189 73 q109 0 180 -73.5 q71 -73.5 71 -198.5 l0 -37 l-328 0 q8 -25 35 -43 q27 -18 69 -18 q23 0 58.5 10 q35.5 10 52.5 24 l74 -111 q-34 -29 -91 -44.5 q-57 -15.5 -115 -15.5 ZM360 300 q-14 58 -80 58 q-63 0 -79 -58 l159 0 ZM455 551 l-363 0 l0 97 l363 0 l0 -97 Z" /><glyph glyph-name="Ebreve" unicode="&#x114;" d="M560 0 l-506 0 l0 667 l506 0 l0 -176 l-304 0 l0 -66 l297 0 l0 -176 l-297 0 l0 -73 l304 0 l0 -176 ZM478 779 q-65 -88 -175 -88 q-109 0 -176 88 l76 62 q38 -53 100 -53 q63 0 100 53 l75 -62 Z" /><glyph glyph-name="ebreve" unicode="&#x115;" d="M286 -12 q-116 0 -192.5 69 q-76.5 69 -76.5 185 q0 107 74 180 q74 73 189 73 q109 0 180 -73.5 q71 -73.5 71 -198.5 l0 -37 l-328 0 q8 -25 35 -43 q27 -18 69 -18 q23 0 58.5 10 q35.5 10 52.5 24 l74 -111 q-34 -29 -91 -44.5 q-57 -15.5 -115 -15.5 ZM360 300 q-14 58 -80 58 q-63 0 -79 -58 l159 0 ZM457 612 q-65 -88 -175 -88 q-109 0 -176 88 l76 62 q38 -53 100 -53 q63 0 100 53 l75 -62 Z" /><glyph glyph-name="Edotaccent" unicode="&#x116;" d="M560 0 l-506 0 l0 667 l506 0 l0 -176 l-304 0 l0 -66 l297 0 l0 -176 l-297 0 l0 -73 l304 0 l0 -176 ZM306 697 q-37 0 -63 26 q-26 26 -26 63 q0 37 26 63 q26 26 63 26 q36 0 62 -26 q26 -26 26 -63 q0 -37 -26 -63 q-26 -26 -62 -26 Z" /><glyph glyph-name="edotaccent" unicode="&#x117;" d="M286 -12 q-116 0 -192.5 69 q-76.5 69 -76.5 185 q0 107 74 180 q74 73 189 73 q109 0 180 -73.5 q71 -73.5 71 -198.5 l0 -37 l-328 0 q8 -25 35 -43 q27 -18 69 -18 q23 0 58.5 10 q35.5 10 52.5 24 l74 -111 q-34 -29 -91 -44.5 q-57 -15.5 -115 -15.5 ZM360 300 q-14 58 -80 58 q-63 0 -79 -58 l159 0 ZM282 530 q-37 0 -63 26 q-26 26 -26 63 q0 37 26 63 q26 26 63 26 q36 0 62 -26 q26 -26 26 -63 q0 -37 -26 -63 q-26 -26 -62 -26 Z" /><glyph glyph-name="Eogonek" unicode="&#x118;" d="M560 0 q-65 -33 -65 -84 q0 -34 29 -34 q24 0 35 28 l66 -43 q-35 -53 -101 -53 q-47 0 -78.5 23.5 q-31.5 23.5 -31.5 70.5 q0 53 39 92 l-399 0 l0 667 l506 0 l0 -176 l-304 0 l0 -66 l297 0 l0 -176 l-297 0 l0 -73 l304 0 l0 -176 Z" /><glyph glyph-name="eogonek" unicode="&#x119;" d="M387 -90 l66 -43 q-35 -53 -101 -53 q-47 0 -78.5 23.5 q-31.5 23.5 -31.5 70.5 q0 44 28 80 q-110 5 -181.5 73 q-71.5 68 -71.5 181 q0 107 74 180 q74 73 189 73 q109 0 180 -73.5 q71 -73.5 71 -198.5 l0 -37 l-328 0 q8 -25 35 -43 q27 -18 69 -18 q23 0 58.5 10 q35.5 10 52.5 24 l74 -111 q-35 -31 -104 -48 q-65 -33 -65 -84 q0 -34 29 -34 q24 0 35 28 ZM360 300 q-14 58 -80 58 q-63 0 -79 -58 l159 0 Z" /><glyph glyph-name="Ecaron" unicode="&#x11a;" d="M387 723 l-156 0 l-91 144 l105 0 l64 -73 l61 73 l105 0 l-88 -144 ZM560 0 l-506 0 l0 667 l506 0 l0 -176 l-304 0 l0 -66 l297 0 l0 -176 l-297 0 l0 -73 l304 0 l0 -176 Z" /><glyph glyph-name="ecaron" unicode="&#x11b;" d="M357 556 l-156 0 l-91 144 l105 0 l64 -73 l61 73 l105 0 l-88 -144 ZM286 -12 q-116 0 -192.5 69 q-76.5 69 -76.5 185 q0 107 74 180 q74 73 189 73 q109 0 180 -73.5 q71 -73.5 71 -198.5 l0 -37 l-328 0 q8 -25 35 -43 q27 -18 69 -18 q23 0 58.5 10 q35.5 10 52.5 24 l74 -111 q-34 -29 -91 -44.5 q-57 -15.5 -115 -15.5 ZM360 300 q-14 58 -80 58 q-63 0 -79 -58 l159 0 Z" /><glyph glyph-name="Gcircumflex" unicode="&#x11c;" d="M553 723 l-105 0 l-64 73 l-61 -73 l-105 0 l88 144 l156 0 l91 -144 ZM385 -12 q-156 0 -261.5 94.5 q-105.5 94.5 -105.5 250.5 q0 156 105.5 250.5 q105.5 94.5 261.5 94.5 q110 0 183.5 -50 q73.5 -50 109.5 -124 l-170 -87 q-16 34 -48.5 58.5 q-32.5 24.5 -74.5 24.5 q-72 0 -117 -48 q-45 -48 -45 -119 q0 -71 45 -119 q45 -48 117 -48 q28 0 58 9 q30 9 46 21 l0 24 l-124 0 l0 176 l325 0 l0 -273 q-122 -135 -305 -135 Z" /><glyph glyph-name="gcircumflex" unicode="&#x11d;" d="M473 556 l-105 0 l-64 73 l-61 -73 l-105 0 l88 144 l156 0 l91 -144 ZM253 -196 q-129 0 -220 72 l76 128 q53 -53 144 -53 q43 0 77.5 22.5 q34.5 22.5 34.5 78.5 l0 26 q-57 -65 -136 -65 q-93 0 -152.5 61.5 q-59.5 61.5 -59.5 179.5 q0 116 59.5 178.5 q59.5 62.5 152.5 62.5 q83 0 136 -63 l0 51 l180 0 l0 -431 q0 -60 -19.5 -106 q-19.5 -46 -48.5 -72 q-29 -26 -69.5 -42.5 q-40.5 -16.5 -77.5 -22 q-37 -5.5 -77 -5.5 ZM291 172 q19 0 40.5 8.5 q21.5 8.5 33.5 22.5 l0 102 q-12 14 -33.5 22.5 q-21.5 8.5 -40.5 8.5 q-40 0 -65 -20 q-25 -20 -25 -62 q0 -42 25 -62 q25 -20 65 -20 Z" /><glyph glyph-name="Gbreve" unicode="&#x11e;" d="M385 -12 q-156 0 -261.5 94.5 q-105.5 94.5 -105.5 250.5 q0 156 105.5 250.5 q105.5 94.5 261.5 94.5 q110 0 183.5 -50 q73.5 -50 109.5 -124 l-170 -87 q-16 34 -48.5 58.5 q-32.5 24.5 -74.5 24.5 q-72 0 -117 -48 q-45 -48 -45 -119 q0 -71 45 -119 q45 -48 117 -48 q28 0 58 9 q30 9 46 21 l0 24 l-124 0 l0 176 l325 0 l0 -273 q-122 -135 -305 -135 ZM560 779 q-65 -88 -175 -88 q-109 0 -176 88 l76 62 q38 -53 100 -53 q63 0 100 53 l75 -62 Z" /><glyph glyph-name="gbreve" unicode="&#x11f;" d="M253 -196 q-129 0 -220 72 l76 128 q53 -53 144 -53 q43 0 77.5 22.5 q34.5 22.5 34.5 78.5 l0 26 q-57 -65 -136 -65 q-93 0 -152.5 61.5 q-59.5 61.5 -59.5 179.5 q0 116 59.5 178.5 q59.5 62.5 152.5 62.5 q83 0 136 -63 l0 51 l180 0 l0 -431 q0 -60 -19.5 -106 q-19.5 -46 -48.5 -72 q-29 -26 -69.5 -42.5 q-40.5 -16.5 -77.5 -22 q-37 -5.5 -77 -5.5 ZM291 172 q19 0 40.5 8.5 q21.5 8.5 33.5 22.5 l0 102 q-12 14 -33.5 22.5 q-21.5 8.5 -40.5 8.5 q-40 0 -65 -20 q-25 -20 -25 -62 q0 -42 25 -62 q25 -20 65 -20 ZM469 612 q-65 -88 -175 -88 q-109 0 -176 88 l76 62 q38 -53 100 -53 q63 0 100 53 l75 -62 Z" /><glyph glyph-name="Gdotaccent" unicode="&#x120;" d="M385 -12 q-156 0 -261.5 94.5 q-105.5 94.5 -105.5 250.5 q0 156 105.5 250.5 q105.5 94.5 261.5 94.5 q110 0 183.5 -50 q73.5 -50 109.5 -124 l-170 -87 q-16 34 -48.5 58.5 q-32.5 24.5 -74.5 24.5 q-72 0 -117 -48 q-45 -48 -45 -119 q0 -71 45 -119 q45 -48 117 -48 q28 0 58 9 q30 9 46 21 l0 24 l-124 0 l0 176 l325 0 l0 -273 q-122 -135 -305 -135 ZM385 697 q-37 0 -63 26 q-26 26 -26 63 q0 37 26 63 q26 26 63 26 q36 0 62 -26 q26 -26 26 -63 q0 -37 -26 -63 q-26 -26 -62 -26 Z" /><glyph glyph-name="gdotaccent" unicode="&#x121;" d="M253 -196 q-129 0 -220 72 l76 128 q53 -53 144 -53 q43 0 77.5 22.5 q34.5 22.5 34.5 78.5 l0 26 q-57 -65 -136 -65 q-93 0 -152.5 61.5 q-59.5 61.5 -59.5 179.5 q0 116 59.5 178.5 q59.5 62.5 152.5 62.5 q83 0 136 -63 l0 51 l180 0 l0 -431 q0 -60 -19.5 -106 q-19.5 -46 -48.5 -72 q-29 -26 -69.5 -42.5 q-40.5 -16.5 -77.5 -22 q-37 -5.5 -77 -5.5 ZM291 172 q19 0 40.5 8.5 q21.5 8.5 33.5 22.5 l0 102 q-12 14 -33.5 22.5 q-21.5 8.5 -40.5 8.5 q-40 0 -65 -20 q-25 -20 -25 -62 q0 -42 25 -62 q25 -20 65 -20 ZM307 530 q-37 0 -63 26 q-26 26 -26 63 q0 37 26 63 q26 26 63 26 q36 0 62 -26 q26 -26 26 -63 q0 -37 -26 -63 q-26 -26 -62 -26 Z" /><glyph glyph-name="Gcommaaccent" unicode="&#x122;" d="M472 -139 q0 -99 -94 -165 l-55 44 q19 9 40.5 30.5 q21.5 21.5 27.5 42.5 q-5 -3 -19 -3 q-28 0 -46.5 19 q-18.5 19 -18.5 50 q0 33 23 56 q23 23 55 23 q36 0 61.5 -26 q25.5 -26 25.5 -71 ZM385 -12 q-156 0 -261.5 94.5 q-105.5 94.5 -105.5 250.5 q0 156 105.5 250.5 q105.5 94.5 261.5 94.5 q110 0 183.5 -50 q73.5 -50 109.5 -124 l-170 -87 q-16 34 -48.5 58.5 q-32.5 24.5 -74.5 24.5 q-72 0 -117 -48 q-45 -48 -45 -119 q0 -71 45 -119 q45 -48 117 -48 q28 0 58 9 q30 9 46 21 l0 24 l-124 0 l0 176 l325 0 l0 -273 q-122 -135 -305 -135 Z" /><glyph glyph-name="gcommaaccent" unicode="&#x123;" d="M213 612 q0 107 90 170 l55 -44 q-18 -6 -40.5 -26 q-22.5 -20 -26.5 -39 q1 0 3 0.5 q2 0.5 4 0.5 q29 0 52 -21.5 q23 -21.5 23 -52.5 q0 -33 -23.5 -56.5 q-23.5 -23.5 -56.5 -23.5 q-29 0 -54.5 21 q-25.5 21 -25.5 71 ZM253 -196 q-129 0 -220 72 l76 128 q53 -53 144 -53 q43 0 77.5 22.5 q34.5 22.5 34.5 78.5 l0 26 q-57 -65 -136 -65 q-93 0 -152.5 61.5 q-59.5 61.5 -59.5 179.5 q0 116 59.5 178.5 q59.5 62.5 152.5 62.5 q83 0 136 -63 l0 51 l180 0 l0 -431 q0 -60 -19.5 -106 q-19.5 -46 -48.5 -72 q-29 -26 -69.5 -42.5 q-40.5 -16.5 -77.5 -22 q-37 -5.5 -77 -5.5 ZM291 172 q19 0 40.5 8.5 q21.5 8.5 33.5 22.5 l0 102 q-12 14 -33.5 22.5 q-21.5 8.5 -40.5 8.5 q-40 0 -65 -20 q-25 -20 -25 -62 q0 -42 25 -62 q25 -20 65 -20 Z" /><glyph glyph-name="Hcircumflex" unicode="&#x124;" d="M543 723 l-105 0 l-64 73 l-61 -73 l-105 0 l88 144 l156 0 l91 -144 ZM697 0 l-202 0 l0 255 l-239 0 l0 -255 l-202 0 l0 667 l202 0 l0 -236 l239 0 l0 236 l202 0 l0 -667 Z" /><glyph glyph-name="hcircumflex" unicode="&#x125;" d="M472 723 l-105 0 l-64 73 l-61 -73 l-105 0 l88 144 l156 0 l91 -144 ZM558 0 l-180 0 l0 269 q0 67 -70 67 q-43 0 -77 -38 l0 -298 l-180 0 l0 667 l180 0 l0 -239 q59 67 166 67 q80 0 120.5 -41.5 q40.5 -41.5 40.5 -108.5 l0 -345 Z" /><glyph glyph-name="Hbar" unicode="&#x126;" d="M704 0 l-202 0 l0 255 l-239 0 l0 -255 l-202 0 l0 501 l-54 0 l0 97 l54 0 l0 69 l202 0 l0 -69 l239 0 l0 69 l202 0 l0 -69 l54 0 l0 -97 l-54 0 l0 -501 ZM263 431 l239 0 l0 70 l-239 0 l0 -70 Z" /><glyph glyph-name="hbar" unicode="&#x127;" d="M370 521 l-134 0 l0 -93 q59 67 166 67 q80 0 120.5 -41.5 q40.5 -41.5 40.5 -108.5 l0 -345 l-180 0 l0 269 q0 67 -70 67 q-43 0 -77 -38 l0 -298 l-180 0 l0 521 l-49 0 l0 97 l49 0 l0 49 l180 0 l0 -49 l134 0 l0 -97 Z" /><glyph glyph-name="Itilde" unicode="&#x128;" d="M256 0 l-202 0 l0 667 l202 0 l0 -667 ZM209 721 q-35 0 -68 21.5 q-33 21.5 -42 21.5 q-24 0 -24 -37 l-89 0 q0 134 118 134 q35 0 68 -21.5 q33 -21.5 42 -21.5 q24 0 24 37 l89 0 q0 -134 -118 -134 Z" /><glyph glyph-name="itilde" unicode="&#x129;" d="M230 0 l-180 0 l0 483 l180 0 l0 -483 ZM194 554 q-35 0 -68 21.5 q-33 21.5 -42 21.5 q-24 0 -24 -37 l-89 0 q0 134 118 134 q35 0 68 -21.5 q33 -21.5 42 -21.5 q24 0 24 37 l89 0 q0 -134 -118 -134 Z" /><glyph glyph-name="Imacron" unicode="&#x12a;" d="M256 0 l-202 0 l0 667 l202 0 l0 -667 ZM337 718 l-363 0 l0 97 l363 0 l0 -97 Z" /><glyph glyph-name="imacron" unicode="&#x12b;" d="M230 0 l-180 0 l0 483 l180 0 l0 -483 ZM322 551 l-363 0 l0 97 l363 0 l0 -97 Z" /><glyph glyph-name="Ibreve" unicode="&#x12c;" d="M256 0 l-202 0 l0 667 l202 0 l0 -667 ZM335 779 q-65 -88 -175 -88 q-109 0 -176 88 l76 62 q38 -53 100 -53 q63 0 100 53 l75 -62 Z" /><glyph glyph-name="ibreve" unicode="&#x12d;" d="M230 0 l-180 0 l0 483 l180 0 l0 -483 ZM317 612 q-65 -88 -175 -88 q-109 0 -176 88 l76 62 q38 -53 100 -53 q63 0 100 53 l75 -62 Z" /><glyph glyph-name="Iogonek" unicode="&#x12e;" d="M256 -90 l66 -43 q-35 -53 -101 -53 q-47 0 -78.5 23.5 q-31.5 23.5 -31.5 70.5 q0 53 39 92 l-96 0 l0 667 l202 0 l0 -667 l1 0 q-65 -33 -65 -84 q0 -34 29 -34 q24 0 35 28 Z" /><glyph glyph-name="iogonek" unicode="&#x12f;" d="M229 -90 l66 -43 q-35 -53 -101 -53 q-47 0 -78.5 23.5 q-31.5 23.5 -31.5 70.5 q0 53 39 92 l-73 0 l0 483 l180 0 l0 -483 q-65 -33 -65 -84 q0 -34 29 -34 q24 0 35 28 ZM211.5 547.5 q-29.5 -29.5 -71.5 -29.5 q-42 0 -71.5 29.5 q-29.5 29.5 -29.5 71.5 q0 42 29.5 71.5 q29.5 29.5 71.5 29.5 q42 0 71.5 -29.5 q29.5 -29.5 29.5 -71.5 q0 -42 -29.5 -71.5 Z" /><glyph glyph-name="Idotaccent" unicode="&#x130;" d="M256 0 l-202 0 l0 667 l202 0 l0 -667 ZM157 697 q-37 0 -63 26 q-26 26 -26 63 q0 37 26 63 q26 26 63 26 q36 0 62 -26 q26 -26 26 -63 q0 -37 -26 -63 q-26 -26 -62 -26 Z" /><glyph glyph-name="dotlessi" unicode="&#x131;" d="M230 0 l-180 0 l0 483 l180 0 l0 -483 Z" /><glyph glyph-name="IJ" unicode="&#x132;" d="M256 0 l-202 0 l0 667 l202 0 l0 -667 ZM496 -12 q-116 0 -186 54 l82 154 q44 -30 86 -30 q33 0 53.5 20 q20.5 20 20.5 55 l0 426 l202 0 l0 -429 q0 -125 -69 -187.5 q-69 -62.5 -189 -62.5 Z" /><glyph glyph-name="ij" unicode="&#x133;" d="M211.5 547.5 q-29.5 -29.5 -71.5 -29.5 q-42 0 -71.5 29.5 q-29.5 29.5 -29.5 71.5 q0 42 29.5 71.5 q29.5 29.5 71.5 29.5 q42 0 71.5 -29.5 q29.5 -29.5 29.5 -71.5 q0 -42 -29.5 -71.5 ZM230 0 l-180 0 l0 483 l180 0 l0 -483 ZM491.5 547.5 q-29.5 -29.5 -71.5 -29.5 q-42 0 -71.5 29.5 q-29.5 29.5 -29.5 71.5 q0 42 29.5 71.5 q29.5 29.5 71.5 29.5 q42 0 71.5 -29.5 q29.5 -29.5 29.5 -71.5 q0 -42 -29.5 -71.5 ZM309 -196 q-52 0 -78 7 q-26 7 -57 26 l43 133 q25 -19 60 -19 q53 0 53 70 l0 462 l180 0 l0 -462 q0 -98 -50 -157.5 q-50 -59.5 -151 -59.5 Z" /><glyph glyph-name="Jcircumflex" unicode="&#x134;" d="M512 723 l-105 0 l-64 73 l-61 -73 l-105 0 l88 144 l156 0 l91 -144 ZM186 -12 q-116 0 -186 54 l82 154 q44 -30 86 -30 q33 0 53.5 20 q20.5 20 20.5 55 l0 426 l202 0 l0 -429 q0 -125 -69 -187.5 q-69 -62.5 -189 -62.5 Z" /><glyph glyph-name="jcircumflex" unicode="&#x135;" d="M311 556 l-105 0 l-64 73 l-61 -73 l-105 0 l88 144 l156 0 l91 -144 ZM29 -196 q-52 0 -78 7 q-26 7 -57 26 l43 145 q25 -19 60 -19 q24 0 38.5 16 q14.5 16 14.5 42 l0 462 l180 0 l0 -462 q0 -98 -50 -157.5 q-50 -59.5 -151 -59.5 Z" /><glyph glyph-name="Kcommaaccent" unicode="&#x136;" d="M430 -139 q0 -99 -94 -165 l-55 44 q19 9 40.5 30.5 q21.5 21.5 27.5 42.5 q-5 -3 -19 -3 q-28 0 -46.5 19 q-18.5 19 -18.5 50 q0 33 23 56 q23 23 55 23 q36 0 61.5 -26 q25.5 -26 25.5 -71 ZM689 0 l-246 0 l-150 235 l-37 -50 l0 -185 l-202 0 l0 667 l202 0 l0 -250 l175 250 l247 0 l-252 -310 l263 -357 Z" /><glyph glyph-name="kcommaaccent" unicode="&#x137;" d="M364 -139 q0 -99 -94 -165 l-55 44 q19 9 40.5 30.5 q21.5 21.5 27.5 42.5 q-5 -3 -19 -3 q-28 0 -46.5 19 q-18.5 19 -18.5 50 q0 33 23 56 q23 23 55 23 q36 0 61.5 -26 q25.5 -26 25.5 -71 ZM569 0 l-221 0 l-83 156 l-35 -47 l0 -109 l-180 0 l0 667 l180 0 l0 -356 l111 172 l217 0 l-166 -220 l177 -263 Z" /><glyph glyph-name="kgreenlandic" unicode="&#x138;" d="M569 0 l-221 0 l-83 156 l-35 -47 l0 -109 l-180 0 l0 483 l180 0 l0 -172 l111 172 l217 0 l-166 -220 l177 -263 Z" /><glyph glyph-name="Lacute" unicode="&#x139;" d="M486 867 l-155 -144 l-120 0 l120 144 l155 0 ZM509 0 l-455 0 l0 667 l202 0 l0 -491 l253 0 l0 -176 Z" /><glyph glyph-name="lacute" unicode="&#x13a;" d="M346 867 l-155 -144 l-120 0 l120 144 l155 0 ZM230 0 l-180 0 l0 667 l180 0 l0 -667 Z" /><glyph glyph-name="Lcommaaccent" unicode="&#x13b;" d="M349 -139 q0 -99 -94 -165 l-55 44 q19 9 40.5 30.5 q21.5 21.5 27.5 42.5 q-5 -3 -19 -3 q-28 0 -46.5 19 q-18.5 19 -18.5 50 q0 33 23 56 q23 23 55 23 q36 0 61.5 -26 q25.5 -26 25.5 -71 ZM509 0 l-455 0 l0 667 l202 0 l0 -491 l253 0 l0 -176 Z" /><glyph glyph-name="lcommaaccent" unicode="&#x13c;" d="M226 -139 q0 -99 -94 -165 l-55 44 q19 9 40.5 30.5 q21.5 21.5 27.5 42.5 q-5 -3 -19 -3 q-28 0 -46.5 19 q-18.5 19 -18.5 50 q0 33 23 56 q23 23 55 23 q36 0 61.5 -26 q25.5 -26 25.5 -71 ZM230 0 l-180 0 l0 667 l180 0 l0 -667 Z" /><glyph glyph-name="Lcaron" unicode="&#x13d;" d="M486 584 q0 -99 -94 -165 l-55 44 q19 9 40.5 30.5 q21.5 21.5 27.5 42.5 q-5 -3 -19 -3 q-28 0 -46.5 19 q-18.5 19 -18.5 50 q0 33 23 56 q23 23 55 23 q36 0 61.5 -26 q25.5 -26 25.5 -71 ZM509 0 l-455 0 l0 667 l202 0 l0 -491 l253 0 l0 -176 Z" /><glyph glyph-name="lcaron" unicode="&#x13e;" d="M434 584 q0 -99 -94 -165 l-55 44 q19 9 40.5 30.5 q21.5 21.5 27.5 42.5 q-5 -3 -19 -3 q-28 0 -46.5 19 q-18.5 19 -18.5 50 q0 33 23 56 q23 23 55 23 q36 0 61.5 -26 q25.5 -26 25.5 -71 ZM230 0 l-180 0 l0 667 l180 0 l0 -667 Z" /><glyph glyph-name="Ldot" unicode="&#x13f;" d="M509 0 l-455 0 l0 667 l202 0 l0 -491 l253 0 l0 -176 ZM563 342 q0 -43 -31.5 -74.5 q-31.5 -31.5 -74.5 -31.5 q-43 0 -74.5 31.5 q-31.5 31.5 -31.5 74.5 q0 44 31.5 75.5 q31.5 31.5 74.5 31.5 q43 0 74.5 -31.5 q31.5 -31.5 31.5 -75.5 Z" /><glyph glyph-name="ldot" unicode="&#x140;" d="M230 0 l-180 0 l0 667 l180 0 l0 -667 ZM477 244 q0 -43 -31.5 -74.5 q-31.5 -31.5 -74.5 -31.5 q-43 0 -74.5 31.5 q-31.5 31.5 -31.5 74.5 q0 44 31.5 75.5 q31.5 31.5 74.5 31.5 q43 0 74.5 -31.5 q31.5 -31.5 31.5 -75.5 Z" /><glyph glyph-name="Lslash" unicode="&#x141;" d="M7 163 l0 160 l56 32 l0 312 l202 0 l0 -195 l56 32 l0 -161 l-56 -32 l0 -135 l253 0 l0 -176 l-455 0 l0 195 l-56 -32 Z" /><glyph glyph-name="lslash" unicode="&#x142;" d="M7 180 l0 126 l68 39 l0 322 l180 0 l0 -218 l68 39 l0 -125 l-68 -40 l0 -323 l-180 0 l0 219 l-68 -39 Z" /><glyph glyph-name="Nacute" unicode="&#x143;" d="M581 867 l-155 -144 l-120 0 l120 144 l155 0 ZM696 0 l-194 0 l-246 338 l0 -338 l-202 0 l0 667 l208 0 l232 -316 l0 316 l202 0 l0 -667 Z" /><glyph glyph-name="nacute" unicode="&#x144;" d="M510 700 l-155 -144 l-120 0 l120 144 l155 0 ZM557 0 l-180 0 l0 267 q0 69 -70 69 q-43 0 -77 -38 l0 -298 l-180 0 l0 483 l180 0 l0 -55 q59 67 166 67 q80 0 120.5 -42.5 q40.5 -42.5 40.5 -109.5 l0 -343 Z" /><glyph glyph-name="Ncommaaccent" unicode="&#x145;" d="M460 -139 q0 -99 -94 -165 l-55 44 q19 9 40.5 30.5 q21.5 21.5 27.5 42.5 q-5 -3 -19 -3 q-28 0 -46.5 19 q-18.5 19 -18.5 50 q0 33 23 56 q23 23 55 23 q36 0 61.5 -26 q25.5 -26 25.5 -71 ZM696 0 l-194 0 l-246 338 l0 -338 l-202 0 l0 667 l208 0 l232 -316 l0 316 l202 0 l0 -667 Z" /><glyph glyph-name="ncommaaccent" unicode="&#x146;" d="M389 -139 q0 -99 -94 -165 l-55 44 q19 9 40.5 30.5 q21.5 21.5 27.5 42.5 q-4 -3 -19 -3 q-28 0 -46.5 19 q-18.5 19 -18.5 50 q0 33 23 56 q23 23 55 23 q36 0 61.5 -26 q25.5 -26 25.5 -71 ZM557 0 l-180 0 l0 267 q0 69 -70 69 q-43 0 -77 -38 l0 -298 l-180 0 l0 483 l180 0 l0 -55 q59 67 166 67 q80 0 120.5 -42.5 q40.5 -42.5 40.5 -109.5 l0 -343 Z" /><glyph glyph-name="Ncaron" unicode="&#x147;" d="M454 723 l-156 0 l-91 144 l105 0 l64 -73 l61 73 l105 0 l-88 -144 ZM696 0 l-194 0 l-246 338 l0 -338 l-202 0 l0 667 l208 0 l232 -316 l0 316 l202 0 l0 -667 Z" /><glyph glyph-name="ncaron" unicode="&#x148;" d="M383 556 l-156 0 l-91 144 l105 0 l64 -73 l61 73 l105 0 l-88 -144 ZM557 0 l-180 0 l0 267 q0 69 -70 69 q-43 0 -77 -38 l0 -298 l-180 0 l0 483 l180 0 l0 -55 q59 67 166 67 q80 0 120.5 -42.5 q40.5 -42.5 40.5 -109.5 l0 -343 Z" /><glyph glyph-name="napostrophe" unicode="&#x149;" d="M190 688 q0 -99 -94 -165 l-55 44 q19 9 40.5 30.5 q21.5 21.5 27.5 42.5 q-5 -3 -19 -3 q-28 0 -46.5 19 q-18.5 19 -18.5 50 q0 33 23 56 q23 23 55 23 q36 0 61.5 -26 q25.5 -26 25.5 -71 ZM557 0 l-180 0 l0 267 q0 69 -70 69 q-43 0 -77 -38 l0 -298 l-180 0 l0 483 l180 0 l0 -55 q59 67 166 67 q80 0 120.5 -42.5 q40.5 -42.5 40.5 -109.5 l0 -343 Z" /><glyph glyph-name="Eng" unicode="&#x14a;" d="M438 -196 q-116 0 -186 54 l82 154 q44 -30 86 -30 q48 0 67 39 l-231 317 l0 -338 l-202 0 l0 667 l208 0 l232 -316 l0 316 l202 0 l0 -613 q0 -125 -69 -187.5 q-69 -62.5 -189 -62.5 Z" /><glyph glyph-name="eng" unicode="&#x14b;" d="M557 343 l0 -322 q0 -98 -50 -157.5 q-50 -59.5 -151 -59.5 q-52 0 -78 7 q-26 7 -57 26 l43 145 q25 -19 60 -19 q24 0 38.5 16 q14.5 16 14.5 42 l0 246 q0 69 -70 69 q-43 0 -77 -38 l0 -298 l-180 0 l0 483 l180 0 l0 -55 q59 67 166 67 q80 0 120.5 -42.5 q40.5 -42.5 40.5 -109.5 Z" /><glyph glyph-name="Omacron" unicode="&#x14c;" d="M564 718 l-363 0 l0 97 l363 0 l0 -97 ZM643.5 84.5 q-104.5 -96.5 -260.5 -96.5 q-156 0 -260.5 96.5 q-104.5 96.5 -104.5 248.5 q0 152 104.5 248.5 q104.5 96.5 260.5 96.5 q156 0 260.5 -96.5 q104.5 -96.5 104.5 -248.5 q0 -152 -104.5 -248.5 ZM267.5 214 q44.5 -48 115.5 -48 q71 0 115.5 48 q44.5 48 44.5 119 q0 71 -44.5 119 q-44.5 48 -115.5 48 q-71 0 -115.5 -48 q-44.5 -48 -44.5 -119 q0 -71 44.5 -119 Z" /><glyph glyph-name="omacron" unicode="&#x14d;" d="M470 551 l-363 0 l0 97 l363 0 l0 -97 ZM486 62 q-74 -74 -198 -74 q-124 0 -197.5 74 q-73.5 74 -73.5 180 q0 106 73.5 179.5 q73.5 73.5 197.5 73.5 q124 0 198 -73.5 q74 -73.5 74 -179.5 q0 -106 -74 -180 ZM288 147 q41 0 64 26.5 q23 26.5 23 68.5 q0 41 -23 67.5 q-23 26.5 -64 26.5 q-40 0 -63 -26.5 q-23 -26.5 -23 -67.5 q0 -42 23 -68.5 q23 -26.5 63 -26.5 Z" /><glyph glyph-name="Obreve" unicode="&#x14e;" d="M643.5 84.5 q-104.5 -96.5 -260.5 -96.5 q-156 0 -260.5 96.5 q-104.5 96.5 -104.5 248.5 q0 152 104.5 248.5 q104.5 96.5 260.5 96.5 q156 0 260.5 -96.5 q104.5 -96.5 104.5 -248.5 q0 -152 -104.5 -248.5 ZM267.5 214 q44.5 -48 115.5 -48 q71 0 115.5 48 q44.5 48 44.5 119 q0 71 -44.5 119 q-44.5 48 -115.5 48 q-71 0 -115.5 -48 q-44.5 -48 -44.5 -119 q0 -71 44.5 -119 ZM558 779 q-65 -88 -175 -88 q-109 0 -176 88 l76 62 q38 -53 100 -53 q63 0 100 53 l75 -62 Z" /><glyph glyph-name="obreve" unicode="&#x14f;" d="M486 62 q-74 -74 -198 -74 q-124 0 -197.5 74 q-73.5 74 -73.5 180 q0 106 73.5 179.5 q73.5 73.5 197.5 73.5 q124 0 198 -73.5 q74 -73.5 74 -179.5 q0 -106 -74 -180 ZM288 147 q41 0 64 26.5 q23 26.5 23 68.5 q0 41 -23 67.5 q-23 26.5 -64 26.5 q-40 0 -63 -26.5 q-23 -26.5 -23 -67.5 q0 -42 23 -68.5 q23 -26.5 63 -26.5 ZM462 612 q-65 -88 -175 -88 q-109 0 -176 88 l76 62 q38 -53 100 -53 q63 0 100 53 l75 -62 Z" /><glyph glyph-name="Ohungarumlaut" unicode="&#x150;" d="M462 867 l-115 -144 l-100 0 l80 144 l135 0 ZM618 867 l-115 -144 l-100 0 l80 144 l135 0 ZM643.5 84.5 q-104.5 -96.5 -260.5 -96.5 q-156 0 -260.5 96.5 q-104.5 96.5 -104.5 248.5 q0 152 104.5 248.5 q104.5 96.5 260.5 96.5 q156 0 260.5 -96.5 q104.5 -96.5 104.5 -248.5 q0 -152 -104.5 -248.5 ZM267.5 214 q44.5 -48 115.5 -48 q71 0 115.5 48 q44.5 48 44.5 119 q0 71 -44.5 119 q-44.5 48 -115.5 48 q-71 0 -115.5 -48 q-44.5 -48 -44.5 -119 q0 -71 44.5 -119 Z" /><glyph glyph-name="ohungarumlaut" unicode="&#x151;" d="M368 700 l-115 -144 l-100 0 l80 144 l135 0 ZM524 700 l-115 -144 l-100 0 l80 144 l135 0 ZM486 62 q-74 -74 -198 -74 q-124 0 -197.5 74 q-73.5 74 -73.5 180 q0 106 73.5 179.5 q73.5 73.5 197.5 73.5 q124 0 198 -73.5 q74 -73.5 74 -179.5 q0 -106 -74 -180 ZM288 147 q41 0 64 26.5 q23 26.5 23 68.5 q0 41 -23 67.5 q-23 26.5 -64 26.5 q-40 0 -63 -26.5 q-23 -26.5 -23 -67.5 q0 -42 23 -68.5 q23 -26.5 63 -26.5 Z" /><glyph glyph-name="OE" unicode="&#x152;" d="M1032 0 l-506 0 l0 36 q-61 -48 -166 -48 q-148 0 -245 96 q-97 96 -97 249 q0 153 97 248.5 q97 95.5 245 95.5 q106 0 166 -46 l0 36 l506 0 l0 -176 l-304 0 l0 -66 l297 0 l0 -176 l-297 0 l0 -73 l304 0 l0 -176 ZM526 237 l0 193 q-40 69 -135 69 q-77 0 -122.5 -47 q-45.5 -47 -45.5 -119 q0 -72 45.5 -119.5 q45.5 -47.5 122.5 -47.5 q44 0 80 19 q36 19 55 52 Z" /><glyph glyph-name="oe" unicode="&#x153;" d="M889 186 l-328 0 q30 -62 109 -62 q61 0 102 34 l78 -110 q-34 -29 -91 -44.5 q-57 -15.5 -115 -15.5 q-60 0 -100 20 q-40 20 -79 56 q-76 -76 -177 -76 q-124 0 -197.5 74 q-73.5 74 -73.5 180 q0 106 73.5 179.5 q73.5 73.5 197.5 73.5 q95 0 178 -77 q73 77 172 77 q109 0 180 -73.5 q71 -73.5 71 -198.5 l0 -37 ZM559 300 l159 0 q-14 59 -80 59 q-64 0 -79 -59 ZM350.5 171 q24.5 25 24.5 71 q0 46 -24.5 70 q-24.5 24 -62.5 24 q-38 0 -62 -24.5 q-24 -24.5 -24 -69.5 q0 -46 24 -71 q24 -25 62 -25 q38 0 62.5 25 Z" /><glyph glyph-name="Racute" unicode="&#x154;" d="M556 867 l-155 -144 l-120 0 l120 144 l155 0 ZM651 0 l-230 0 l-92 210 l-73 0 l0 -210 l-202 0 l0 667 l356 0 q113 0 176.5 -65.5 q63.5 -65.5 63.5 -163.5 q0 -78 -35.5 -128 q-35.5 -50 -84.5 -74 l121 -236 ZM379 386 q28 0 47 13.5 q19 13.5 19 39.5 q0 25 -19 38.5 q-19 13.5 -47 13.5 l-123 0 l0 -105 l123 0 Z" /><glyph glyph-name="racute" unicode="&#x155;" d="M418 700 l-155 -144 l-120 0 l120 144 l155 0 ZM230 0 l-180 0 l0 483 l180 0 l0 -53 q23 27 65.5 47 q42.5 20 82.5 20 l0 -172 q-15 5 -41 5 q-79 0 -107 -34 l0 -296 Z" /><glyph glyph-name="Rcommaaccent" unicode="&#x156;" d="M428 -139 q0 -99 -94 -165 l-55 44 q19 9 40.5 30.5 q21.5 21.5 27.5 42.5 q-5 -3 -19 -3 q-28 0 -46.5 19 q-18.5 19 -18.5 50 q0 33 23 56 q23 23 55 23 q36 0 61.5 -26 q25.5 -26 25.5 -71 ZM651 0 l-230 0 l-92 210 l-73 0 l0 -210 l-202 0 l0 667 l356 0 q113 0 176.5 -65.5 q63.5 -65.5 63.5 -163.5 q0 -78 -35.5 -128 q-35.5 -50 -84.5 -74 l121 -236 ZM379 386 q28 0 47 13.5 q19 13.5 19 39.5 q0 25 -19 38.5 q-19 13.5 -47 13.5 l-123 0 l0 -105 l123 0 Z" /><glyph glyph-name="rcommaaccent" unicode="&#x157;" d="M280 -139 q0 -99 -94 -165 l-55 44 q19 9 40.5 30.5 q21.5 21.5 27.5 42.5 q-5 -3 -19 -3 q-28 0 -46.5 19 q-18.5 19 -18.5 50 q0 33 23 56 q23 23 55 23 q36 0 61.5 -26 q25.5 -26 25.5 -71 ZM230 0 l-180 0 l0 483 l180 0 l0 -53 q23 27 65.5 47 q42.5 20 82.5 20 l0 -172 q-15 5 -41 5 q-79 0 -107 -34 l0 -296 Z" /><glyph glyph-name="Rcaron" unicode="&#x158;" d="M422 723 l-156 0 l-91 144 l105 0 l64 -73 l61 73 l105 0 l-88 -144 ZM651 0 l-230 0 l-92 210 l-73 0 l0 -210 l-202 0 l0 667 l356 0 q113 0 176.5 -65.5 q63.5 -65.5 63.5 -163.5 q0 -78 -35.5 -128 q-35.5 -50 -84.5 -74 l121 -236 ZM379 386 q28 0 47 13.5 q19 13.5 19 39.5 q0 25 -19 38.5 q-19 13.5 -47 13.5 l-123 0 l0 -105 l123 0 Z" /><glyph glyph-name="rcaron" unicode="&#x159;" d="M293 556 l-156 0 l-91 144 l105 0 l64 -73 l61 73 l105 0 l-88 -144 ZM230 0 l-180 0 l0 483 l180 0 l0 -53 q23 27 65.5 47 q42.5 20 82.5 20 l0 -172 q-15 5 -41 5 q-79 0 -107 -34 l0 -296 Z" /><glyph glyph-name="Sacute" unicode="&#x15a;" d="M513 867 l-155 -144 l-120 0 l120 144 l155 0 ZM313 -12 q-192 0 -310 106 l105 150 q90 -86 215 -86 q74 0 74 36 q0 17 -38.5 26 q-38.5 9 -93 19 q-54.5 10 -109 29 q-54.5 19 -93 67 q-38.5 48 -38.5 121 q0 91 73.5 156 q73.5 65 203.5 65 q169 0 283 -93 l-108 -143 q-87 66 -196 66 q-51 0 -51 -30 q0 -14 27.5 -24 q27.5 -10 68.5 -15.5 q41 -5.5 89.5 -20 q48.5 -14.5 89.5 -34.5 q41 -20 68.5 -62.5 q27.5 -42.5 27.5 -100.5 q0 -110 -76.5 -171 q-76.5 -61 -211.5 -61 Z" /><glyph glyph-name="sacute" unicode="&#x15b;" d="M451 700 l-155 -144 l-120 0 l120 144 l155 0 ZM246 -12 q-66 0 -132 20.5 q-66 20.5 -105 53.5 l72 121 q29 -23 82 -42 q53 -19 92 -19 q48 0 48 21 q0 10 -20.5 16 q-20.5 6 -50.5 8.5 q-30 2.5 -66 11.5 q-36 9 -66 23.5 q-30 14.5 -50.5 47.5 q-20.5 33 -20.5 80 q0 69 57.5 117 q57.5 48 158.5 48 q115 0 209 -62 l-66 -117 q-25 20 -63.5 35 q-38.5 15 -78.5 15 q-19 0 -32 -6.5 q-13 -6.5 -13 -14.5 q0 -10 28 -15 q28 -5 68.5 -12 q40.5 -7 81 -21 q40.5 -14 68.5 -50.5 q28 -36.5 28 -92.5 q0 -73 -62 -119.5 q-62 -46.5 -167 -46.5 Z" /><glyph glyph-name="Scircumflex" unicode="&#x15c;" d="M467 723 l-105 0 l-64 73 l-61 -73 l-105 0 l88 144 l156 0 l91 -144 ZM313 -12 q-192 0 -310 106 l105 150 q90 -86 215 -86 q74 0 74 36 q0 17 -38.5 26 q-38.5 9 -93 19 q-54.5 10 -109 29 q-54.5 19 -93 67 q-38.5 48 -38.5 121 q0 91 73.5 156 q73.5 65 203.5 65 q169 0 283 -93 l-108 -143 q-87 66 -196 66 q-51 0 -51 -30 q0 -14 27.5 -24 q27.5 -10 68.5 -15.5 q41 -5.5 89.5 -20 q48.5 -14.5 89.5 -34.5 q41 -20 68.5 -62.5 q27.5 -42.5 27.5 -100.5 q0 -110 -76.5 -171 q-76.5 -61 -211.5 -61 Z" /><glyph glyph-name="scircumflex" unicode="&#x15d;" d="M413 556 l-105 0 l-64 73 l-61 -73 l-105 0 l88 144 l156 0 l91 -144 ZM246 -12 q-66 0 -132 20.5 q-66 20.5 -105 53.5 l72 121 q29 -23 82 -42 q53 -19 92 -19 q48 0 48 21 q0 10 -20.5 16 q-20.5 6 -50.5 8.5 q-30 2.5 -66 11.5 q-36 9 -66 23.5 q-30 14.5 -50.5 47.5 q-20.5 33 -20.5 80 q0 69 57.5 117 q57.5 48 158.5 48 q115 0 209 -62 l-66 -117 q-25 20 -63.5 35 q-38.5 15 -78.5 15 q-19 0 -32 -6.5 q-13 -6.5 -13 -14.5 q0 -10 28 -15 q28 -5 68.5 -12 q40.5 -7 81 -21 q40.5 -14 68.5 -50.5 q28 -36.5 28 -92.5 q0 -73 -62 -119.5 q-62 -46.5 -167 -46.5 Z" /><glyph glyph-name="Scedilla" unicode="&#x15e;" d="M296 -200 q-77 0 -119 34 l31 64 q43 -30 83 -30 q42 0 42 24 q0 17 -21 17 q-16 0 -26 -12 l-59 34 l22 61 q-148 14 -246 102 l105 150 q90 -86 215 -86 q74 0 74 36 q0 17 -38.5 26 q-38.5 9 -93 19 q-54.5 10 -109 29 q-54.5 19 -93 67 q-38.5 48 -38.5 121 q0 91 73.5 156 q73.5 65 203.5 65 q169 0 283 -93 l-108 -143 q-87 66 -196 66 q-51 0 -51 -30 q0 -14 27.5 -24 q27.5 -10 68.5 -15.5 q41 -5.5 89.5 -20 q48.5 -14.5 89.5 -34.5 q41 -20 68.5 -62.5 q27.5 -42.5 27.5 -100.5 q0 -107 -72.5 -167.5 q-72.5 -60.5 -201.5 -64.5 l-15 -35 q15 9 34 9 q28 0 48 -20.5 q20 -20.5 20 -52.5 q0 -41 -34 -65 q-34 -24 -84 -24 Z" /><glyph glyph-name="scedilla" unicode="&#x15f;" d="M245 -200 q-77 0 -119 34 l31 64 q43 -30 83 -30 q42 0 42 24 q0 17 -21 17 q-16 0 -26 -12 l-59 34 l22 60 q-120 13 -189 71 l72 121 q29 -23 82 -42 q53 -19 92 -19 q48 0 48 21 q0 10 -20.5 16 q-20.5 6 -50.5 8.5 q-30 2.5 -66 11.5 q-36 9 -66 23.5 q-30 14.5 -50.5 47.5 q-20.5 33 -20.5 80 q0 69 57.5 117 q57.5 48 158.5 48 q115 0 209 -62 l-66 -117 q-25 20 -63.5 35 q-38.5 15 -78.5 15 q-19 0 -32 -6.5 q-13 -6.5 -13 -14.5 q0 -10 28 -15 q28 -5 68.5 -12 q40.5 -7 81 -21 q40.5 -14 68.5 -50.5 q28 -36.5 28 -92.5 q0 -68 -53 -113 q-53 -45 -146 -52 l-15 -36 q15 9 34 9 q28 0 48 -20.5 q20 -20.5 20 -52.5 q0 -41 -34 -65 q-34 -24 -84 -24 Z" /><glyph glyph-name="Scaron" unicode="&#x160;" d="M379 723 l-156 0 l-91 144 l105 0 l64 -73 l61 73 l105 0 l-88 -144 ZM313 -12 q-192 0 -310 106 l105 150 q90 -86 215 -86 q74 0 74 36 q0 17 -38.5 26 q-38.5 9 -93 19 q-54.5 10 -109 29 q-54.5 19 -93 67 q-38.5 48 -38.5 121 q0 91 73.5 156 q73.5 65 203.5 65 q169 0 283 -93 l-108 -143 q-87 66 -196 66 q-51 0 -51 -30 q0 -14 27.5 -24 q27.5 -10 68.5 -15.5 q41 -5.5 89.5 -20 q48.5 -14.5 89.5 -34.5 q41 -20 68.5 -62.5 q27.5 -42.5 27.5 -100.5 q0 -110 -76.5 -171 q-76.5 -61 -211.5 -61 Z" /><glyph glyph-name="scaron" unicode="&#x161;" d="M325 556 l-156 0 l-91 144 l105 0 l64 -73 l61 73 l105 0 l-88 -144 ZM246 -12 q-66 0 -132 20.5 q-66 20.5 -105 53.5 l72 121 q29 -23 82 -42 q53 -19 92 -19 q48 0 48 21 q0 10 -20.5 16 q-20.5 6 -50.5 8.5 q-30 2.5 -66 11.5 q-36 9 -66 23.5 q-30 14.5 -50.5 47.5 q-20.5 33 -20.5 80 q0 69 57.5 117 q57.5 48 158.5 48 q115 0 209 -62 l-66 -117 q-25 20 -63.5 35 q-38.5 15 -78.5 15 q-19 0 -32 -6.5 q-13 -6.5 -13 -14.5 q0 -10 28 -15 q28 -5 68.5 -12 q40.5 -7 81 -21 q40.5 -14 68.5 -50.5 q28 -36.5 28 -92.5 q0 -73 -62 -119.5 q-62 -46.5 -167 -46.5 Z" /><glyph glyph-name="Tcommaaccent" unicode="&#x162;" d="M383 -139 q0 -99 -94 -165 l-55 44 q19 9 40.5 30.5 q21.5 21.5 27.5 42.5 q-4 -3 -19 -3 q-28 0 -46.5 19 q-18.5 19 -18.5 50 q0 33 23 56 q23 23 55 23 q36 0 61.5 -26 q25.5 -26 25.5 -71 ZM399 0 l-202 0 l0 491 l-179 0 l0 176 l559 0 l0 -176 l-178 0 l0 -491 Z" /><glyph glyph-name="tcommaaccent" unicode="&#x163;" d="M276 -139 q0 -99 -94 -165 l-55 44 q19 9 40.5 30.5 q21.5 21.5 27.5 42.5 q-5 -3 -19 -3 q-28 0 -46.5 19 q-18.5 19 -18.5 50 q0 33 23 56 q23 23 55 23 q36 0 61.5 -26 q25.5 -26 25.5 -71 ZM253 -12 q-81 0 -123.5 38.5 q-42.5 38.5 -42.5 113.5 l0 187 l-80 0 l0 156 l80 0 l0 132 l180 0 l0 -132 l98 0 l0 -156 l-98 0 l0 -135 q0 -19 11 -32 q11 -13 29 -13 q27 0 36 9 l32 -136 q-36 -32 -122 -32 Z" /><glyph glyph-name="Tcaron" unicode="&#x164;" d="M377 723 l-156 0 l-91 144 l105 0 l64 -73 l61 73 l105 0 l-88 -144 ZM399 0 l-202 0 l0 491 l-179 0 l0 176 l559 0 l0 -176 l-178 0 l0 -491 Z" /><glyph glyph-name="tcaron" unicode="&#x165;" d="M478 688 q0 -99 -94 -165 l-55 44 q19 9 40.5 30.5 q21.5 21.5 27.5 42.5 q-5 -3 -19 -3 q-28 0 -46.5 19 q-18.5 19 -18.5 50 q0 33 23 56 q23 23 55 23 q36 0 61.5 -26 q25.5 -26 25.5 -71 ZM253 -12 q-81 0 -123.5 38.5 q-42.5 38.5 -42.5 113.5 l0 187 l-80 0 l0 156 l80 0 l0 132 l180 0 l0 -132 l98 0 l0 -156 l-98 0 l0 -135 q0 -19 11 -32 q11 -13 29 -13 q27 0 36 9 l32 -136 q-36 -32 -122 -32 Z" /><glyph glyph-name="Tbar" unicode="&#x166;" d="M399 0 l-202 0 l0 231 l-116 0 l0 97 l116 0 l0 163 l-179 0 l0 176 l559 0 l0 -176 l-178 0 l0 -163 l118 0 l0 -97 l-118 0 l0 -231 Z" /><glyph glyph-name="tbar" unicode="&#x167;" d="M253 -12 q-81 0 -123.5 38.5 q-42.5 38.5 -42.5 113.5 l0 51 l-80 0 l0 97 l80 0 l0 39 l-80 0 l0 156 l80 0 l0 132 l180 0 l0 -132 l98 0 l0 -156 l-98 0 l0 -39 l67 0 l0 -97 l-67 0 q0 -19 11 -31.5 q11 -12.5 29 -12.5 q27 0 36 9 l32 -136 q-36 -32 -122 -32 Z" /><glyph glyph-name="Utilde" unicode="&#x168;" d="M630 66.5 q-83 -78.5 -246 -78.5 q-163 0 -246.5 78.5 q-83.5 78.5 -83.5 207.5 l0 393 l205 0 l0 -386 q0 -50 32.5 -82.5 q32.5 -32.5 92.5 -32.5 q59 0 91.5 32.5 q32.5 32.5 32.5 82.5 l0 386 l205 0 l0 -392 q0 -130 -83 -208.5 ZM438 721 q-35 0 -68 21.5 q-33 21.5 -42 21.5 q-24 0 -24 -37 l-89 0 q0 134 118 134 q35 0 68 -21.5 q33 -21.5 42 -21.5 q24 0 24 37 l89 0 q0 -134 -118 -134 Z" /><glyph glyph-name="utilde" unicode="&#x169;" d="M556 0 l-180 0 l0 54 q-60 -66 -166 -66 q-80 0 -120 42 q-40 42 -40 108 l0 345 l180 0 l0 -268 q0 -68 70 -68 q42 0 76 38 l0 298 l180 0 l0 -483 ZM356 554 q-35 0 -68 21.5 q-33 21.5 -42 21.5 q-24 0 -24 -37 l-89 0 q0 134 118 134 q35 0 68 -21.5 q33 -21.5 42 -21.5 q24 0 24 37 l89 0 q0 -134 -118 -134 Z" /><glyph glyph-name="Umacron" unicode="&#x16a;" d="M630 66.5 q-83 -78.5 -246 -78.5 q-163 0 -246.5 78.5 q-83.5 78.5 -83.5 207.5 l0 393 l205 0 l0 -386 q0 -50 32.5 -82.5 q32.5 -32.5 92.5 -32.5 q59 0 91.5 32.5 q32.5 32.5 32.5 82.5 l0 386 l205 0 l0 -392 q0 -130 -83 -208.5 ZM568 718 l-363 0 l0 97 l363 0 l0 -97 Z" /><glyph glyph-name="umacron" unicode="&#x16b;" d="M556 0 l-180 0 l0 54 q-60 -66 -166 -66 q-80 0 -120 42 q-40 42 -40 108 l0 345 l180 0 l0 -268 q0 -68 70 -68 q42 0 76 38 l0 298 l180 0 l0 -483 ZM484 551 l-363 0 l0 97 l363 0 l0 -97 Z" /><glyph glyph-name="Ubreve" unicode="&#x16c;" d="M630 66.5 q-83 -78.5 -246 -78.5 q-163 0 -246.5 78.5 q-83.5 78.5 -83.5 207.5 l0 393 l205 0 l0 -386 q0 -50 32.5 -82.5 q32.5 -32.5 92.5 -32.5 q59 0 91.5 32.5 q32.5 32.5 32.5 82.5 l0 386 l205 0 l0 -392 q0 -130 -83 -208.5 ZM561 779 q-65 -88 -175 -88 q-109 0 -176 88 l76 62 q38 -53 100 -53 q63 0 100 53 l75 -62 Z" /><glyph glyph-name="ubreve" unicode="&#x16d;" d="M556 0 l-180 0 l0 54 q-60 -66 -166 -66 q-80 0 -120 42 q-40 42 -40 108 l0 345 l180 0 l0 -268 q0 -68 70 -68 q42 0 76 38 l0 298 l180 0 l0 -483 ZM481 612 q-65 -88 -175 -88 q-109 0 -176 88 l76 62 q38 -53 100 -53 q63 0 100 53 l75 -62 Z" /><glyph glyph-name="Uring" unicode="&#x16e;" d="M465 719 q-32 -33 -78 -33 q-46 0 -79 33 q-33 33 -33 79 q0 46 33 79 q33 33 79 33 q46 0 78 -33 q32 -33 32 -79 q0 -46 -32 -79 ZM362.5 773.5 q10.5 -10.5 24.5 -10.5 q14 0 24 10.5 q10 10.5 10 24.5 q0 14 -10 24.5 q-10 10.5 -24 10.5 q-14 0 -24.5 -10.5 q-10.5 -10.5 -10.5 -24.5 q0 -14 10.5 -24.5 ZM630 66.5 q-83 -78.5 -246 -78.5 q-163 0 -246.5 78.5 q-83.5 78.5 -83.5 207.5 l0 393 l205 0 l0 -386 q0 -50 32.5 -82.5 q32.5 -32.5 92.5 -32.5 q59 0 91.5 32.5 q32.5 32.5 32.5 82.5 l0 386 l205 0 l0 -392 q0 -130 -83 -208.5 Z" /><glyph glyph-name="uring" unicode="&#x16f;" d="M382 552 q-32 -33 -78 -33 q-46 0 -79 33 q-33 33 -33 79 q0 46 33 79 q33 33 79 33 q46 0 78 -33 q32 -33 32 -79 q0 -46 -32 -79 ZM279.5 606.5 q10.5 -10.5 24.5 -10.5 q14 0 24 10.5 q10 10.5 10 24.5 q0 14 -10 24.5 q-10 10.5 -24 10.5 q-14 0 -24.5 -10.5 q-10.5 -10.5 -10.5 -24.5 q0 -14 10.5 -24.5 ZM556 0 l-180 0 l0 54 q-60 -66 -166 -66 q-80 0 -120 42 q-40 42 -40 108 l0 345 l180 0 l0 -268 q0 -68 70 -68 q42 0 76 38 l0 298 l180 0 l0 -483 Z" /><glyph glyph-name="Uhungarumlaut" unicode="&#x170;" d="M630 66.5 q-83 -78.5 -246 -78.5 q-163 0 -246.5 78.5 q-83.5 78.5 -83.5 207.5 l0 393 l205 0 l0 -386 q0 -50 32.5 -82.5 q32.5 -32.5 92.5 -32.5 q59 0 91.5 32.5 q32.5 32.5 32.5 82.5 l0 386 l205 0 l0 -392 q0 -130 -83 -208.5 ZM466 867 l-115 -144 l-100 0 l80 144 l135 0 ZM622 867 l-115 -144 l-100 0 l80 144 l135 0 Z" /><glyph glyph-name="uhungarumlaut" unicode="&#x171;" d="M556 0 l-180 0 l0 54 q-60 -66 -166 -66 q-80 0 -120 42 q-40 42 -40 108 l0 345 l180 0 l0 -268 q0 -68 70 -68 q42 0 76 38 l0 298 l180 0 l0 -483 ZM382 700 l-115 -144 l-100 0 l80 144 l135 0 ZM538 700 l-115 -144 l-100 0 l80 144 l135 0 Z" /><glyph glyph-name="Uogonek" unicode="&#x172;" d="M496 -90 l66 -43 q-35 -53 -101 -53 q-47 0 -78.5 23.5 q-31.5 23.5 -31.5 70.5 q0 44 28 80 q-161 1 -243 79 q-82 78 -82 207 l0 393 l205 0 l0 -386 q0 -50 32.5 -82.5 q32.5 -32.5 92.5 -32.5 q59 0 91.5 32.5 q32.5 32.5 32.5 82.5 l0 386 l205 0 l0 -392 q0 -105 -54.5 -177.5 q-54.5 -72.5 -161.5 -97.5 q-65 -33 -65 -84 q0 -34 29 -34 q24 0 35 28 Z" /><glyph glyph-name="uogonek" unicode="&#x173;" d="M556 0 q-65 -33 -65 -84 q0 -34 29 -34 q24 0 35 28 l66 -43 q-35 -53 -101 -53 q-47 0 -78.5 23.5 q-31.5 23.5 -31.5 70.5 q0 53 39 92 l-73 0 l0 54 q-60 -66 -166 -66 q-80 0 -120 42 q-40 42 -40 108 l0 345 l180 0 l0 -268 q0 -68 70 -68 q42 0 76 38 l0 298 l180 0 l0 -483 Z" /><glyph glyph-name="Wcircumflex" unicode="&#x174;" d="M645 723 l-105 0 l-64 73 l-61 -73 l-105 0 l88 144 l156 0 l91 -144 ZM775 0 l-212 0 l-86 378 l-86 -378 l-212 0 l-191 667 l226 0 l86 -408 l101 408 l152 0 l101 -408 l85 408 l227 0 l-191 -667 Z" /><glyph glyph-name="wcircumflex" unicode="&#x175;" d="M570 556 l-105 0 l-64 73 l-61 -73 l-105 0 l88 144 l156 0 l91 -144 ZM677 0 l-196 0 l-79 270 l-78 -270 l-196 0 l-140 483 l185 0 l64 -266 l85 266 l161 0 l84 -266 l64 266 l186 0 l-140 -483 Z" /><glyph glyph-name="Ycircumflex" unicode="&#x176;" d="M502 723 l-105 0 l-64 73 l-61 -73 l-105 0 l88 144 l156 0 l91 -144 ZM434 0 l-202 0 l0 265 l-250 402 l227 0 l124 -225 l122 225 l227 0 l-248 -402 l0 -265 Z" /><glyph glyph-name="ycircumflex" unicode="&#x177;" d="M45 -188 l25 160 q16 -9 38 -9 q54 0 63 19 l4 10 l-190 491 l190 0 l92 -276 l93 276 l190 0 l-210 -543 q-30 -78 -84 -105.5 q-54 -27.5 -141 -30.5 q-43 0 -70 8 ZM435 556 l-105 0 l-64 73 l-61 -73 l-105 0 l88 144 l156 0 l91 -144 Z" /><glyph glyph-name="Ydieresis" unicode="&#x178;" d="M505 848 q26 -26 26 -63 q0 -37 -26 -63 q-26 -26 -64 -26 q-37 0 -63 26 q-26 26 -26 63 q0 37 26 63 q26 26 63 26 q38 0 64 -26 ZM288 848 q26 -26 26 -63 q0 -37 -26 -63 q-26 -26 -63 -26 q-37 0 -63 26 q-26 26 -26 63 q0 37 26 63 q26 26 63 26 q37 0 63 -26 ZM434 0 l-202 0 l0 265 l-250 402 l227 0 l124 -225 l122 225 l227 0 l-248 -402 l0 -265 Z" /><glyph glyph-name="Zacute" unicode="&#x179;" d="M455 867 l-155 -144 l-120 0 l120 144 l155 0 ZM564 0 l-528 0 l0 160 l254 331 l-254 0 l0 176 l521 0 l0 -159 l-255 -332 l262 0 l0 -176 Z" /><glyph glyph-name="zacute" unicode="&#x17a;" d="M449 700 l-155 -144 l-120 0 l120 144 l155 0 ZM453 0 l-420 0 l0 132 l170 195 l-170 0 l0 156 l416 0 l0 -126 l-174 -201 l178 0 l0 -156 Z" /><glyph glyph-name="Zdotaccent" unicode="&#x17b;" d="M564 0 l-528 0 l0 160 l254 331 l-254 0 l0 176 l521 0 l0 -159 l-255 -332 l262 0 l0 -176 ZM292 697 q-37 0 -63 26 q-26 26 -26 63 q0 37 26 63 q26 26 63 26 q36 0 62 -26 q26 -26 26 -63 q0 -37 -26 -63 q-26 -26 -62 -26 Z" /><glyph glyph-name="zdotaccent" unicode="&#x17c;" d="M453 0 l-420 0 l0 132 l170 195 l-170 0 l0 156 l416 0 l0 -126 l-174 -201 l178 0 l0 -156 ZM241 530 q-37 0 -63 26 q-26 26 -26 63 q0 37 26 63 q26 26 63 26 q36 0 62 -26 q26 -26 26 -63 q0 -37 -26 -63 q-26 -26 -62 -26 Z" /><glyph glyph-name="Zcaron" unicode="&#x17d;" d="M380 723 l-156 0 l-91 144 l105 0 l64 -73 l61 73 l105 0 l-88 -144 ZM564 0 l-528 0 l0 160 l254 331 l-254 0 l0 176 l521 0 l0 -159 l-255 -332 l262 0 l0 -176 Z" /><glyph glyph-name="zcaron" unicode="&#x17e;" d="M317 556 l-156 0 l-91 144 l105 0 l64 -73 l61 73 l105 0 l-88 -144 ZM453 0 l-420 0 l0 132 l170 195 l-170 0 l0 156 l416 0 l0 -126 l-174 -201 l178 0 l0 -156 Z" /><glyph glyph-name="longs" unicode="&#x17f;" d="M267 0 l-180 0 l0 327 l-80 0 l0 156 l80 0 l0 22 q0 76 52 124 q52 48 132 48 q102 0 151 -52 l-65 -100 q-16 19 -47 19 q-16 0 -29.5 -11 q-13.5 -11 -13.5 -28 l0 -505 Z" /><glyph glyph-name="florin" unicode="&#x192;" d="M196 -161 l-206 0 l85 384 l-40 0 l0 156 l74 0 l28 127 q16 75 79 123 q63 48 143 48 q95 0 141 -49 l-71 -147 q-15 20 -43 20 q-18 0 -32.5 -11 q-14.5 -11 -19.5 -31 l-18 -80 l87 0 l0 -156 l-121 0 l-86 -384 Z" /><glyph glyph-name="Ohorn" unicode="&#x1a0;" d="M643.5 84.5 q-104.5 -96.5 -260.5 -96.5 q-156 0 -260.5 96.5 q-104.5 96.5 -104.5 248.5 q0 152 104.5 248.5 q104.5 96.5 260.5 96.5 q166 0 270 -106 q31 24 42 53 q-5 -3 -17 -3 q-24 0 -40.5 17 q-16.5 17 -16.5 44 q0 28 20 48.5 q20 20.5 48 20.5 q32 0 54 -23 q22 -23 22 -62 q0 -83 -75 -139 q58 -85 58 -195 q0 -152 -104.5 -248.5 ZM267.5 214 q44.5 -48 115.5 -48 q71 0 115.5 48 q44.5 48 44.5 119 q0 71 -44.5 119 q-44.5 48 -115.5 48 q-71 0 -115.5 -48 q-44.5 -48 -44.5 -119 q0 -71 44.5 -119 Z" /><glyph glyph-name="ohorn" unicode="&#x1a1;" d="M577 534 q0 -78 -71 -136 q54 -68 54 -156 q0 -106 -74 -180 q-74 -74 -198 -74 q-124 0 -197.5 74 q-73.5 74 -73.5 180 q0 106 73.5 179.5 q73.5 73.5 197.5 73.5 q104 0 177 -55 q32 24 42 52 q-5 -3 -17 -3 q-24 0 -40.5 17 q-16.5 17 -16.5 44 q0 28 20 48.5 q20 20.5 48 20.5 q32 0 54 -23 q22 -23 22 -62 ZM288 147 q41 0 64 26.5 q23 26.5 23 68.5 q0 41 -23 67.5 q-23 26.5 -64 26.5 q-40 0 -63 -26.5 q-23 -26.5 -23 -67.5 q0 -42 23 -68.5 q23 -26.5 63 -26.5 Z" /><glyph glyph-name="Uhorn" unicode="&#x1af;" d="M817 725 q0 -44 -26.5 -87.5 q-26.5 -43.5 -77.5 -70.5 l0 -292 q0 -130 -83 -208.5 q-83 -78.5 -246 -78.5 q-163 0 -246.5 78.5 q-83.5 78.5 -83.5 207.5 l0 393 l205 0 l0 -386 q0 -50 32.5 -82.5 q32.5 -32.5 92.5 -32.5 q59 0 91.5 32.5 q32.5 32.5 32.5 82.5 l0 386 l205 0 l0 -30 q26 24 34 46 q-5 -3 -17 -3 q-24 0 -40.5 17 q-16.5 17 -16.5 44 q0 28 20 48.5 q20 20.5 48 20.5 q32 0 54 -23 q22 -23 22 -62 Z" /><glyph glyph-name="uhorn" unicode="&#x1b0;" d="M556 0 l-180 0 l0 54 q-60 -66 -166 -66 q-80 0 -120 42 q-40 42 -40 108 l0 345 l180 0 l0 -268 q0 -68 70 -68 q42 0 76 38 l0 298 l163 0 q12 13 18 29 q-5 -3 -17 -3 q-24 0 -40.5 17 q-16.5 17 -16.5 44 q0 28 20 48.5 q20 20.5 48 20.5 q32 0 54 -23 q22 -23 22 -62 q0 -80 -71 -137 l0 -417 Z" /><glyph glyph-name="AEacute" unicode="&#x1fc;" d="M760 867 l-155 -144 l-120 0 l120 144 l155 0 ZM959 0 l-506 0 l0 78 l-207 0 l-41 -78 l-230 0 l395 667 l589 0 l0 -176 l-304 0 l0 -66 l297 0 l0 -176 l-297 0 l0 -73 l304 0 l0 -176 ZM453 254 l0 215 l-113 -215 l113 0 Z" /><glyph glyph-name="aeacute" unicode="&#x1fd;" d="M628 700 l-155 -144 l-120 0 l120 144 l155 0 ZM839 186 l-319 0 q27 -57 104 -57 q59 0 98 34 l78 -115 q-34 -29 -89.5 -44.5 q-55.5 -15.5 -107.5 -15.5 q-106 0 -175 65 q-77 -65 -198 -65 q-94 0 -153.5 39 q-59.5 39 -59.5 117 q0 77 48 117 q48 40 121 40 q47 0 89 -14 q42 -14 63 -38 l0 49 q0 26 -24.5 42.5 q-24.5 16.5 -69.5 16.5 q-76 0 -139 -47 l-61 112 q91 73 228 73 q104 0 156 -59 q66 59 170 59 q102 0 171.5 -74 q69.5 -74 69.5 -198 l0 -37 ZM518 300 l150 0 q-14 58 -76 58 q-59 0 -74 -58 ZM338 154 l0 3 q-21 27 -76 27 q-27 0 -47 -9 q-20 -9 -20 -26 q0 -17 17.5 -25.5 q17.5 -8.5 38.5 -8.5 q35 0 61 12.5 q26 12.5 26 26.5 Z" /><glyph glyph-name="Oslashacute" unicode="&#x1fe;" d="M587 867 l-155 -144 l-120 0 l120 144 l155 0 ZM383 -12 q-110 0 -196 49 l-31 -37 l-138 0 l87 102 q-87 93 -87 231 q0 152 104.5 248.5 q104.5 96.5 260.5 96.5 q93 0 178 -40 l25 29 l138 0 l-76 -90 q100 -97 100 -244 q0 -152 -104.5 -248.5 q-104.5 -96.5 -260.5 -96.5 ZM383 166 q71 0 115.5 48 q44.5 48 44.5 119 q0 51 -25 92 l-207 -243 q34 -16 72 -16 ZM223 333 q0 -42 15 -75 l198 233 q-24 9 -53 9 q-71 0 -115.5 -48 q-44.5 -48 -44.5 -119 Z" /><glyph glyph-name="oslashacute" unicode="&#x1ff;" d="M493 700 l-155 -144 l-120 0 l120 144 l155 0 ZM119 0 l-102 0 l64 71 q-64 70 -64 171 q0 106 73.5 179.5 q73.5 73.5 197.5 73.5 q82 0 146 -35 l21 23 l105 0 l-65 -71 q65 -71 65 -170 q0 -106 -74 -180 q-74 -74 -198 -74 q-84 0 -147 36 l-22 -24 ZM288 147 q41 0 64 26.5 q23 26.5 23 68.5 q0 16 -5 33 l-113 -123 q15 -5 31 -5 ZM202 242 q0 -20 4 -33 l111 123 q-12 4 -29 4 q-40 0 -63 -26.5 q-23 -26.5 -23 -67.5 Z" /><glyph glyph-name="Scommaaccent" unicode="&#x218;" d="M389 -139 q0 -99 -94 -165 l-55 44 q19 9 40.5 30.5 q21.5 21.5 27.5 42.5 q-4 -3 -19 -3 q-28 0 -46.5 19 q-18.5 19 -18.5 50 q0 33 23 56 q23 23 55 23 q36 0 61.5 -26 q25.5 -26 25.5 -71 ZM313 -12 q-192 0 -310 106 l105 150 q90 -86 215 -86 q74 0 74 36 q0 17 -38.5 26 q-38.5 9 -93 19 q-54.5 10 -109 29 q-54.5 19 -93 67 q-38.5 48 -38.5 121 q0 91 73.5 156 q73.5 65 203.5 65 q169 0 283 -93 l-108 -143 q-87 66 -196 66 q-51 0 -51 -30 q0 -14 27.5 -24 q27.5 -10 68.5 -15.5 q41 -5.5 89.5 -20 q48.5 -14.5 89.5 -34.5 q41 -20 68.5 -62.5 q27.5 -42.5 27.5 -100.5 q0 -110 -76.5 -171 q-76.5 -61 -211.5 -61 Z" /><glyph glyph-name="scommaaccent" unicode="&#x219;" d="M336 -139 q0 -99 -94 -165 l-55 44 q19 9 40.5 30.5 q21.5 21.5 27.5 42.5 q-5 -3 -19 -3 q-28 0 -46.5 19 q-18.5 19 -18.5 50 q0 33 23 56 q23 23 55 23 q36 0 61.5 -26 q25.5 -26 25.5 -71 ZM246 -12 q-66 0 -132 20.5 q-66 20.5 -105 53.5 l72 121 q29 -23 82 -42 q53 -19 92 -19 q48 0 48 21 q0 10 -20.5 16 q-20.5 6 -50.5 8.5 q-30 2.5 -66 11.5 q-36 9 -66 23.5 q-30 14.5 -50.5 47.5 q-20.5 33 -20.5 80 q0 69 57.5 117 q57.5 48 158.5 48 q115 0 209 -62 l-66 -117 q-25 20 -63.5 35 q-38.5 15 -78.5 15 q-19 0 -32 -6.5 q-13 -6.5 -13 -14.5 q0 -10 28 -15 q28 -5 68.5 -12 q40.5 -7 81 -21 q40.5 -14 68.5 -50.5 q28 -36.5 28 -92.5 q0 -73 -62 -119.5 q-62 -46.5 -167 -46.5 Z" /><glyph glyph-name="uni021A" unicode="&#x21a;" d="M383 -139 q0 -99 -94 -165 l-55 44 q19 9 40.5 30.5 q21.5 21.5 27.5 42.5 q-4 -3 -19 -3 q-28 0 -46.5 19 q-18.5 19 -18.5 50 q0 33 23 56 q23 23 55 23 q36 0 61.5 -26 q25.5 -26 25.5 -71 ZM399 0 l-202 0 l0 491 l-179 0 l0 176 l559 0 l0 -176 l-178 0 l0 -491 Z" /><glyph glyph-name="uni021B" unicode="&#x21b;" d="M276 -139 q0 -99 -94 -165 l-55 44 q19 9 40.5 30.5 q21.5 21.5 27.5 42.5 q-5 -3 -19 -3 q-28 0 -46.5 19 q-18.5 19 -18.5 50 q0 33 23 56 q23 23 55 23 q36 0 61.5 -26 q25.5 -26 25.5 -71 ZM253 -12 q-81 0 -123.5 38.5 q-42.5 38.5 -42.5 113.5 l0 187 l-80 0 l0 156 l80 0 l0 132 l180 0 l0 -132 l98 0 l0 -156 l-98 0 l0 -135 q0 -19 11 -32 q11 -13 29 -13 q27 0 36 9 l32 -136 q-36 -32 -122 -32 Z" /><glyph glyph-name="uni0237" unicode="&#x237;" d="M29 -196 q-52 0 -78 7 q-26 7 -57 26 l43 145 q25 -19 60 -19 q24 0 38.5 16 q14.5 16 14.5 42 l0 462 l180 0 l0 -462 q0 -98 -50 -157.5 q-50 -59.5 -151 -59.5 Z" /><glyph glyph-name="hsuperior" unicode="&#x2b0;" d="M384 326 l-127 0 l0 174 q0 41 -45 41 q-25 0 -46 -21 l0 -194 l-126 0 l0 434 l126 0 l0 -154 q38 42 110 42 q54 0 81 -28 q27 -28 27 -72 l0 -222 Z" /><glyph glyph-name="uni02BC" unicode="&#x2bc;" d="M254 548 q0 -132 -125 -220 l-73 59 q25 11 53.5 40 q28.5 29 37.5 56 q-10 -4 -26 -4 q-37 0 -62 26 q-25 26 -25 67 q0 43 31 74 q31 31 73 31 q48 0 82 -35 q34 -35 34 -94 Z" /><glyph glyph-name="circumflex" unicode="&#x2c6;" d="M335 556 l-105 0 l-64 73 l-61 -73 l-105 0 l88 144 l156 0 l91 -144 Z" /><glyph glyph-name="caron" unicode="&#x2c7;" d="M247 556 l-156 0 l-91 144 l105 0 l64 -73 l61 73 l105 0 l-88 -144 Z" /><glyph glyph-name="uni02C9" unicode="&#x2c9;" d="M363 591 l-363 0 l0 97 l363 0 l0 -97 Z" /><glyph glyph-name="uni02CB" unicode="&#x2cb;" d="M275 556 l-120 0 l-155 144 l155 0 l120 -144 Z" /><glyph glyph-name="breve" unicode="&#x2d8;" d="M351 612 q-65 -88 -175 -88 q-109 0 -176 88 l76 62 q38 -53 100 -53 q63 0 100 53 l75 -62 Z" /><glyph glyph-name="dotaccent" unicode="&#x2d9;" d="M119 530 q-37 0 -63 26 q-26 26 -26 63 q0 37 26 63 q26 26 63 26 q36 0 62 -26 q26 -26 26 -63 q0 -37 -26 -63 q-26 -26 -62 -26 Z" /><glyph glyph-name="ring" unicode="&#x2da;" d="M190 552 q-32 -33 -78 -33 q-46 0 -79 33 q-33 33 -33 79 q0 46 33 79 q33 33 79 33 q46 0 78 -33 q32 -33 32 -79 q0 -46 -32 -79 ZM87.5 606.5 q10.5 -10.5 24.5 -10.5 q14 0 24 10.5 q10 10.5 10 24.5 q0 14 -10 24.5 q-10 10.5 -24 10.5 q-14 0 -24.5 -10.5 q-10.5 -10.5 -10.5 -24.5 q0 -14 10.5 -24.5 Z" /><glyph glyph-name="ogonek" unicode="&#x2db;" d="M145 -90 l66 -43 q-35 -53 -101 -53 q-47 0 -78.5 23.5 q-31.5 23.5 -31.5 70.5 q0 78 89 129 l57 -37 q-65 -33 -65 -84 q0 -34 29 -34 q24 0 35 28 Z" /><glyph glyph-name="tilde" unicode="&#x2dc;" d="M223 554 q-35 0 -68 21.5 q-33 21.5 -42 21.5 q-24 0 -24 -37 l-89 0 q0 134 118 134 q35 0 68 -21.5 q33 -21.5 42 -21.5 q24 0 24 37 l89 0 q0 -134 -118 -134 Z" /><glyph glyph-name="hungarumlaut" unicode="&#x2dd;" d="M215 700 l-115 -144 l-100 0 l80 144 l135 0 ZM371 700 l-115 -144 l-100 0 l80 144 l135 0 Z" /><glyph glyph-name="hookabovecomb" unicode="&#x309;" d="M73 713 l-58 19 q20 58 86 58 q38 0 63 -19 q25 -19 25 -56 q0 -22 -12 -48 l-70 0 q17 18 17 44 q0 25 -23 25 q-18 0 -28 -23 Z" /><glyph glyph-name="uni037E" unicode="&#x37e;" d="M216 308 q-32 -32 -75 -32 q-43 0 -75 32 q-32 32 -32 76 q0 43 31.5 74.5 q31.5 31.5 75.5 31.5 q44 0 75.5 -31.5 q31.5 -31.5 31.5 -74.5 q0 -44 -32 -76 ZM254 74 q0 -132 -125 -220 l-73 59 q25 11 53.5 40 q28.5 29 37.5 56 q-10 -4 -26 -4 q-37 0 -62 26 q-25 26 -25 67 q0 43 31 74 q31 31 73 31 q48 0 82 -35 q34 -35 34 -94 Z" /><glyph glyph-name="tonos" unicode="&#x384;" d="M193 541 l-74 0 l22 224 l134 0 l-82 -224 Z" /><glyph glyph-name="dieresistonos" unicode="&#x385;" d="M319 541 l-75 0 l22 224 l135 0 l-82 -224 ZM532 681 q26 -26 26 -63 q0 -37 -26 -63 q-26 -26 -64 -26 q-37 0 -63 26 q-26 26 -26 63 q0 37 26 63 q26 26 63 26 q38 0 64 -26 ZM200 681.5 q26 -25.5 26 -63.5 q0 -38 -26 -63.5 q-26 -25.5 -63 -25.5 q-37 0 -63 25.5 q-26 25.5 -26 63.5 q0 38 26 63.5 q26 25.5 63 25.5 q37 0 63 -25.5 Z" /><glyph glyph-name="Alphatonos" unicode="&#x386;" d="M148 541 l-74 0 l22 224 l134 0 l-82 -224 ZM728 0 l-229 0 l-24 78 l-240 0 l-24 -78 l-229 0 l246 667 l254 0 l246 -667 ZM421 254 l-66 215 l-66 -215 l132 0 Z" /><glyph glyph-name="Epsilontonos" unicode="&#x388;" d="M52 541 l-74 0 l22 224 l134 0 l-82 -224 ZM616 0 l-506 0 l0 667 l506 0 l0 -176 l-304 0 l0 -66 l297 0 l0 -176 l-297 0 l0 -73 l304 0 l0 -176 Z" /><glyph glyph-name="Etatonos" unicode="&#x389;" d="M52 541 l-74 0 l22 224 l134 0 l-82 -224 ZM753 0 l-202 0 l0 255 l-239 0 l0 -255 l-202 0 l0 667 l202 0 l0 -236 l239 0 l0 236 l202 0 l0 -667 Z" /><glyph glyph-name="Iotatonos" unicode="&#x38a;" d="M52 541 l-74 0 l22 224 l134 0 l-82 -224 ZM312 0 l-202 0 l0 667 l202 0 l0 -667 Z" /><glyph glyph-name="Omicrontonos" unicode="&#x38c;" d="M52 541 l-74 0 l22 224 l134 0 l-82 -224 ZM643.5 84.5 q-104.5 -96.5 -260.5 -96.5 q-156 0 -260.5 96.5 q-104.5 96.5 -104.5 248.5 q0 152 104.5 248.5 q104.5 96.5 260.5 96.5 q156 0 260.5 -96.5 q104.5 -96.5 104.5 -248.5 q0 -152 -104.5 -248.5 ZM267.5 214 q44.5 -48 115.5 -48 q71 0 115.5 48 q44.5 48 44.5 119 q0 71 -44.5 119 q-44.5 48 -115.5 48 q-71 0 -115.5 -48 q-44.5 -48 -44.5 -119 q0 -71 44.5 -119 Z" /><glyph glyph-name="Upsilontonos" unicode="&#x38e;" d="M52 541 l-74 0 l22 224 l134 0 l-82 -224 ZM545 0 l-202 0 l0 265 l-250 402 l227 0 l124 -225 l122 225 l227 0 l-248 -402 l0 -265 Z" /><glyph glyph-name="Omegatonos" unicode="&#x38f;" d="M52 541 l-74 0 l22 224 l134 0 l-82 -224 ZM49 176 l103 0 q-120 93 -120 207 q0 138 103 216.5 q103 78.5 262 78.5 q160 0 262.5 -78.5 q102.5 -78.5 102.5 -216.5 q0 -114 -119 -207 l102 0 l0 -176 l-298 0 l0 176 q55 17 82.5 62.5 q27.5 45.5 27.5 96.5 q0 27 -8 53.5 q-8 26.5 -25 52.5 q-17 26 -50 42 q-33 16 -77 16 q-44 0 -77 -16 q-33 -16 -50 -42 q-17 -26 -25 -52.5 q-8 -26.5 -8 -53.5 q0 -51 27.5 -96.5 q27.5 -45.5 82.5 -62.5 l0 -176 l-298 0 l0 176 Z" /><glyph glyph-name="iotadieresistonos" unicode="&#x390;" d="M163 541 l-75 0 l22 224 l135 0 l-82 -224 ZM376 681 q26 -26 26 -63 q0 -37 -26 -63 q-26 -26 -64 -26 q-37 0 -63 26 q-26 26 -26 63 q0 37 26 63 q26 26 63 26 q38 0 64 -26 ZM44 681.5 q26 -25.5 26 -63.5 q0 -38 -26 -63.5 q-26 -25.5 -63 -25.5 q-37 0 -63 25.5 q-26 25.5 -26 63.5 q0 38 26 63.5 q26 25.5 63 25.5 q37 0 63 -25.5 ZM216 -12 q-81 0 -123.5 38.5 q-42.5 38.5 -42.5 113.5 l0 343 l180 0 l0 -305 q0 -15 10 -23 q10 -8 24 -8 q10 0 19 3 l11 -152 q-33 -10 -78 -10 Z" /><glyph glyph-name="Alpha" unicode="&#x391;" d="M728 0 l-229 0 l-24 78 l-240 0 l-24 -78 l-229 0 l246 667 l254 0 l246 -667 ZM421 254 l-66 215 l-66 -215 l132 0 Z" /><glyph glyph-name="Beta" unicode="&#x392;" d="M473 0 l-419 0 l0 667 l405 0 q96 0 147 -52 q51 -52 51 -118 q0 -61 -32 -101.5 q-32 -40.5 -82 -51.5 q55 -8 91 -53.5 q36 -45.5 36 -109.5 q0 -75 -51 -128 q-51 -53 -146 -53 ZM412 421 q16 0 28 11.5 q12 11.5 12 28.5 q0 17 -12 27.5 q-12 10.5 -28 10.5 l-156 0 l0 -78 l156 0 ZM418 168 q22 0 34.5 11.5 q12.5 11.5 12.5 30.5 q0 18 -13 30.5 q-13 12.5 -34 12.5 l-162 0 l0 -85 l162 0 Z" /><glyph glyph-name="Gamma" unicode="&#x393;" d="M256 0 l-202 0 l0 667 l506 0 l0 -176 l-304 0 l0 -491 Z" /><glyph glyph-name="uni0394" unicode="&#x394;" d="M728 0 l-746 0 l246 667 l254 0 l246 -667 ZM445 176 l-90 293 l-90 -293 l180 0 Z" /><glyph glyph-name="Epsilon" unicode="&#x395;" d="M560 0 l-506 0 l0 667 l506 0 l0 -176 l-304 0 l0 -66 l297 0 l0 -176 l-297 0 l0 -73 l304 0 l0 -176 Z" /><glyph glyph-name="Zeta" unicode="&#x396;" d="M564 0 l-528 0 l0 160 l254 331 l-254 0 l0 176 l521 0 l0 -159 l-255 -332 l262 0 l0 -176 Z" /><glyph glyph-name="Eta" unicode="&#x397;" d="M697 0 l-202 0 l0 255 l-239 0 l0 -255 l-202 0 l0 667 l202 0 l0 -236 l239 0 l0 236 l202 0 l0 -667 Z" /><glyph glyph-name="Theta" unicode="&#x398;" d="M503 249 l-240 0 l0 176 l240 0 l0 -176 ZM643.5 84.5 q-104.5 -96.5 -260.5 -96.5 q-156 0 -260.5 96.5 q-104.5 96.5 -104.5 248.5 q0 152 104.5 248.5 q104.5 96.5 260.5 96.5 q156 0 260.5 -96.5 q104.5 -96.5 104.5 -248.5 q0 -152 -104.5 -248.5 ZM267.5 214 q44.5 -48 115.5 -48 q71 0 115.5 48 q44.5 48 44.5 119 q0 71 -44.5 119 q-44.5 48 -115.5 48 q-71 0 -115.5 -48 q-44.5 -48 -44.5 -119 q0 -71 44.5 -119 Z" /><glyph glyph-name="Iota" unicode="&#x399;" d="M256 0 l-202 0 l0 667 l202 0 l0 -667 Z" /><glyph glyph-name="Kappa" unicode="&#x39a;" d="M689 0 l-246 0 l-150 235 l-37 -50 l0 -185 l-202 0 l0 667 l202 0 l0 -250 l175 250 l247 0 l-252 -310 l263 -357 Z" /><glyph glyph-name="Lambda" unicode="&#x39b;" d="M728 0 l-229 0 l-144 469 l-144 -469 l-229 0 l246 667 l254 0 l246 -667 Z" /><glyph glyph-name="Mu" unicode="&#x39c;" d="M846 0 l-202 0 l0 401 l-149 -401 l-90 0 l-149 401 l0 -401 l-202 0 l0 667 l279 0 l117 -320 l117 320 l279 0 l0 -667 Z" /><glyph glyph-name="Nu" unicode="&#x39d;" d="M696 0 l-194 0 l-246 338 l0 -338 l-202 0 l0 667 l208 0 l232 -316 l0 316 l202 0 l0 -667 Z" /><glyph glyph-name="Xi" unicode="&#x39e;" d="M595 491 l-559 0 l0 176 l559 0 l0 -176 ZM596 0 l-559 0 l0 176 l559 0 l0 -176 ZM589 249 l-546 0 l0 176 l546 0 l0 -176 Z" /><glyph glyph-name="Omicron" unicode="&#x39f;" d="M643.5 84.5 q-104.5 -96.5 -260.5 -96.5 q-156 0 -260.5 96.5 q-104.5 96.5 -104.5 248.5 q0 152 104.5 248.5 q104.5 96.5 260.5 96.5 q156 0 260.5 -96.5 q104.5 -96.5 104.5 -248.5 q0 -152 -104.5 -248.5 ZM267.5 214 q44.5 -48 115.5 -48 q71 0 115.5 48 q44.5 48 44.5 119 q0 71 -44.5 119 q-44.5 48 -115.5 48 q-71 0 -115.5 -48 q-44.5 -48 -44.5 -119 q0 -71 44.5 -119 Z" /><glyph glyph-name="Pi" unicode="&#x3a0;" d="M697 0 l-202 0 l0 491 l-239 0 l0 -491 l-202 0 l0 667 l643 0 l0 -667 Z" /><glyph glyph-name="Rho" unicode="&#x3a1;" d="M256 0 l-202 0 l0 667 l356 0 q113 0 176.5 -65.5 q63.5 -65.5 63.5 -163.5 q0 -97 -63.5 -162.5 q-63.5 -65.5 -176.5 -65.5 l-154 0 l0 -210 ZM384 386 q27 0 44 13.5 q17 13.5 17 38.5 q0 26 -17 39.5 q-17 13.5 -44 13.5 l-128 0 l0 -105 l128 0 Z" /><glyph glyph-name="Sigma" unicode="&#x3a3;" d="M290 491 l170 -151 l-179 -164 l279 0 l0 -176 l-524 0 l0 176 l175 163 l-174 153 l0 175 l523 0 l0 -176 l-270 0 Z" /><glyph glyph-name="Tau" unicode="&#x3a4;" d="M399 0 l-202 0 l0 491 l-179 0 l0 176 l559 0 l0 -176 l-178 0 l0 -491 Z" /><glyph glyph-name="Upsilon" unicode="&#x3a5;" d="M434 0 l-202 0 l0 265 l-250 402 l227 0 l124 -225 l122 225 l227 0 l-248 -402 l0 -265 Z" /><glyph glyph-name="Phi" unicode="&#x3a6;" d="M553 0 l-202 0 l0 68 q-161 15 -247 81.5 q-86 66.5 -86 183.5 q0 117 86 183 q86 66 247 81 l0 70 l202 0 l0 -70 q161 -15 247 -81.5 q86 -66.5 86 -182.5 q0 -117 -86.5 -183.5 q-86.5 -66.5 -246.5 -81.5 l0 -68 ZM223 333 q0 -71 128 -86 l0 172 q-128 -16 -128 -86 ZM681 333 q0 70 -128 86 l0 -172 q128 15 128 86 Z" /><glyph glyph-name="Chi" unicode="&#x3a7;" d="M702 0 l-238 0 l-122 204 l-122 -204 l-238 0 l223 342 l-208 325 l237 0 l108 -190 l106 190 l239 0 l-208 -324 l223 -343 Z" /><glyph glyph-name="Psi" unicode="&#x3a8;" d="M570 0 l-202 0 l0 130 q-156 19 -235 93.5 q-79 74.5 -79 186.5 l0 257 l205 0 l0 -250 q0 -80 109 -106 l0 356 l202 0 l0 -355 q107 24 107 105 l0 250 l206 0 l0 -256 q0 -113 -79 -187.5 q-79 -74.5 -234 -93.5 l0 -130 Z" /><glyph glyph-name="uni03A9" unicode="&#x3a9;" d="M35 176 l103 0 q-120 93 -120 207 q0 138 103 216.5 q103 78.5 262 78.5 q160 0 262.5 -78.5 q102.5 -78.5 102.5 -216.5 q0 -114 -119 -207 l102 0 l0 -176 l-298 0 l0 176 q55 17 82.5 62.5 q27.5 45.5 27.5 96.5 q0 27 -8 53.5 q-8 26.5 -25 52.5 q-17 26 -50 42 q-33 16 -77 16 q-44 0 -77 -16 q-33 -16 -50 -42 q-17 -26 -25 -52.5 q-8 -26.5 -8 -53.5 q0 -51 27.5 -96.5 q27.5 -45.5 82.5 -62.5 l0 -176 l-298 0 l0 176 Z" /><glyph glyph-name="Iotadieresis" unicode="&#x3aa;" d="M256 0 l-202 0 l0 667 l202 0 l0 -667 ZM327 865 q26 -26 26 -63 q0 -37 -26 -63 q-26 -26 -64 -26 q-37 0 -63 26 q-26 26 -26 63 q0 37 26 63 q26 26 63 26 q38 0 64 -26 ZM110 865.5 q26 -25.5 26 -63.5 q0 -38 -26 -63.5 q-26 -25.5 -63 -25.5 q-37 0 -63 25.5 q-26 25.5 -26 63.5 q0 38 26 63.5 q26 25.5 63 25.5 q37 0 63 -25.5 Z" /><glyph glyph-name="Upsilondieresis" unicode="&#x3ab;" d="M434 0 l-202 0 l0 265 l-250 402 l227 0 l124 -225 l122 225 l227 0 l-248 -402 l0 -265 ZM503 865 q26 -26 26 -63 q0 -37 -26 -63 q-26 -26 -64 -26 q-37 0 -63 26 q-26 26 -26 63 q0 37 26 63 q26 26 63 26 q38 0 64 -26 ZM286 865.5 q26 -25.5 26 -63.5 q0 -38 -26 -63.5 q-26 -25.5 -63 -25.5 q-37 0 -63 25.5 q-26 25.5 -26 63.5 q0 38 26 63.5 q26 25.5 63 25.5 q37 0 63 -25.5 Z" /><glyph glyph-name="alphatonos" unicode="&#x3ac;" d="M331 541 l-74 0 l22 224 l134 0 l-82 -224 ZM599 150 l11 -152 q-33 -10 -78 -10 q-119 0 -154 82 q-50 -82 -148 -82 q-92 0 -152.5 67 q-60.5 67 -60.5 187 q0 117 60.5 185 q60.5 68 152.5 68 q83 0 135 -63 l0 51 l181 0 l0 -305 q0 -15 10 -23 q10 -8 24 -8 q10 0 19 3 ZM291 147 q48 0 75 33 l0 123 q-26 32 -75 32 q-38 0 -64 -25 q-26 -25 -26 -68 q0 -44 26 -69.5 q26 -25.5 64 -25.5 Z" /><glyph glyph-name="epsilontonos" unicode="&#x3ad;" d="M272 541 l-74 0 l22 224 l134 0 l-82 -224 ZM262 -12 q-112 1 -179 41.5 q-67 40.5 -66 106.5 q0 47 40.5 78.5 q40.5 31.5 90.5 34.5 q-53 9 -87.5 40 q-34.5 31 -34.5 70 q1 63 63.5 99.5 q62.5 36.5 185.5 35.5 q129 0 213 -82 l-85 -101 q-54 49 -137 49 q-54 0 -54 -24 q0 -9 3 -14 q3 -5 15.5 -9 q12.5 -4 37.5 -4 l90 0 l0 -132 l-90 0 q-65 0 -65 -30 q0 -24 59 -24 q88 0 151 46 l80 -105 q-36 -34 -96.5 -55 q-60.5 -21 -134.5 -21 Z" /><glyph glyph-name="etatonos" unicode="&#x3ae;" d="M329 541 l-74 0 l22 224 l134 0 l-82 -224 ZM557 -184 l-180 0 l0 451 q0 69 -70 69 q-43 0 -77 -38 l0 -298 l-180 0 l0 483 l180 0 l0 -55 q59 67 166 67 q80 0 120.5 -42.5 q40.5 -42.5 40.5 -109.5 l0 -527 Z" /><glyph glyph-name="iotatonos" unicode="&#x3af;" d="M173 541 l-74 0 l22 224 l134 0 l-82 -224 ZM216 -12 q-81 0 -123.5 38.5 q-42.5 38.5 -42.5 113.5 l0 343 l180 0 l0 -305 q0 -15 10 -23 q10 -8 24 -8 q10 0 19 3 l11 -152 q-33 -10 -78 -10 Z" /><glyph glyph-name="upsilondieresistonos" unicode="&#x3b0;" d="M312 541 l-75 0 l22 224 l135 0 l-82 -224 ZM525 681 q26 -26 26 -63 q0 -37 -26 -63 q-26 -26 -64 -26 q-37 0 -63 26 q-26 26 -26 63 q0 37 26 63 q26 26 63 26 q38 0 64 -26 ZM193.5 681.5 q25.5 -25.5 25.5 -63.5 q0 -38 -25.5 -63.5 q-25.5 -25.5 -63.5 -25.5 q-38 0 -63.5 25.5 q-25.5 25.5 -25.5 63.5 q0 38 25.5 63.5 q25.5 25.5 63.5 25.5 q38 0 63.5 -25.5 ZM303 -12 q-124 0 -188.5 64.5 q-64.5 64.5 -64.5 171.5 l0 259 l180 0 l0 -256 q0 -35 19.5 -57.5 q19.5 -22.5 53.5 -22.5 q87 0 87 122 q0 88 -45 159 l167 67 q63 -99 63 -226 q0 -126 -72.5 -203.5 q-72.5 -77.5 -199.5 -77.5 Z" /><glyph glyph-name="alpha" unicode="&#x3b1;" d="M599 150 l11 -152 q-33 -10 -78 -10 q-119 0 -154 82 q-50 -82 -148 -82 q-92 0 -152.5 67 q-60.5 67 -60.5 187 q0 117 60.5 185 q60.5 68 152.5 68 q83 0 135 -63 l0 51 l181 0 l0 -305 q0 -15 10 -23 q10 -8 24 -8 q10 0 19 3 ZM291 147 q48 0 75 33 l0 123 q-26 32 -75 32 q-38 0 -64 -25 q-26 -25 -26 -68 q0 -44 26 -69.5 q26 -25.5 64 -25.5 Z" /><glyph glyph-name="beta" unicode="&#x3b2;" d="M230 441 l0 -262 q35 -32 91 -32 q35 0 54.5 15.5 q19.5 15.5 19.5 39.5 q0 23 -19 38 q-19 15 -55 15 l-44 0 l0 160 l38 0 q64 0 64 51 q0 24 -17 37.5 q-17 13.5 -46 13.5 q-40 0 -63 -21.5 q-23 -21.5 -23 -54.5 ZM230 51 l0 -235 l-180 0 l0 625 q0 62 25 110 q25 48 65 74 q40 26 85 39 q45 13 91 13 q123 0 185.5 -49.5 q62.5 -49.5 62.5 -135.5 q0 -54 -39.5 -96 q-39.5 -42 -102.5 -52 q63 -7 110 -53 q47 -46 47 -126 q0 -71 -59.5 -124 q-59.5 -53 -133.5 -53 q-100 0 -156 63 Z" /><glyph glyph-name="gamma" unicode="&#x3b3;" d="M357 -184 l-180 0 l0 79 q0 166 -56.5 324.5 q-56.5 158.5 -145.5 263.5 l200 0 q40 -55 72.5 -138 q32.5 -83 40.5 -144 q21 40 39 126.5 q18 86.5 18 155.5 l180 0 q0 -118 -49 -254 q-49 -136 -119 -224 l0 -189 Z" /><glyph glyph-name="delta" unicode="&#x3b4;" d="M299 -12 q-132 0 -207 69.5 q-75 69.5 -75 174.5 q0 60 26.5 109 q26.5 49 66.5 77 q-38 38 -38 96 q0 69 57.5 117 q57.5 48 158.5 48 q115 0 209 -62 l-66 -128 q-25 20 -64 35 q-39 15 -78 15 q-45 0 -45 -18 q0 -8 23.5 -16 q23.5 -8 58.5 -16 q35 -8 76 -27 q41 -19 76 -45 q35 -26 58.5 -75 q23.5 -49 23.5 -112 q0 -104 -69 -173 q-69 -69 -192 -69 ZM387 230 q0 46 -31.5 70.5 q-31.5 24.5 -93.5 45.5 q-29 -19 -44.5 -50 q-15.5 -31 -15.5 -57 q0 -43 25.5 -67.5 q25.5 -24.5 66.5 -24.5 q44 0 68.5 22.5 q24.5 22.5 24.5 60.5 Z" /><glyph glyph-name="epsilon" unicode="&#x3b5;" d="M262 -12 q-112 1 -179 41.5 q-67 40.5 -66 106.5 q0 47 40.5 78.5 q40.5 31.5 90.5 34.5 q-53 9 -87.5 40 q-34.5 31 -34.5 70 q1 63 63.5 99.5 q62.5 36.5 185.5 35.5 q129 0 213 -82 l-85 -101 q-54 49 -137 49 q-54 0 -54 -24 q0 -9 3 -14 q3 -5 15.5 -9 q12.5 -4 37.5 -4 l90 0 l0 -132 l-90 0 q-65 0 -65 -30 q0 -24 59 -24 q88 0 151 46 l80 -105 q-36 -34 -96.5 -55 q-60.5 -21 -134.5 -21 Z" /><glyph glyph-name="zeta" unicode="&#x3b6;" d="M281 -21 q0 9 -9 9 q-118 0 -186.5 60 q-68.5 60 -68.5 163 q0 92 54 172.5 q54 80.5 147 127.5 l-185 0 l0 156 l416 0 l0 -126 q-92 -46 -170 -136.5 q-78 -90.5 -78 -178.5 q0 -44 23.5 -61.5 q23.5 -17.5 71.5 -17.5 q91 0 130 -30.5 q39 -30.5 39 -91.5 q0 -70 -63 -182 l-188 0 q19 25 43 70.5 q24 45.5 24 65.5 Z" /><glyph glyph-name="eta" unicode="&#x3b7;" d="M557 -184 l-180 0 l0 451 q0 69 -70 69 q-43 0 -77 -38 l0 -298 l-180 0 l0 483 l180 0 l0 -55 q59 67 166 67 q80 0 120.5 -42.5 q40.5 -42.5 40.5 -109.5 l0 -527 Z" /><glyph glyph-name="theta" unicode="&#x3b8;" d="M486 89 q-74 -101 -198 -101 q-124 0 -197.5 101 q-73.5 101 -73.5 245 q0 145 73.5 245 q73.5 100 197.5 100 q83 0 146 -48 q63 -48 94.5 -125.5 q31.5 -77.5 31.5 -171.5 q0 -144 -74 -245 ZM288 147 q36 0 56 26 q20 26 27 84 l-165 0 q7 -58 27 -84 q20 -26 55 -26 ZM371 413 q-14 107 -83 107 q-69 0 -82 -107 l165 0 Z" /><glyph glyph-name="iota" unicode="&#x3b9;" d="M216 -12 q-81 0 -123.5 38.5 q-42.5 38.5 -42.5 113.5 l0 343 l180 0 l0 -305 q0 -15 10 -23 q10 -8 24 -8 q10 0 19 3 l11 -152 q-33 -10 -78 -10 Z" /><glyph glyph-name="kappa" unicode="&#x3ba;" d="M569 0 l-221 0 l-83 156 l-35 -47 l0 -109 l-180 0 l0 483 l180 0 l0 -172 l111 172 l217 0 l-166 -220 l177 -263 Z" /><glyph glyph-name="lambda" unicode="&#x3bb;" d="M70 511 l-25 160 q27 8 70 8 q87 -3 141 -30.5 q54 -27.5 84 -105.5 l210 -543 l-190 0 l-93 276 l-92 -276 l-190 0 l190 491 l-4 10 q-9 19 -63 19 q-22 0 -38 -9 Z" /><glyph glyph-name="uni03BC" unicode="&#x3bc;" d="M230 -4 l0 -180 l-180 0 l0 667 l180 0 l0 -268 q0 -68 70 -68 q42 0 76 38 l0 298 l180 0 l0 -305 q0 -15 10 -23 q10 -8 24 -8 q10 0 19 3 l11 -152 q-33 -10 -78 -10 q-121 0 -156 87 q-16 -40 -46.5 -63.5 q-30.5 -23.5 -70.5 -23.5 q-23 0 -39 8 Z" /><glyph glyph-name="nu" unicode="&#x3bd;" d="M353 0 l-181 0 l-187 483 l190 0 l101 -304 q34 57 51.5 142 q17.5 85 17.5 162 l180 0 q0 -120 -50.5 -258 q-50.5 -138 -121.5 -225 Z" /><glyph glyph-name="xi" unicode="&#x3be;" d="M272 -12 q-124 0 -189.5 47.5 q-65.5 47.5 -65.5 125.5 q0 103 104 142 q-41 7 -67 32.5 q-26 25.5 -26 64.5 q0 36 23 66 q23 30 61 45 l-72 0 l0 156 l409 0 l0 -156 l-192 0 q-44 -13 -44 -52 q0 -47 83 -47 l150 0 l0 -154 l-150 0 q-94 0 -94 -58 q0 -53 94 -53 q91 0 130 -30.5 q39 -30.5 39 -91.5 q0 -70 -63 -182 l-188 0 q19 25 43 70.5 q24 45.5 24 65.5 q0 9 -9 9 Z" /><glyph glyph-name="omicron" unicode="&#x3bf;" d="M486 62 q-74 -74 -198 -74 q-124 0 -197.5 74 q-73.5 74 -73.5 180 q0 106 73.5 179.5 q73.5 73.5 197.5 73.5 q124 0 198 -73.5 q74 -73.5 74 -179.5 q0 -106 -74 -180 ZM288 147 q41 0 64 26.5 q23 26.5 23 68.5 q0 41 -23 67.5 q-23 26.5 -64 26.5 q-40 0 -63 -26.5 q-23 -26.5 -23 -67.5 q0 -42 23 -68.5 q23 -26.5 63 -26.5 Z" /><glyph glyph-name="pi" unicode="&#x3c0;" d="M594 0 l-180 0 l0 327 l-147 0 l0 -327 l-180 0 l0 327 l-80 0 l0 156 l667 0 l0 -156 l-80 0 l0 -327 Z" /><glyph glyph-name="rho" unicode="&#x3c1;" d="M366 -12 q-81 0 -136 63 l0 -235 l-180 0 l0 426 q0 106 71.5 179.5 q71.5 73.5 192.5 73.5 q121 0 192.5 -73.5 q71.5 -73.5 71.5 -179.5 q0 -121 -59.5 -187.5 q-59.5 -66.5 -152.5 -66.5 ZM304 147 q38 0 64 25.5 q26 25.5 26 69.5 q0 41 -21.5 67.5 q-21.5 26.5 -60.5 26.5 q-39 0 -60.5 -26.5 q-21.5 -26.5 -21.5 -67.5 l0 -62 q11 -14 33.5 -23.5 q22.5 -9.5 40.5 -9.5 Z" /><glyph glyph-name="sigma1" unicode="&#x3c2;" d="M288 -12 q-117 0 -194 70 q-77 70 -77 184 q0 113 77 183 q77 70 194 70 q75 0 128 -27.5 q53 -27.5 77 -63.5 l-116 -109 q-27 41 -81 41 q-40 0 -67.5 -24.5 q-27.5 -24.5 -27.5 -69.5 q0 -45 27.5 -70 q27.5 -25 67.5 -25 q182 0 182 -122 q0 -70 -63 -182 l-188 0 q19 25 43 70.5 q24 45.5 24 65.5 q0 9 -6 9 Z" /><glyph glyph-name="sigma" unicode="&#x3c3;" d="M545 205 q0 -93 -67 -155 q-67 -62 -190 -62 q-124 0 -197.5 74 q-73.5 74 -73.5 180 q0 104 73 172.5 q73 68.5 198 68.5 l274 0 l0 -159 l-65 0 q48 -44 48 -119 ZM375 242 q0 50 -39 82 l-48 0 q-40 0 -63 -24 q-23 -24 -23 -58 q0 -42 23 -68.5 q23 -26.5 63 -26.5 q41 0 64 26.5 q23 26.5 23 68.5 Z" /><glyph glyph-name="tau" unicode="&#x3c4;" d="M324 -12 q-81 0 -123.5 38.5 q-42.5 38.5 -42.5 113.5 l0 187 l-143 0 l0 156 l465 0 l0 -156 l-142 0 l0 -135 q0 -19 11 -32 q11 -13 29 -13 q27 0 36 9 l32 -136 q-36 -32 -122 -32 Z" /><glyph glyph-name="upsilon" unicode="&#x3c5;" d="M303 -12 q-124 0 -188.5 64.5 q-64.5 64.5 -64.5 171.5 l0 259 l180 0 l0 -256 q0 -35 19.5 -57.5 q19.5 -22.5 53.5 -22.5 q87 0 87 122 q0 88 -45 159 l167 67 q63 -99 63 -226 q0 -126 -72.5 -203.5 q-72.5 -77.5 -199.5 -77.5 Z" /><glyph glyph-name="phi" unicode="&#x3c6;" d="M829 242 q0 -109 -79.5 -173 q-79.5 -64 -236.5 -77 l0 -176 l-180 0 l0 176 q-316 27 -316 265 q0 161 193 238 l74 -140 q-41 -14 -61.5 -42 q-20.5 -28 -20.5 -56 q0 -47 31 -72.5 q31 -25.5 100 -33.5 l0 344 l89 0 q203 0 305 -64.5 q102 -64.5 102 -188.5 ZM644 242 q0 79 -131 89 l0 -180 q131 16 131 91 Z" /><glyph glyph-name="chi" unicode="&#x3c7;" d="M533 -184 l-197 0 l-75 176 l-77 -176 l-196 0 l158 343 l-148 324 l197 0 l65 -156 l65 156 l197 0 l-148 -324 l159 -343 Z" /><glyph glyph-name="psi" unicode="&#x3c8;" d="M513 -184 l-180 0 l0 177 q-141 16 -212 85 q-71 69 -71 179 l0 226 l180 0 l0 -225 q0 -79 103 -102 l0 511 l180 0 l0 -511 q103 23 103 102 l0 225 l180 0 l0 -226 q0 -110 -71 -179 q-71 -69 -212 -85 l0 -177 Z" /><glyph glyph-name="omega" unicode="&#x3c9;" d="M879 242 q0 -106 -64 -180 q-64 -74 -172 -74 q-136 0 -195 127 q-59 -127 -195 -127 q-108 0 -172 74 q-64 74 -64 180 q0 149 111 253 l138 -99 q-64 -74 -64 -154 q0 -42 20.5 -68.5 q20.5 -26.5 56.5 -26.5 q37 0 58 26.5 q21 26.5 21 68.5 l0 121 l180 0 l0 -121 q0 -42 21 -68.5 q21 -26.5 58 -26.5 q36 0 56.5 26.5 q20.5 26.5 20.5 68.5 q0 80 -64 154 l138 99 q111 -104 111 -253 Z" /><glyph glyph-name="iotadieresis" unicode="&#x3ca;" d="M319 681 q26 -26 26 -63 q0 -37 -26 -63 q-26 -26 -64 -26 q-37 0 -63 26 q-26 26 -26 63 q0 37 26 63 q26 26 63 26 q38 0 64 -26 ZM102 681.5 q26 -25.5 26 -63.5 q0 -38 -26 -63.5 q-26 -25.5 -63 -25.5 q-37 0 -63 25.5 q-26 25.5 -26 63.5 q0 38 26 63.5 q26 25.5 63 25.5 q37 0 63 -25.5 ZM216 -12 q-81 0 -123.5 38.5 q-42.5 38.5 -42.5 113.5 l0 343 l180 0 l0 -305 q0 -15 10 -23 q10 -8 24 -8 q10 0 19 3 l11 -152 q-33 -10 -78 -10 Z" /><glyph glyph-name="upsilondieresis" unicode="&#x3cb;" d="M467 681 q26 -26 26 -63 q0 -37 -26 -63 q-26 -26 -64 -26 q-37 0 -63 26 q-26 26 -26 63 q0 37 26 63 q26 26 63 26 q38 0 64 -26 ZM250 681.5 q26 -25.5 26 -63.5 q0 -38 -26 -63.5 q-26 -25.5 -63 -25.5 q-37 0 -63 25.5 q-26 25.5 -26 63.5 q0 38 26 63.5 q26 25.5 63 25.5 q37 0 63 -25.5 ZM303 -12 q-124 0 -188.5 64.5 q-64.5 64.5 -64.5 171.5 l0 259 l180 0 l0 -256 q0 -35 19.5 -57.5 q19.5 -22.5 53.5 -22.5 q87 0 87 122 q0 88 -45 159 l167 67 q63 -99 63 -226 q0 -126 -72.5 -203.5 q-72.5 -77.5 -199.5 -77.5 Z" /><glyph glyph-name="omicrontonos" unicode="&#x3cc;" d="M314 541 l-74 0 l22 224 l134 0 l-82 -224 ZM486 62 q-74 -74 -198 -74 q-124 0 -197.5 74 q-73.5 74 -73.5 180 q0 106 73.5 179.5 q73.5 73.5 197.5 73.5 q124 0 198 -73.5 q74 -73.5 74 -179.5 q0 -106 -74 -180 ZM288 147 q41 0 64 26.5 q23 26.5 23 68.5 q0 41 -23 67.5 q-23 26.5 -64 26.5 q-40 0 -63 -26.5 q-23 -26.5 -23 -67.5 q0 -42 23 -68.5 q23 -26.5 63 -26.5 Z" /><glyph glyph-name="upsilontonos" unicode="&#x3cd;" d="M322 541 l-74 0 l22 224 l134 0 l-82 -224 ZM303 -12 q-124 0 -188.5 64.5 q-64.5 64.5 -64.5 171.5 l0 259 l180 0 l0 -256 q0 -35 19.5 -57.5 q19.5 -22.5 53.5 -22.5 q87 0 87 122 q0 88 -45 159 l167 67 q63 -99 63 -226 q0 -126 -72.5 -203.5 q-72.5 -77.5 -199.5 -77.5 Z" /><glyph glyph-name="omegatonos" unicode="&#x3ce;" d="M474 541 l-74 0 l22 224 l134 0 l-82 -224 ZM879 242 q0 -106 -64 -180 q-64 -74 -172 -74 q-136 0 -195 127 q-59 -127 -195 -127 q-108 0 -172 74 q-64 74 -64 180 q0 149 111 253 l138 -99 q-64 -74 -64 -154 q0 -42 20.5 -68.5 q20.5 -26.5 56.5 -26.5 q37 0 58 26.5 q21 26.5 21 68.5 l0 121 l180 0 l0 -121 q0 -42 21 -68.5 q21 -26.5 58 -26.5 q36 0 56.5 26.5 q20.5 26.5 20.5 68.5 q0 80 -64 154 l138 99 q111 -104 111 -253 Z" /><glyph glyph-name="afii10023" unicode="&#x401;" d="M479 848 q26 -26 26 -63 q0 -37 -26 -63 q-26 -26 -64 -26 q-37 0 -63 26 q-26 26 -26 63 q0 37 26 63 q26 26 63 26 q38 0 64 -26 ZM262 848 q26 -26 26 -63 q0 -37 -26 -63 q-26 -26 -63 -26 q-37 0 -63 26 q-26 26 -26 63 q0 37 26 63 q26 26 63 26 q37 0 63 -26 ZM560 0 l-506 0 l0 667 l506 0 l0 -176 l-304 0 l0 -66 l297 0 l0 -176 l-297 0 l0 -73 l304 0 l0 -176 Z" /><glyph glyph-name="afii10051" unicode="&#x402;" d="M537 -12 l0 166 q25 0 38 12.5 q13 12.5 13 33.5 l0 3 q0 27 -25.5 41 q-25.5 14 -66.5 14 q-56 0 -97 -15 l0 -243 l-202 0 l0 491 l-179 0 l0 176 l559 0 l0 -176 l-178 0 l0 -72 q77 15 127 15 q133 0 200 -61.5 q67 -61.5 67 -167.5 l0 -6 q0 -92 -70.5 -151.5 q-70.5 -59.5 -185.5 -59.5 Z" /><glyph glyph-name="afii10052" unicode="&#x403;" d="M513 867 l-155 -144 l-120 0 l120 144 l155 0 ZM256 0 l-202 0 l0 667 l506 0 l0 -176 l-304 0 l0 -491 Z" /><glyph glyph-name="afii10053" unicode="&#x404;" d="M385 -12 q-158 0 -262.5 96.5 q-104.5 96.5 -104.5 248.5 q0 153 104 249 q104 96 263 96 q120 0 193.5 -56 q73.5 -56 109.5 -138 l-174 -81 q-13 41 -50.5 69 q-37.5 28 -86.5 28 q-94 0 -134 -75 l225 0 l0 -176 l-229 0 q38 -83 138 -83 q49 0 86.5 28 q37.5 28 50.5 69 l174 -80 q-16 -37 -40 -68.5 q-24 -31.5 -60 -61.5 q-36 -30 -88.5 -47.5 q-52.5 -17.5 -114.5 -17.5 Z" /><glyph glyph-name="afii10054" unicode="&#x405;" d="M313 -12 q-192 0 -310 106 l105 150 q90 -86 215 -86 q74 0 74 36 q0 17 -38.5 26 q-38.5 9 -93 19 q-54.5 10 -109 29 q-54.5 19 -93 67 q-38.5 48 -38.5 121 q0 91 73.5 156 q73.5 65 203.5 65 q169 0 283 -93 l-108 -143 q-87 66 -196 66 q-51 0 -51 -30 q0 -14 27.5 -24 q27.5 -10 68.5 -15.5 q41 -5.5 89.5 -20 q48.5 -14.5 89.5 -34.5 q41 -20 68.5 -62.5 q27.5 -42.5 27.5 -100.5 q0 -110 -76.5 -171 q-76.5 -61 -211.5 -61 Z" /><glyph glyph-name="afii10055" unicode="&#x406;" d="M256 0 l-202 0 l0 667 l202 0 l0 -667 Z" /><glyph glyph-name="afii10056" unicode="&#x407;" d="M256 0 l-202 0 l0 667 l202 0 l0 -667 ZM327 848 q26 -26 26 -63 q0 -37 -26 -63 q-26 -26 -64 -26 q-37 0 -63 26 q-26 26 -26 63 q0 37 26 63 q26 26 63 26 q38 0 64 -26 ZM110 848 q26 -26 26 -63 q0 -37 -26 -63 q-26 -26 -63 -26 q-37 0 -63 26 q-26 26 -26 63 q0 37 26 63 q26 26 63 26 q37 0 63 -26 Z" /><glyph glyph-name="afii10057" unicode="&#x408;" d="M186 -12 q-116 0 -186 54 l82 154 q44 -30 86 -30 q33 0 53.5 20 q20.5 20 20.5 55 l0 426 l202 0 l0 -429 q0 -125 -69 -187.5 q-69 -62.5 -189 -62.5 Z" /><glyph glyph-name="afii10058" unicode="&#x409;" d="M20 -12 l0 178 q46 0 75 37.5 q29 37.5 40 127.5 l41 336 l521 0 l0 -210 l154 0 q113 0 176.5 -65.5 q63.5 -65.5 63.5 -162.5 q0 -98 -63.5 -163.5 q-63.5 -65.5 -176.5 -65.5 l-356 0 l0 491 l-137 0 l-22 -175 q-12 -95 -40.5 -161.5 q-28.5 -66.5 -72 -101.5 q-43.5 -35 -92.5 -50 q-49 -15 -111 -15 ZM825 281 l-128 0 l0 -105 l128 0 q27 0 44 13.5 q17 13.5 17 39.5 q0 25 -17 38.5 q-17 13.5 -44 13.5 Z" /><glyph glyph-name="afii10059" unicode="&#x40a;" d="M54 0 l0 667 l202 0 l0 -236 l239 0 l0 236 l202 0 l0 -236 l167 0 q107 0 167 -61.5 q60 -61.5 60 -153.5 q0 -93 -60 -154.5 q-60 -61.5 -167 -61.5 l-369 0 l0 255 l-239 0 l0 -255 l-202 0 ZM697 176 l143 0 q20 0 33 10.5 q13 10.5 13 29.5 q0 19 -13 29 q-13 10 -33 10 l-143 0 l0 -79 Z" /><glyph glyph-name="afii10060" unicode="&#x40b;" d="M588 0 l0 176 q0 82 -92 82 q-56 0 -97 -15 l0 -243 l-202 0 l0 491 l-179 0 l0 176 l559 0 l0 -176 l-178 0 l0 -72 q77 15 127 15 q133 0 200 -69 q67 -69 67 -189 l0 -176 l-205 0 Z" /><glyph glyph-name="afii10061" unicode="&#x40c;" d="M559 867 l-155 -144 l-120 0 l120 144 l155 0 ZM689 0 l-246 0 l-150 235 l-37 -50 l0 -185 l-202 0 l0 667 l202 0 l0 -250 l175 250 l247 0 l-252 -310 l263 -357 Z" /><glyph glyph-name="afii10062" unicode="&#x40e;" d="M169 -12 q-116 0 -186 54 l82 154 q44 -30 86 -30 q46 0 67 32 l-235 469 l226 0 l123 -271 l124 271 l226 0 l-267 -533 q-74 -146 -246 -146 ZM507 779 q-65 -88 -175 -88 q-109 0 -176 88 l76 62 q38 -53 100 -53 q63 0 100 53 l75 -62 Z" /><glyph glyph-name="afii10145" unicode="&#x40f;" d="M54 0 l0 667 l202 0 l0 -491 l239 0 l0 491 l202 0 l0 -667 l-220 0 l0 -123 l-202 0 l0 123 l-221 0 Z" /><glyph glyph-name="afii10017" unicode="&#x410;" d="M728 0 l-229 0 l-24 78 l-240 0 l-24 -78 l-229 0 l246 667 l254 0 l246 -667 ZM421 254 l-66 215 l-66 -215 l132 0 Z" /><glyph glyph-name="afii10018" unicode="&#x411;" d="M54 667 l556 0 l0 -176 l-354 0 l0 -53 l164 0 q108 0 169 -62 q61 -62 61 -156 q0 -94 -61 -157 q-61 -63 -169 -63 l-366 0 l0 667 ZM395 262 l-139 0 l0 -86 l139 0 q22 0 36 11 q14 11 14 32 q0 21 -14 32 q-14 11 -36 11 Z" /><glyph glyph-name="afii10019" unicode="&#x412;" d="M473 0 l-419 0 l0 667 l405 0 q96 0 147 -52 q51 -52 51 -118 q0 -61 -32 -101.5 q-32 -40.5 -82 -51.5 q55 -8 91 -53.5 q36 -45.5 36 -109.5 q0 -75 -51 -128 q-51 -53 -146 -53 ZM412 421 q16 0 28 11.5 q12 11.5 12 28.5 q0 17 -12 27.5 q-12 10.5 -28 10.5 l-156 0 l0 -78 l156 0 ZM418 168 q22 0 34.5 11.5 q12.5 11.5 12.5 30.5 q0 18 -13 30.5 q-13 12.5 -34 12.5 l-162 0 l0 -85 l162 0 Z" /><glyph glyph-name="afii10020" unicode="&#x413;" d="M256 0 l-202 0 l0 667 l506 0 l0 -176 l-304 0 l0 -491 Z" /><glyph glyph-name="afii10021" unicode="&#x414;" d="M20 -123 l0 289 q50 9 77 42.5 q27 33.5 38 122.5 l41 336 l521 0 l0 -491 l58 0 l0 -299 l-202 0 l0 123 l-331 0 l0 -123 l-202 0 ZM336 316 q-10 -83 -65 -140 l224 0 l0 315 l-137 0 l-22 -175 Z" /><glyph glyph-name="afii10022" unicode="&#x415;" d="M560 0 l-506 0 l0 667 l506 0 l0 -176 l-304 0 l0 -66 l297 0 l0 -176 l-297 0 l0 -73 l304 0 l0 -176 Z" /><glyph glyph-name="afii10024" unicode="&#x416;" d="M228 0 l-246 0 l263 357 l-252 310 l247 0 l155 -222 l0 222 l202 0 l0 -222 l155 222 l247 0 l-252 -310 l263 -357 l-246 0 l-150 235 l-17 -23 l0 -212 l-202 0 l0 212 l-17 23 l-150 -235 Z" /><glyph glyph-name="afii10025" unicode="&#x417;" d="M310 -12 q-96 0 -175.5 28.5 q-79.5 28.5 -122.5 75.5 l99 138 q36 -31 91.5 -47.5 q55.5 -16.5 99.5 -16.5 q51 0 79 13 q28 13 28 32 q0 19 -23.5 27.5 q-23.5 8.5 -89.5 8.5 l-137 0 l0 176 l137 0 q102 0 102 33 q0 43 -109 43 q-45 0 -92.5 -15.5 q-47.5 -15.5 -80.5 -42.5 l-95 126 q46 51 121 80.5 q75 29.5 169 29.5 q136 0 212 -50.5 q76 -50.5 76 -134.5 q0 -53 -41.5 -95.5 q-41.5 -42.5 -105.5 -52.5 q61 -7 109.5 -49 q48.5 -42 48.5 -107 q0 -89 -84.5 -144.5 q-84.5 -55.5 -215.5 -55.5 Z" /><glyph glyph-name="afii10026" unicode="&#x418;" d="M248 0 l-194 0 l0 667 l202 0 l0 -356 l232 356 l208 0 l0 -667 l-202 0 l0 378 l-246 -378 Z" /><glyph glyph-name="afii10027" unicode="&#x419;" d="M248 0 l-194 0 l0 667 l202 0 l0 -356 l232 356 l208 0 l0 -667 l-202 0 l0 378 l-246 -378 ZM550 779 q-65 -88 -175 -88 q-109 0 -176 88 l76 62 q38 -53 100 -53 q63 0 100 53 l75 -62 Z" /><glyph glyph-name="afii10028" unicode="&#x41a;" d="M689 0 l-246 0 l-150 235 l-37 -50 l0 -185 l-202 0 l0 667 l202 0 l0 -250 l175 250 l247 0 l-252 -310 l263 -357 Z" /><glyph glyph-name="afii10029" unicode="&#x41b;" d="M20 -12 l0 178 q46 0 75 37.5 q29 37.5 40 127.5 l41 336 l521 0 l0 -667 l-202 0 l0 491 l-137 0 l-22 -175 q-12 -95 -40.5 -161.5 q-28.5 -66.5 -72 -101.5 q-43.5 -35 -92.5 -50 q-49 -15 -111 -15 Z" /><glyph glyph-name="afii10030" unicode="&#x41c;" d="M846 0 l-202 0 l0 401 l-149 -401 l-90 0 l-149 401 l0 -401 l-202 0 l0 667 l279 0 l117 -320 l117 320 l279 0 l0 -667 Z" /><glyph glyph-name="afii10031" unicode="&#x41d;" d="M697 0 l-202 0 l0 255 l-239 0 l0 -255 l-202 0 l0 667 l202 0 l0 -236 l239 0 l0 236 l202 0 l0 -667 Z" /><glyph glyph-name="afii10032" unicode="&#x41e;" d="M643.5 84.5 q-104.5 -96.5 -260.5 -96.5 q-156 0 -260.5 96.5 q-104.5 96.5 -104.5 248.5 q0 152 104.5 248.5 q104.5 96.5 260.5 96.5 q156 0 260.5 -96.5 q104.5 -96.5 104.5 -248.5 q0 -152 -104.5 -248.5 ZM267.5 214 q44.5 -48 115.5 -48 q71 0 115.5 48 q44.5 48 44.5 119 q0 71 -44.5 119 q-44.5 48 -115.5 48 q-71 0 -115.5 -48 q-44.5 -48 -44.5 -119 q0 -71 44.5 -119 Z" /><glyph glyph-name="afii10033" unicode="&#x41f;" d="M697 0 l-202 0 l0 491 l-239 0 l0 -491 l-202 0 l0 667 l643 0 l0 -667 Z" /><glyph glyph-name="afii10034" unicode="&#x420;" d="M256 0 l-202 0 l0 667 l356 0 q113 0 176.5 -65.5 q63.5 -65.5 63.5 -163.5 q0 -97 -63.5 -162.5 q-63.5 -65.5 -176.5 -65.5 l-154 0 l0 -210 ZM384 386 q27 0 44 13.5 q17 13.5 17 38.5 q0 26 -17 39.5 q-17 13.5 -44 13.5 l-128 0 l0 -105 l128 0 Z" /><glyph glyph-name="afii10035" unicode="&#x421;" d="M385 -12 q-158 0 -262.5 96.5 q-104.5 96.5 -104.5 248.5 q0 153 104 249 q104 96 263 96 q120 0 193.5 -56 q73.5 -56 109.5 -138 l-174 -81 q-13 40 -49 68.5 q-36 28.5 -80 28.5 q-72 0 -117 -48 q-45 -48 -45 -119 q0 -71 45 -119 q45 -48 117 -48 q44 0 80 28.5 q36 28.5 49 68.5 l174 -80 q-16 -37 -40 -68.5 q-24 -31.5 -60 -61.5 q-36 -30 -88.5 -47.5 q-52.5 -17.5 -114.5 -17.5 Z" /><glyph glyph-name="afii10036" unicode="&#x422;" d="M399 0 l-202 0 l0 491 l-179 0 l0 176 l559 0 l0 -176 l-178 0 l0 -491 Z" /><glyph glyph-name="afii10037" unicode="&#x423;" d="M169 -12 q-116 0 -186 54 l82 154 q44 -30 86 -30 q46 0 67 32 l-235 469 l226 0 l123 -271 l124 271 l226 0 l-267 -533 q-74 -146 -246 -146 Z" /><glyph glyph-name="afii10038" unicode="&#x424;" d="M553 0 l-202 0 l0 68 q-161 15 -247 81.5 q-86 66.5 -86 183.5 q0 117 86 183 q86 66 247 81 l0 70 l202 0 l0 -70 q161 -15 247 -81.5 q86 -66.5 86 -182.5 q0 -117 -86.5 -183.5 q-86.5 -66.5 -246.5 -81.5 l0 -68 ZM223 333 q0 -71 128 -86 l0 172 q-128 -16 -128 -86 ZM681 333 q0 70 -128 86 l0 -172 q128 15 128 86 Z" /><glyph glyph-name="afii10039" unicode="&#x425;" d="M702 0 l-238 0 l-122 204 l-122 -204 l-238 0 l223 342 l-208 325 l237 0 l108 -190 l106 190 l239 0 l-208 -324 l223 -343 Z" /><glyph glyph-name="afii10040" unicode="&#x426;" d="M553 -123 l0 123 l-499 0 l0 667 l202 0 l0 -491 l239 0 l0 491 l202 0 l0 -491 l58 0 l0 -299 l-202 0 Z" /><glyph glyph-name="afii10041" unicode="&#x427;" d="M246 667 l0 -211 q0 -82 92 -82 q57 0 97 15 l0 278 l202 0 l0 -667 l-202 0 l0 213 q-77 -15 -127 -15 q-133 0 -200 69 q-67 69 -67 189 l0 211 l205 0 Z" /><glyph glyph-name="afii10042" unicode="&#x428;" d="M796 667 l202 0 l0 -667 l-944 0 l0 667 l202 0 l0 -491 l169 0 l0 491 l202 0 l0 -491 l169 0 l0 491 Z" /><glyph glyph-name="afii10043" unicode="&#x429;" d="M796 667 l202 0 l0 -491 l58 0 l0 -299 l-202 0 l0 123 l-800 0 l0 667 l202 0 l0 -491 l169 0 l0 491 l202 0 l0 -491 l169 0 l0 491 Z" /><glyph glyph-name="afii10044" unicode="&#x42a;" d="M553 0 l-356 0 l0 491 l-179 0 l0 176 l381 0 l0 -210 l154 0 q113 0 176.5 -65.5 q63.5 -65.5 63.5 -162.5 q0 -98 -63.5 -163.5 q-63.5 -65.5 -176.5 -65.5 ZM527 281 l-128 0 l0 -105 l128 0 q27 0 44 13.5 q17 13.5 17 39.5 q0 25 -17 38.5 q-17 13.5 -44 13.5 Z" /><glyph glyph-name="afii10045" unicode="&#x42b;" d="M54 667 l202 0 l0 -210 l154 0 q113 0 176.5 -65.5 q63.5 -65.5 63.5 -162.5 q0 -98 -63.5 -163.5 q-63.5 -65.5 -176.5 -65.5 l-356 0 l0 667 ZM384 281 l-128 0 l0 -105 l128 0 q27 0 44 13.5 q17 13.5 17 39.5 q0 25 -17 38.5 q-17 13.5 -44 13.5 ZM893 0 l-202 0 l0 667 l202 0 l0 -667 Z" /><glyph glyph-name="afii10046" unicode="&#x42c;" d="M54 667 l202 0 l0 -210 l154 0 q113 0 176.5 -65.5 q63.5 -65.5 63.5 -162.5 q0 -98 -63.5 -163.5 q-63.5 -65.5 -176.5 -65.5 l-356 0 l0 667 ZM384 281 l-128 0 l0 -105 l128 0 q27 0 44 13.5 q17 13.5 17 39.5 q0 25 -17 38.5 q-17 13.5 -44 13.5 Z" /><glyph glyph-name="afii10047" unicode="&#x42d;" d="M312 -12 q-62 0 -114.5 17.5 q-52.5 17.5 -88.5 47.5 q-36 30 -60 61.5 q-24 31.5 -40 68.5 l174 80 q13 -41 50.5 -69 q37.5 -28 86.5 -28 q100 0 137 83 l-228 0 l0 176 l224 0 q-38 75 -133 75 q-49 0 -86.5 -28 q-37.5 -28 -50.5 -69 l-174 81 q36 82 109.5 138 q73.5 56 193.5 56 q159 0 263 -96 q104 -96 104 -249 q0 -152 -104.5 -248.5 q-104.5 -96.5 -262.5 -96.5 Z" /><glyph glyph-name="afii10048" unicode="&#x42e;" d="M725 -12 q-135 0 -233 73 q-98 73 -124 194 l-112 0 l0 -255 l-202 0 l0 667 l202 0 l0 -236 l117 0 q31 112 127.5 179.5 q96.5 67.5 224.5 67.5 q156 0 260.5 -96.5 q104.5 -96.5 104.5 -248.5 q0 -152 -104.5 -248.5 q-104.5 -96.5 -260.5 -96.5 ZM609.5 214 q44.5 -48 115.5 -48 q71 0 115.5 48 q44.5 48 44.5 119 q0 71 -44.5 119 q-44.5 48 -115.5 48 q-71 0 -115.5 -48 q-44.5 -48 -44.5 -119 q0 -71 44.5 -119 Z" /><glyph glyph-name="afii10049" unicode="&#x42f;" d="M257 0 l-230 0 l121 236 q-49 24 -84.5 74 q-35.5 50 -35.5 128 q0 98 63.5 163.5 q63.5 65.5 176.5 65.5 l356 0 l0 -667 l-202 0 l0 210 l-73 0 l-92 -210 ZM299 386 l123 0 l0 105 l-123 0 q-28 0 -47 -13.5 q-19 -13.5 -19 -38.5 q0 -26 19 -39.5 q19 -13.5 47 -13.5 Z" /><glyph glyph-name="afii10065" unicode="&#x430;" d="M509 0 l-180 0 l0 46 q-20 -26 -60.5 -42 q-40.5 -16 -85.5 -16 q-62 0 -114 41.5 q-52 41.5 -52 117.5 q0 56 27.5 92.5 q27.5 36.5 62.5 49 q35 12.5 76 12.5 q104 0 146 -53 l0 50 q0 26 -23.5 43 q-23.5 17 -66.5 17 q-72 0 -134 -47 l-61 111 q91 73 228 73 q48 0 88 -9.5 q40 -9.5 75 -31 q35 -21.5 54.5 -63 q19.5 -41.5 19.5 -99.5 l0 -292 ZM258 105 q53 0 71 26 l0 27 q-18 26 -71 26 q-63 0 -63 -40 q0 -39 63 -39 Z" /><glyph glyph-name="afii10066" unicode="&#x431;" d="M288 147 q41 0 64 26.5 q23 26.5 23 69.5 q0 40 -23 66.5 q-23 26.5 -64 26.5 q-40 0 -63 -26.5 q-23 -26.5 -23 -66.5 q0 -42 23 -69 q23 -27 63 -27 ZM288 -12 q-125 0 -198 77.5 q-73 77.5 -73 198.5 q0 173 66.5 262 q66.5 89 200.5 110 q57 9 57 31 l200 0 q0 -105 -191 -135 q-78 -13 -114.5 -37.5 q-36.5 -24.5 -47.5 -63.5 q54 64 146 64 q100 0 163 -74 q63 -74 63 -178 q0 -107 -74 -181 q-74 -74 -198 -74 Z" /><glyph glyph-name="afii10067" unicode="&#x432;" d="M409 0 l-359 0 l0 483 l348 0 q76 0 117 -38 q41 -38 41 -86 q0 -41 -23 -70 q-23 -29 -61 -40 q42 -8 68.5 -40 q26.5 -32 26.5 -77 q0 -55 -41 -93.5 q-41 -38.5 -117 -38.5 ZM360 133 q11 0 18.5 6 q7.5 6 7.5 16 q0 23 -26 23 l-130 0 l0 -45 l130 0 ZM353 310 q9 0 15.5 6 q6.5 6 6.5 14 q0 8 -6 14 q-6 6 -16 6 l-123 0 l0 -40 l123 0 Z" /><glyph glyph-name="afii10068" unicode="&#x433;" d="M442 483 l0 -156 l-212 0 l0 -327 l-180 0 l0 483 l392 0 Z" /><glyph glyph-name="afii10069" unicode="&#x434;" d="M18 -123 l0 273 q29 0 45.5 19 q16.5 19 25.5 83 l34 231 l434 0 l0 -327 l53 0 l0 -279 l-180 0 l0 123 l-232 0 l0 -123 l-180 0 ZM277 327 l-11 -75 q-9 -61 -38 -96 l149 0 l0 171 l-100 0 Z" /><glyph glyph-name="afii10070" unicode="&#x435;" d="M286 -12 q-116 0 -192.5 69 q-76.5 69 -76.5 185 q0 107 74 180 q74 73 189 73 q109 0 180 -73.5 q71 -73.5 71 -198.5 l0 -37 l-328 0 q8 -25 35 -43 q27 -18 69 -18 q23 0 58.5 10 q35.5 10 52.5 24 l74 -111 q-34 -29 -91 -44.5 q-57 -15.5 -115 -15.5 ZM360 300 q-14 58 -80 58 q-63 0 -79 -58 l159 0 Z" /><glyph glyph-name="afii10072" unicode="&#x436;" d="M209 0 l-221 0 l177 263 l-166 220 l217 0 l91 -141 l0 141 l180 0 l0 -141 l91 141 l217 0 l-166 -220 l177 -263 l-221 0 l-83 156 l-15 -20 l0 -136 l-180 0 l0 136 l-15 20 l-83 -156 Z" /><glyph glyph-name="afii10073" unicode="&#x437;" d="M231 -12 q-74 0 -134.5 21 q-60.5 21 -96.5 55 l80 105 q63 -46 151 -46 q59 0 59 24 q0 30 -65 30 l-90 0 l0 132 l90 0 q35 0 45.5 6.5 q10.5 6.5 10.5 20.5 q0 24 -54 24 q-83 0 -137 -49 l-85 101 q84 82 213 82 q123 1 185.5 -35.5 q62.5 -36.5 63.5 -99.5 q0 -39 -34.5 -70 q-34.5 -31 -87.5 -40 q50 -3 90.5 -34.5 q40.5 -31.5 40.5 -78.5 q1 -66 -66 -106.5 q-67 -40.5 -179 -41.5 Z" /><glyph glyph-name="afii10074" unicode="&#x438;" d="M222 0 l-172 0 l0 483 l180 0 l0 -215 l145 215 l182 0 l0 -483 l-180 0 l0 229 l-155 -229 Z" /><glyph glyph-name="afii10075" unicode="&#x439;" d="M222 0 l-172 0 l0 483 l180 0 l0 -215 l145 215 l182 0 l0 -483 l-180 0 l0 229 l-155 -229 ZM479 612 q-65 -88 -175 -88 q-109 0 -176 88 l76 62 q38 -53 100 -53 q63 0 100 53 l75 -62 Z" /><glyph glyph-name="afii10076" unicode="&#x43a;" d="M569 0 l-221 0 l-83 156 l-35 -47 l0 -109 l-180 0 l0 483 l180 0 l0 -172 l111 172 l217 0 l-166 -220 l177 -263 Z" /><glyph glyph-name="afii10077" unicode="&#x43b;" d="M18 -12 l0 147 q27 0 44.5 25.5 q17.5 25.5 26.5 91.5 l34 231 l434 0 l0 -483 l-180 0 l0 327 l-100 0 l-14 -99 q-17 -118 -73.5 -179 q-56.5 -61 -171.5 -61 Z" /><glyph glyph-name="afii10078" unicode="&#x43c;" d="M693 0 l-179 0 l0 263 l-93 -263 l-98 0 l-93 263 l0 -263 l-180 0 l0 483 l238 0 l83 -233 l84 233 l238 0 l0 -483 Z" /><glyph glyph-name="afii10079" unicode="&#x43d;" d="M230 0 l-180 0 l0 483 l180 0 l0 -153 l147 0 l0 153 l180 0 l0 -483 l-180 0 l0 174 l-147 0 l0 -174 Z" /><glyph glyph-name="afii10080" unicode="&#x43e;" d="M486 62 q-74 -74 -198 -74 q-124 0 -197.5 74 q-73.5 74 -73.5 180 q0 106 73.5 179.5 q73.5 73.5 197.5 73.5 q124 0 198 -73.5 q74 -73.5 74 -179.5 q0 -106 -74 -180 ZM288 147 q41 0 64 26.5 q23 26.5 23 68.5 q0 41 -23 67.5 q-23 26.5 -64 26.5 q-40 0 -63 -26.5 q-23 -26.5 -23 -67.5 q0 -42 23 -68.5 q23 -26.5 63 -26.5 Z" /><glyph glyph-name="afii10081" unicode="&#x43f;" d="M557 0 l-180 0 l0 327 l-147 0 l0 -327 l-180 0 l0 483 l507 0 l0 -483 Z" /><glyph glyph-name="afii10082" unicode="&#x440;" d="M366 -12 q-81 0 -136 63 l0 -235 l-180 0 l0 667 l180 0 l0 -51 q53 63 136 63 q93 0 152.5 -66.5 q59.5 -66.5 59.5 -186.5 q0 -121 -59.5 -187.5 q-59.5 -66.5 -152.5 -66.5 ZM304 147 q38 0 64 25.5 q26 25.5 26 69.5 q0 43 -26 68.5 q-26 25.5 -64 25.5 q-19 0 -40.5 -9 q-21.5 -9 -33.5 -24 l0 -123 q11 -14 33.5 -23.5 q22.5 -9.5 40.5 -9.5 Z" /><glyph glyph-name="afii10083" unicode="&#x441;" d="M288 -12 q-117 0 -194 70 q-77 70 -77 184 q0 113 77 183 q77 70 194 70 q75 0 128 -27.5 q53 -27.5 77 -63.5 l-116 -109 q-27 41 -81 41 q-40 0 -67.5 -24.5 q-27.5 -24.5 -27.5 -69.5 q0 -45 27.5 -70 q27.5 -25 67.5 -25 q52 0 81 42 l116 -110 q-24 -36 -77 -63.5 q-53 -27.5 -128 -27.5 Z" /><glyph glyph-name="afii10084" unicode="&#x442;" d="M324 0 l-180 0 l0 327 l-129 0 l0 156 l436 0 l0 -156 l-127 0 l0 -327 Z" /><glyph glyph-name="afii10085" unicode="&#x443;" d="M45 -188 l25 160 q16 -9 38 -9 q54 0 63 19 l4 10 l-190 491 l190 0 l92 -276 l93 276 l190 0 l-210 -543 q-30 -78 -84 -105.5 q-54 -27.5 -141 -30.5 q-43 0 -70 8 Z" /><glyph glyph-name="afii10086" unicode="&#x444;" d="M213 495 q75 0 126 -63 l0 235 l180 0 l0 -235 q49 63 126 63 q86 0 141 -66.5 q55 -66.5 55 -186.5 q0 -121 -55 -187.5 q-55 -66.5 -141 -66.5 q-75 0 -126 63 l0 -235 l-180 0 l0 235 q-49 -63 -126 -63 q-86 0 -141 66.5 q-55 66.5 -55 186.5 q0 121 55 187.5 q55 66.5 141 66.5 ZM275 336 q-32 0 -54.5 -25.5 q-22.5 -25.5 -22.5 -69.5 q0 -43 22.5 -68.5 q22.5 -25.5 54.5 -25.5 q40 0 64 33 l0 123 q-10 14 -29 23.5 q-19 9.5 -35 9.5 ZM583 147 q32 0 54.5 25.5 q22.5 25.5 22.5 69.5 q0 43 -22.5 68.5 q-22.5 25.5 -54.5 25.5 q-40 0 -64 -33 l0 -123 q10 -14 29 -23.5 q19 -9.5 35 -9.5 Z" /><glyph glyph-name="afii10087" unicode="&#x445;" d="M533 0 l-197 0 l-75 128 l-77 -128 l-196 0 l158 248 l-148 235 l197 0 l65 -113 l65 113 l197 0 l-148 -235 l159 -248 Z" /><glyph glyph-name="afii10088" unicode="&#x446;" d="M430 -123 l0 123 l-380 0 l0 483 l180 0 l0 -327 l147 0 l0 327 l180 0 l0 -327 l53 0 l0 -279 l-180 0 Z" /><glyph glyph-name="afii10089" unicode="&#x447;" d="M40 483 l180 0 l0 -135 q0 -69 70 -69 q46 0 77 21 l0 183 l180 0 l0 -483 l-180 0 l0 158 q-59 -38 -147 -38 q-180 0 -180 172 l0 191 Z" /><glyph glyph-name="afii10090" unicode="&#x448;" d="M666 483 l180 0 l0 -483 l-796 0 l0 483 l180 0 l0 -327 l128 0 l0 327 l180 0 l0 -327 l128 0 l0 327 Z" /><glyph glyph-name="afii10091" unicode="&#x449;" d="M666 483 l180 0 l0 -327 l53 0 l0 -279 l-180 0 l0 123 l-669 0 l0 483 l180 0 l0 -327 l128 0 l0 327 l180 0 l0 -327 l128 0 l0 327 Z" /><glyph glyph-name="afii10092" unicode="&#x44a;" d="M476 0 l-332 0 l0 327 l-129 0 l0 156 l309 0 l0 -144 l152 0 q88 0 136.5 -48.5 q48.5 -48.5 48.5 -121.5 q0 -71 -50.5 -120 q-50.5 -49 -134.5 -49 ZM442 198 l-118 0 l0 -57 l118 0 q16 0 26.5 8 q10.5 8 10.5 20 q0 13 -10.5 21 q-10.5 8 -26.5 8 Z" /><glyph glyph-name="afii10093" unicode="&#x44b;" d="M50 483 l180 0 l0 -144 l152 0 q88 0 136.5 -48.5 q48.5 -48.5 48.5 -121.5 q0 -71 -50.5 -120 q-50.5 -49 -134.5 -49 l-332 0 l0 483 ZM348 198 l-118 0 l0 -57 l118 0 q16 0 26.5 8 q10.5 8 10.5 20 q0 13 -10.5 21 q-10.5 8 -26.5 8 ZM788 0 l-180 0 l0 483 l180 0 l0 -483 Z" /><glyph glyph-name="afii10094" unicode="&#x44c;" d="M50 483 l180 0 l0 -144 l152 0 q88 0 136.5 -48.5 q48.5 -48.5 48.5 -121.5 q0 -71 -50.5 -120 q-50.5 -49 -134.5 -49 l-332 0 l0 483 ZM348 198 l-118 0 l0 -57 l118 0 q16 0 26.5 8 q10.5 8 10.5 20 q0 13 -10.5 21 q-10.5 8 -26.5 8 Z" /><glyph glyph-name="afii10095" unicode="&#x44d;" d="M214 -12 q-75 0 -128 27.5 q-53 27.5 -77 63.5 l109 91 q33 -47 84 -47 q64 0 89 63 l-139 0 l0 114 l138 0 q-24 59 -88 59 q-52 0 -84 -45 l-109 90 q24 36 77 63.5 q53 27.5 128 27.5 q117 0 194 -70 q77 -70 77 -183 q0 -114 -77 -184 q-77 -70 -194 -70 Z" /><glyph glyph-name="afii10096" unicode="&#x44e;" d="M565 -12 q-103 0 -172 52 q-69 52 -91 134 l-72 0 l0 -174 l-180 0 l0 483 l180 0 l0 -153 l79 0 q27 74 93.5 119.5 q66.5 45.5 162.5 45.5 q124 0 198 -73.5 q74 -73.5 74 -179.5 q0 -106 -74 -180 q-74 -74 -198 -74 ZM565 147 q41 0 64 26.5 q23 26.5 23 68.5 q0 41 -23 67.5 q-23 26.5 -64 26.5 q-40 0 -63 -26.5 q-23 -26.5 -23 -67.5 q0 -42 23 -68.5 q23 -26.5 63 -26.5 Z" /><glyph glyph-name="afii10097" unicode="&#x44f;" d="M239 0 l-200 0 l95 162 q-36 16 -65 53 q-29 37 -29 99 q0 71 50.5 120 q50.5 49 134.5 49 l332 0 l0 -483 l-180 0 l0 144 l-71 0 l-67 -144 ZM259 285 l118 0 l0 57 l-118 0 q-16 0 -26.5 -8 q-10.5 -8 -10.5 -20 q0 -13 10.5 -21 q10.5 -8 26.5 -8 Z" /><glyph glyph-name="afii10071" unicode="&#x451;" d="M455 681 q26 -26 26 -63 q0 -37 -26 -63 q-26 -26 -64 -26 q-37 0 -63 26 q-26 26 -26 63 q0 37 26 63 q26 26 63 26 q38 0 64 -26 ZM238 681.5 q26 -25.5 26 -63.5 q0 -38 -26 -63.5 q-26 -25.5 -63 -25.5 q-37 0 -63 25.5 q-26 25.5 -26 63.5 q0 38 26 63.5 q26 25.5 63 25.5 q37 0 63 -25.5 ZM286 -12 q-116 0 -192.5 69 q-76.5 69 -76.5 185 q0 107 74 180 q74 73 189 73 q109 0 180 -73.5 q71 -73.5 71 -198.5 l0 -37 l-328 0 q8 -25 35 -43 q27 -18 69 -18 q23 0 58.5 10 q35.5 10 52.5 24 l74 -111 q-34 -29 -91 -44.5 q-57 -15.5 -115 -15.5 ZM360 300 q-14 58 -80 58 q-63 0 -79 -58 l159 0 Z" /><glyph glyph-name="afii10099" unicode="&#x452;" d="M370 521 l-134 0 l0 -93 q59 67 166 67 q80 0 120.5 -41.5 q40.5 -41.5 40.5 -108.5 l0 -324 q0 -98 -50 -157.5 q-50 -59.5 -151 -59.5 q-52 0 -78 7 q-26 7 -57 26 l43 133 q25 -19 60 -19 q53 0 53 70 l0 248 q0 67 -70 67 q-43 0 -77 -38 l0 -298 l-180 0 l0 521 l-49 0 l0 97 l49 0 l0 49 l180 0 l0 -49 l134 0 l0 -97 Z" /><glyph glyph-name="afii10100" unicode="&#x453;" d="M453 700 l-155 -144 l-120 0 l120 144 l155 0 ZM442 483 l0 -156 l-212 0 l0 -327 l-180 0 l0 483 l392 0 Z" /><glyph glyph-name="afii10101" unicode="&#x454;" d="M288 -12 q-117 0 -194 70 q-77 70 -77 184 q0 113 77 183 q77 70 194 70 q75 0 128 -27.5 q53 -27.5 77 -63.5 l-109 -90 q-32 45 -84 45 q-65 0 -89 -59 l139 0 l0 -114 l-140 0 q25 -63 90 -63 q51 0 84 47 l109 -91 q-24 -36 -77 -63.5 q-53 -27.5 -128 -27.5 Z" /><glyph glyph-name="afii10102" unicode="&#x455;" d="M246 -12 q-66 0 -132 20.5 q-66 20.5 -105 53.5 l72 121 q29 -23 82 -42 q53 -19 92 -19 q48 0 48 21 q0 10 -20.5 16 q-20.5 6 -50.5 8.5 q-30 2.5 -66 11.5 q-36 9 -66 23.5 q-30 14.5 -50.5 47.5 q-20.5 33 -20.5 80 q0 69 57.5 117 q57.5 48 158.5 48 q115 0 209 -62 l-66 -117 q-25 20 -63.5 35 q-38.5 15 -78.5 15 q-19 0 -32 -6.5 q-13 -6.5 -13 -14.5 q0 -10 28 -15 q28 -5 68.5 -12 q40.5 -7 81 -21 q40.5 -14 68.5 -50.5 q28 -36.5 28 -92.5 q0 -73 -62 -119.5 q-62 -46.5 -167 -46.5 Z" /><glyph glyph-name="afii10103" unicode="&#x456;" d="M211.5 547.5 q-29.5 -29.5 -71.5 -29.5 q-42 0 -71.5 29.5 q-29.5 29.5 -29.5 71.5 q0 42 29.5 71.5 q29.5 29.5 71.5 29.5 q42 0 71.5 -29.5 q29.5 -29.5 29.5 -71.5 q0 -42 -29.5 -71.5 ZM230 0 l-180 0 l0 483 l180 0 l0 -483 Z" /><glyph glyph-name="afii10104" unicode="&#x457;" d="M312 681 q26 -26 26 -63 q0 -37 -26 -63 q-26 -26 -64 -26 q-37 0 -63 26 q-26 26 -26 63 q0 37 26 63 q26 26 63 26 q38 0 64 -26 ZM95.5 681.5 q25.5 -25.5 25.5 -63.5 q0 -38 -25.5 -63.5 q-25.5 -25.5 -63.5 -25.5 q-38 0 -63.5 25.5 q-25.5 25.5 -25.5 63.5 q0 38 25.5 63.5 q25.5 25.5 63.5 25.5 q38 0 63.5 -25.5 ZM230 0 l-180 0 l0 483 l180 0 l0 -483 Z" /><glyph glyph-name="afii10105" unicode="&#x458;" d="M211.5 547.5 q-29.5 -29.5 -71.5 -29.5 q-42 0 -71.5 29.5 q-29.5 29.5 -29.5 71.5 q0 42 29.5 71.5 q29.5 29.5 71.5 29.5 q42 0 71.5 -29.5 q29.5 -29.5 29.5 -71.5 q0 -42 -29.5 -71.5 ZM29 -196 q-52 0 -78 7 q-26 7 -57 26 l43 133 q25 -19 60 -19 q53 0 53 70 l0 462 l180 0 l0 -462 q0 -98 -50 -157.5 q-50 -59.5 -151 -59.5 Z" /><glyph glyph-name="afii10106" unicode="&#x459;" d="M18 -12 l0 147 q27 0 44.5 25.5 q17.5 25.5 26.5 91.5 l34 231 l434 0 l0 -144 l152 0 q88 0 136.5 -48.5 q48.5 -48.5 48.5 -121.5 q0 -71 -50.5 -120 q-50.5 -49 -134.5 -49 l-332 0 l0 327 l-100 0 l-14 -99 q-17 -118 -73.5 -179 q-56.5 -61 -171.5 -61 ZM675 198 l-118 0 l0 -57 l118 0 q16 0 26.5 8 q10.5 8 10.5 20 q0 13 -10.5 21 q-10.5 8 -26.5 8 Z" /><glyph glyph-name="afii10107" unicode="&#x45a;" d="M230 0 l-180 0 l0 483 l180 0 l0 -144 l147 0 l0 144 l180 0 l0 -144 l152 0 q88 0 136.5 -48.5 q48.5 -48.5 48.5 -121.5 q0 -71 -50.5 -120 q-50.5 -49 -134.5 -49 l-332 0 l0 183 l-147 0 l0 -183 ZM675 198 l-118 0 l0 -57 l118 0 q16 0 26.5 8 q10.5 8 10.5 20 q0 13 -10.5 21 q-10.5 8 -26.5 8 Z" /><glyph glyph-name="afii10108" unicode="&#x45b;" d="M370 521 l-134 0 l0 -93 q59 67 166 67 q80 0 120.5 -41.5 q40.5 -41.5 40.5 -108.5 l0 -345 l-180 0 l0 269 q0 67 -70 67 q-43 0 -77 -38 l0 -298 l-180 0 l0 521 l-49 0 l0 97 l49 0 l0 49 l180 0 l0 -49 l134 0 l0 -97 Z" /><glyph glyph-name="afii10109" unicode="&#x45c;" d="M486 700 l-155 -144 l-120 0 l120 144 l155 0 ZM569 0 l-221 0 l-83 156 l-35 -47 l0 -109 l-180 0 l0 483 l180 0 l0 -172 l111 172 l217 0 l-166 -220 l177 -263 Z" /><glyph glyph-name="afii10110" unicode="&#x45e;" d="M45 -188 l25 160 q16 -9 38 -9 q54 0 63 19 l4 10 l-190 491 l190 0 l92 -276 l93 276 l190 0 l-210 -543 q-30 -78 -84 -105.5 q-54 -27.5 -141 -30.5 q-43 0 -70 8 ZM443 612 q-65 -88 -175 -88 q-109 0 -176 88 l76 62 q38 -53 100 -53 q63 0 100 53 l75 -62 Z" /><glyph glyph-name="afii10193" unicode="&#x45f;" d="M213 -123 l0 123 l-163 0 l0 483 l180 0 l0 -327 l147 0 l0 327 l180 0 l0 -483 l-164 0 l0 -123 l-180 0 Z" /><glyph glyph-name="afii10050" unicode="&#x490;" d="M256 491 l0 -491 l-202 0 l0 667 l304 0 l0 123 l202 0 l0 -299 l-304 0 Z" /><glyph glyph-name="afii10098" unicode="&#x491;" d="M230 327 l0 -327 l-180 0 l0 483 l212 0 l0 123 l180 0 l0 -279 l-212 0 Z" /><glyph glyph-name="uni1E02" unicode="&#x1e02;" d="M473 0 l-419 0 l0 667 l405 0 q96 0 147 -52 q51 -52 51 -118 q0 -61 -32 -101.5 q-32 -40.5 -82 -51.5 q55 -8 91 -53.5 q36 -45.5 36 -109.5 q0 -75 -51 -128 q-51 -53 -146 -53 ZM412 421 q16 0 28 11.5 q12 11.5 12 28.5 q0 17 -12 27.5 q-12 10.5 -28 10.5 l-156 0 l0 -78 l156 0 ZM418 168 q22 0 34.5 11.5 q12.5 11.5 12.5 30.5 q0 18 -13 30.5 q-13 12.5 -34 12.5 l-162 0 l0 -85 l162 0 ZM349 697 q-37 0 -63 26 q-26 26 -26 63 q0 37 26 63 q26 26 63 26 q36 0 62 -26 q26 -26 26 -63 q0 -37 -26 -63 q-26 -26 -62 -26 Z" /><glyph glyph-name="uni1E03" unicode="&#x1e03;" d="M230 179 q26 -32 75 -32 q38 0 64 25.5 q26 25.5 26 69.5 q0 43 -26 68.5 q-26 25.5 -64 25.5 q-48 0 -75 -33 l0 -124 ZM230 0 l-180 0 l0 667 l180 0 l0 -235 q52 63 136 63 q92 0 152.5 -68 q60.5 -68 60.5 -185 q0 -120 -60.5 -187 q-60.5 -67 -152.5 -67 q-80 0 -136 63 l0 -51 ZM305 697 q-37 0 -63 26 q-26 26 -26 63 q0 37 26 63 q26 26 63 26 q36 0 62 -26 q26 -26 26 -63 q0 -37 -26 -63 q-26 -26 -62 -26 Z" /><glyph glyph-name="uni1E0A" unicode="&#x1e0a;" d="M353 0 l-299 0 l0 667 l298 0 q162 0 264 -88.5 q102 -88.5 102 -244.5 q0 -156 -102 -245 q-102 -89 -263 -89 ZM352 176 q73 0 117 46 q44 46 44 112 q0 71 -41 114 q-41 43 -119 43 l-97 0 l0 -315 l96 0 ZM368 697 q-37 0 -63 26 q-26 26 -26 63 q0 37 26 63 q26 26 63 26 q36 0 62 -26 q26 -26 26 -63 q0 -37 -26 -63 q-26 -26 -62 -26 Z" /><glyph glyph-name="uni1E0B" unicode="&#x1e0b;" d="M546 0 l-180 0 l0 51 q-56 -63 -136 -63 q-92 0 -152.5 67 q-60.5 67 -60.5 187 q0 117 60.5 185 q60.5 68 152.5 68 q84 0 136 -63 l0 235 l180 0 l0 -667 ZM291 147 q48 0 75 33 l0 124 q-26 32 -75 32 q-38 0 -64 -25.5 q-26 -25.5 -26 -68.5 q0 -44 26 -69.5 q26 -25.5 64 -25.5 ZM293 697 q-37 0 -63 26 q-26 26 -26 63 q0 37 26 63 q26 26 63 26 q36 0 62 -26 q26 -26 26 -63 q0 -37 -26 -63 q-26 -26 -62 -26 Z" /><glyph glyph-name="uni1E1E" unicode="&#x1e1e;" d="M311 697 q-37 0 -63 26 q-26 26 -26 63 q0 37 26 63 q26 26 63 26 q36 0 62 -26 q26 -26 26 -63 q0 -37 -26 -63 q-26 -26 -62 -26 ZM256 0 l-202 0 l0 667 l506 0 l0 -176 l-304 0 l0 -66 l297 0 l0 -176 l-297 0 l0 -249 Z" /><glyph glyph-name="uni1E1F" unicode="&#x1e1f;" d="M272 697 q-37 0 -63 26 q-26 26 -26 63 q0 37 26 63 q26 26 63 26 q36 0 62 -26 q26 -26 26 -63 q0 -37 -26 -63 q-26 -26 -62 -26 ZM267 0 l-180 0 l0 327 l-80 0 l0 156 l80 0 l0 22 q0 76 52 124 q52 48 132 48 q102 0 151 -52 l-65 -100 q-16 19 -44 19 q-18 0 -32 -11 q-14 -11 -14 -28 l0 -22 l98 0 l0 -156 l-98 0 l0 -327 Z" /><glyph glyph-name="uni1E22" unicode="&#x1e22;" d="M697 0 l-202 0 l0 255 l-239 0 l0 -255 l-202 0 l0 667 l202 0 l0 -236 l239 0 l0 236 l202 0 l0 -667 ZM376 697 q-37 0 -63 26 q-26 26 -26 63 q0 37 26 63 q26 26 63 26 q36 0 62 -26 q26 -26 26 -63 q0 -37 -26 -63 q-26 -26 -62 -26 Z" /><glyph glyph-name="uni1E23" unicode="&#x1e23;" d="M558 0 l-180 0 l0 269 q0 67 -70 67 q-43 0 -77 -38 l0 -298 l-180 0 l0 667 l180 0 l0 -239 q59 67 166 67 q80 0 120.5 -41.5 q40.5 -41.5 40.5 -108.5 l0 -345 ZM304 697 q-37 0 -63 26 q-26 26 -26 63 q0 37 26 63 q26 26 63 26 q36 0 62 -26 q26 -26 26 -63 q0 -37 -26 -63 q-26 -26 -62 -26 Z" /><glyph glyph-name="uni1E56" unicode="&#x1e56;" d="M256 0 l-202 0 l0 667 l356 0 q113 0 176.5 -65.5 q63.5 -65.5 63.5 -163.5 q0 -97 -63.5 -162.5 q-63.5 -65.5 -176.5 -65.5 l-154 0 l0 -210 ZM384 386 q27 0 44 13.5 q17 13.5 17 38.5 q0 26 -17 39.5 q-17 13.5 -44 13.5 l-128 0 l0 -105 l128 0 ZM331 697 q-37 0 -63 26 q-26 26 -26 63 q0 37 26 63 q26 26 63 26 q36 0 62 -26 q26 -26 26 -63 q0 -37 -26 -63 q-26 -26 -62 -26 Z" /><glyph glyph-name="uni1E57" unicode="&#x1e57;" d="M366 -12 q-81 0 -136 63 l0 -235 l-180 0 l0 667 l180 0 l0 -51 q53 63 136 63 q93 0 152.5 -66.5 q59.5 -66.5 59.5 -186.5 q0 -121 -59.5 -187.5 q-59.5 -66.5 -152.5 -66.5 ZM304 147 q38 0 64 25.5 q26 25.5 26 69.5 q0 43 -26 68.5 q-26 25.5 -64 25.5 q-19 0 -40.5 -9 q-21.5 -9 -33.5 -24 l0 -123 q11 -14 33.5 -23.5 q22.5 -9.5 40.5 -9.5 ZM305 530 q-37 0 -63 26 q-26 26 -26 63 q0 37 26 63 q26 26 63 26 q36 0 62 -26 q26 -26 26 -63 q0 -37 -26 -63 q-26 -26 -62 -26 Z" /><glyph glyph-name="uni1E60" unicode="&#x1e60;" d="M313 -12 q-192 0 -310 106 l105 150 q90 -86 215 -86 q74 0 74 36 q0 17 -38.5 26 q-38.5 9 -93 19 q-54.5 10 -109 29 q-54.5 19 -93 67 q-38.5 48 -38.5 121 q0 91 73.5 156 q73.5 65 203.5 65 q169 0 283 -93 l-108 -143 q-87 66 -196 66 q-51 0 -51 -30 q0 -14 27.5 -24 q27.5 -10 68.5 -15.5 q41 -5.5 89.5 -20 q48.5 -14.5 89.5 -34.5 q41 -20 68.5 -62.5 q27.5 -42.5 27.5 -100.5 q0 -110 -76.5 -171 q-76.5 -61 -211.5 -61 ZM307 697 q-37 0 -63 26 q-26 26 -26 63 q0 37 26 63 q26 26 63 26 q36 0 62 -26 q26 -26 26 -63 q0 -37 -26 -63 q-26 -26 -62 -26 Z" /><glyph glyph-name="uni1E61" unicode="&#x1e61;" d="M246 -12 q-66 0 -132 20.5 q-66 20.5 -105 53.5 l72 121 q29 -23 82 -42 q53 -19 92 -19 q48 0 48 21 q0 10 -20.5 16 q-20.5 6 -50.5 8.5 q-30 2.5 -66 11.5 q-36 9 -66 23.5 q-30 14.5 -50.5 47.5 q-20.5 33 -20.5 80 q0 69 57.5 117 q57.5 48 158.5 48 q115 0 209 -62 l-66 -117 q-25 20 -63.5 35 q-38.5 15 -78.5 15 q-19 0 -32 -6.5 q-13 -6.5 -13 -14.5 q0 -10 28 -15 q28 -5 68.5 -12 q40.5 -7 81 -21 q40.5 -14 68.5 -50.5 q28 -36.5 28 -92.5 q0 -73 -62 -119.5 q-62 -46.5 -167 -46.5 ZM245 530 q-37 0 -63 26 q-26 26 -26 63 q0 37 26 63 q26 26 63 26 q36 0 62 -26 q26 -26 26 -63 q0 -37 -26 -63 q-26 -26 -62 -26 Z" /><glyph glyph-name="uni1E6A" unicode="&#x1e6a;" d="M399 0 l-202 0 l0 491 l-179 0 l0 176 l559 0 l0 -176 l-178 0 l0 -491 ZM298 697 q-37 0 -63 26 q-26 26 -26 63 q0 37 26 63 q26 26 63 26 q36 0 62 -26 q26 -26 26 -63 q0 -37 -26 -63 q-26 -26 -62 -26 Z" /><glyph glyph-name="uni1E6B" unicode="&#x1e6b;" d="M253 -12 q-81 0 -123.5 38.5 q-42.5 38.5 -42.5 113.5 l0 187 l-80 0 l0 156 l80 0 l0 132 l180 0 l0 -132 l98 0 l0 -156 l-98 0 l0 -135 q0 -19 11 -32 q11 -13 29 -13 q27 0 36 9 l32 -136 q-36 -32 -122 -32 ZM179 697 q-37 0 -63 26 q-26 26 -26 63 q0 37 26 63 q26 26 63 26 q36 0 62 -26 q26 -26 26 -63 q0 -37 -26 -63 q-26 -26 -62 -26 Z" /><glyph glyph-name="Wgrave" unicode="&#x1e80;" d="M775 0 l-212 0 l-86 378 l-86 -378 l-212 0 l-191 667 l226 0 l86 -408 l101 408 l152 0 l101 -408 l85 408 l227 0 l-191 -667 ZM547 723 l-120 0 l-155 144 l155 0 l120 -144 Z" /><glyph glyph-name="wgrave" unicode="&#x1e81;" d="M677 0 l-196 0 l-79 270 l-78 -270 l-196 0 l-140 483 l185 0 l64 -266 l85 266 l161 0 l84 -266 l64 266 l186 0 l-140 -483 ZM469 556 l-120 0 l-155 144 l155 0 l120 -144 Z" /><glyph glyph-name="Wacute" unicode="&#x1e82;" d="M684 867 l-155 -144 l-120 0 l120 144 l155 0 ZM775 0 l-212 0 l-86 378 l-86 -378 l-212 0 l-191 667 l226 0 l86 -408 l101 408 l152 0 l101 -408 l85 408 l227 0 l-191 -667 Z" /><glyph glyph-name="wacute" unicode="&#x1e83;" d="M607 700 l-155 -144 l-120 0 l120 144 l155 0 ZM677 0 l-196 0 l-79 270 l-78 -270 l-196 0 l-140 483 l185 0 l64 -266 l85 266 l161 0 l84 -266 l64 266 l186 0 l-140 -483 Z" /><glyph glyph-name="Wdieresis" unicode="&#x1e84;" d="M648 848 q26 -26 26 -63 q0 -37 -26 -63 q-26 -26 -64 -26 q-37 0 -63 26 q-26 26 -26 63 q0 37 26 63 q26 26 63 26 q38 0 64 -26 ZM431.5 848 q25.5 -26 25.5 -63 q0 -37 -25.5 -63 q-25.5 -26 -63.5 -26 q-38 0 -63.5 26 q-25.5 26 -25.5 63 q0 37 25.5 63 q25.5 26 63.5 26 q38 0 63.5 -26 ZM775 0 l-212 0 l-86 378 l-86 -378 l-212 0 l-191 667 l226 0 l86 -408 l101 408 l152 0 l101 -408 l85 408 l227 0 l-191 -667 Z" /><glyph glyph-name="wdieresis" unicode="&#x1e85;" d="M574 681 q26 -26 26 -63 q0 -37 -26 -63 q-26 -26 -64 -26 q-37 0 -63 26 q-26 26 -26 63 q0 37 26 63 q26 26 63 26 q38 0 64 -26 ZM357.5 681.5 q25.5 -25.5 25.5 -63.5 q0 -38 -25.5 -63.5 q-25.5 -25.5 -63.5 -25.5 q-38 0 -63.5 25.5 q-25.5 25.5 -25.5 63.5 q0 38 25.5 63.5 q25.5 25.5 63.5 25.5 q38 0 63.5 -25.5 ZM677 0 l-196 0 l-79 270 l-78 -270 l-196 0 l-140 483 l185 0 l64 -266 l85 266 l161 0 l84 -266 l64 266 l186 0 l-140 -483 Z" /><glyph glyph-name="uni1EA0" unicode="&#x1ea0;" d="M728 0 l-229 0 l-24 78 l-240 0 l-24 -78 l-229 0 l246 667 l254 0 l246 -667 ZM421 254 l-66 215 l-66 -215 l132 0 ZM356 -209 q-37 0 -63 26 q-26 26 -26 63 q0 37 26 63 q26 26 63 26 q36 0 62 -26 q26 -26 26 -63 q0 -37 -26 -63 q-26 -26 -62 -26 Z" /><glyph glyph-name="uni1EA1" unicode="&#x1ea1;" d="M509 0 l-180 0 l0 46 q-20 -26 -60.5 -42 q-40.5 -16 -85.5 -16 q-62 0 -114 41.5 q-52 41.5 -52 117.5 q0 56 27.5 92.5 q27.5 36.5 62.5 49 q35 12.5 76 12.5 q104 0 146 -53 l0 50 q0 26 -23.5 43 q-23.5 17 -66.5 17 q-72 0 -134 -47 l-61 111 q91 73 228 73 q48 0 88 -9.5 q40 -9.5 75 -31 q35 -21.5 54.5 -63 q19.5 -41.5 19.5 -99.5 l0 -292 ZM258 105 q53 0 71 26 l0 27 q-18 26 -71 26 q-63 0 -63 -40 q0 -39 63 -39 ZM280 -209 q-37 0 -63 26 q-26 26 -26 63 q0 37 26 63 q26 26 63 26 q36 0 62 -26 q26 -26 26 -63 q0 -37 -26 -63 q-26 -26 -62 -26 Z" /><glyph glyph-name="uni1EA2" unicode="&#x1ea2;" d="M728 0 l-229 0 l-24 78 l-240 0 l-24 -78 l-229 0 l246 667 l254 0 l246 -667 ZM421 254 l-66 215 l-66 -215 l132 0 ZM326 743 l-58 19 q20 58 86 58 q38 0 63 -19 q25 -19 25 -56 q0 -22 -12 -48 l-70 0 q17 18 17 44 q0 25 -23 25 q-18 0 -28 -23 Z" /><glyph glyph-name="uni1EA3" unicode="&#x1ea3;" d="M509 0 l-180 0 l0 46 q-20 -26 -60.5 -42 q-40.5 -16 -85.5 -16 q-62 0 -114 41.5 q-52 41.5 -52 117.5 q0 56 27.5 92.5 q27.5 36.5 62.5 49 q35 12.5 76 12.5 q104 0 146 -53 l0 50 q0 26 -23.5 43 q-23.5 17 -66.5 17 q-72 0 -134 -47 l-61 111 q91 73 228 73 q48 0 88 -9.5 q40 -9.5 75 -31 q35 -21.5 54.5 -63 q19.5 -41.5 19.5 -99.5 l0 -292 ZM258 105 q53 0 71 26 l0 27 q-18 26 -71 26 q-63 0 -63 -40 q0 -39 63 -39 ZM250 573 l-58 19 q20 58 86 58 q38 0 63 -19 q25 -19 25 -56 q0 -22 -12 -48 l-70 0 q17 18 17 44 q0 25 -23 25 q-18 0 -28 -23 Z" /><glyph glyph-name="uni1EA4" unicode="&#x1ea4;" d="M524 682 l-105 0 l-64 55 l-61 -55 l-105 0 l88 108 l156 0 l91 -108 ZM728 0 l-229 0 l-24 78 l-240 0 l-24 -78 l-229 0 l246 667 l254 0 l246 -667 ZM421 254 l-66 215 l-66 -215 l132 0 ZM764 843 l-155 -108 l-120 0 l120 108 l155 0 Z" /><glyph glyph-name="uni1EA5" unicode="&#x1ea5;" d="M509 0 l-180 0 l0 46 q-20 -26 -60.5 -42 q-40.5 -16 -85.5 -16 q-62 0 -114 41.5 q-52 41.5 -52 117.5 q0 56 27.5 92.5 q27.5 36.5 62.5 49 q35 12.5 76 12.5 q104 0 146 -53 l0 50 q0 26 -23.5 43 q-23.5 17 -66.5 17 q-72 0 -134 -47 l-61 111 q91 73 228 73 q48 0 88 -9.5 q40 -9.5 75 -31 q35 -21.5 54.5 -63 q19.5 -41.5 19.5 -99.5 l0 -292 ZM258 105 q53 0 71 26 l0 27 q-18 26 -71 26 q-63 0 -63 -40 q0 -39 63 -39 ZM446 556 l-105 0 l-64 73 l-61 -73 l-105 0 l88 144 l156 0 l91 -144 ZM679 770 l-155 -144 l-120 0 l120 144 l155 0 Z" /><glyph glyph-name="uni1EA6" unicode="&#x1ea6;" d="M524 682 l-105 0 l-64 55 l-61 -55 l-105 0 l88 108 l156 0 l91 -108 ZM728 0 l-229 0 l-24 78 l-240 0 l-24 -78 l-229 0 l246 667 l254 0 l246 -667 ZM421 254 l-66 215 l-66 -215 l132 0 ZM226 735 l-120 0 l-155 108 l155 0 l120 -108 Z" /><glyph glyph-name="uni1EA7" unicode="&#x1ea7;" d="M509 0 l-180 0 l0 46 q-20 -26 -60.5 -42 q-40.5 -16 -85.5 -16 q-62 0 -114 41.5 q-52 41.5 -52 117.5 q0 56 27.5 92.5 q27.5 36.5 62.5 49 q35 12.5 76 12.5 q104 0 146 -53 l0 50 q0 26 -23.5 43 q-23.5 17 -66.5 17 q-72 0 -134 -47 l-61 111 q91 73 228 73 q48 0 88 -9.5 q40 -9.5 75 -31 q35 -21.5 54.5 -63 q19.5 -41.5 19.5 -99.5 l0 -292 ZM258 105 q53 0 71 26 l0 27 q-18 26 -71 26 q-63 0 -63 -40 q0 -39 63 -39 ZM446 556 l-105 0 l-64 73 l-61 -73 l-105 0 l88 144 l156 0 l91 -144 ZM147 626 l-120 0 l-155 144 l155 0 l120 -144 Z" /><glyph glyph-name="uni1EA8" unicode="&#x1ea8;" d="M524 682 l-105 0 l-64 55 l-61 -55 l-105 0 l88 108 l156 0 l91 -108 ZM728 0 l-229 0 l-24 78 l-240 0 l-24 -78 l-229 0 l246 667 l254 0 l246 -667 ZM421 254 l-66 215 l-66 -215 l132 0 ZM507 780 l-58 14 q19 43 86 43 q38 0 63 -14 q25 -14 25 -42 q0 -17 -12 -36 l-70 0 q17 14 17 33 q0 19 -23 19 q-19 0 -28 -17 Z" /><glyph glyph-name="uni1EA9" unicode="&#x1ea9;" d="M509 0 l-180 0 l0 46 q-20 -26 -60.5 -42 q-40.5 -16 -85.5 -16 q-62 0 -114 41.5 q-52 41.5 -52 117.5 q0 56 27.5 92.5 q27.5 36.5 62.5 49 q35 12.5 76 12.5 q104 0 146 -53 l0 50 q0 26 -23.5 43 q-23.5 17 -66.5 17 q-72 0 -134 -47 l-61 111 q91 73 228 73 q48 0 88 -9.5 q40 -9.5 75 -31 q35 -21.5 54.5 -63 q19.5 -41.5 19.5 -99.5 l0 -292 ZM258 105 q53 0 71 26 l0 27 q-18 26 -71 26 q-63 0 -63 -40 q0 -39 63 -39 ZM446 556 l-105 0 l-64 73 l-61 -73 l-105 0 l88 144 l156 0 l91 -144 ZM368 713 l-58 19 q20 58 86 58 q38 0 63 -19 q25 -19 25 -56 q0 -22 -12 -48 l-70 0 q17 18 17 44 q0 25 -23 25 q-18 0 -28 -23 Z" /><glyph glyph-name="uni1EAA" unicode="&#x1eaa;" d="M524 678 l-105 0 l-64 36 l-61 -36 l-105 0 l88 72 l156 0 l91 -72 ZM728 0 l-229 0 l-24 78 l-240 0 l-24 -78 l-229 0 l246 667 l254 0 l246 -667 ZM421 254 l-66 215 l-66 -215 l132 0 ZM407 757 q-35 0 -68 10.5 q-33 10.5 -42 10.5 q-24 0 -24 -18 l-89 0 q0 67 118 67 q35 0 68 -11 q33 -11 42 -11 q24 0 24 19 l89 0 q0 -67 -118 -67 Z" /><glyph glyph-name="uni1EAB" unicode="&#x1eab;" d="M509 0 l-180 0 l0 46 q-20 -26 -60.5 -42 q-40.5 -16 -85.5 -16 q-62 0 -114 41.5 q-52 41.5 -52 117.5 q0 56 27.5 92.5 q27.5 36.5 62.5 49 q35 12.5 76 12.5 q104 0 146 -53 l0 50 q0 26 -23.5 43 q-23.5 17 -66.5 17 q-72 0 -134 -47 l-61 111 q91 73 228 73 q48 0 88 -9.5 q40 -9.5 75 -31 q35 -21.5 54.5 -63 q19.5 -41.5 19.5 -99.5 l0 -292 ZM258 105 q53 0 71 26 l0 27 q-18 26 -71 26 q-63 0 -63 -40 q0 -39 63 -39 ZM446 523 l-105 0 l-64 73 l-61 -73 l-105 0 l88 144 l156 0 l91 -144 ZM332 682 q-35 0 -68 21.5 q-33 21.5 -42 21.5 q-24 0 -24 -37 l-89 0 q0 134 118 134 q35 0 68 -21.5 q33 -21.5 42 -21.5 q24 0 24 37 l89 0 q0 -134 -118 -134 Z" /><glyph glyph-name="uni1EAC" unicode="&#x1eac;" d="M728 0 l-229 0 l-24 78 l-240 0 l-24 -78 l-229 0 l246 667 l254 0 l246 -667 ZM421 254 l-66 215 l-66 -215 l132 0 ZM523 723 l-105 0 l-64 73 l-61 -73 l-105 0 l88 144 l156 0 l91 -144 ZM356 -209 q-37 0 -63 26 q-26 26 -26 63 q0 37 26 63 q26 26 63 26 q36 0 62 -26 q26 -26 26 -63 q0 -37 -26 -63 q-26 -26 -62 -26 Z" /><glyph glyph-name="uni1EAD" unicode="&#x1ead;" d="M509 0 l-180 0 l0 46 q-20 -26 -60.5 -42 q-40.5 -16 -85.5 -16 q-62 0 -114 41.5 q-52 41.5 -52 117.5 q0 56 27.5 92.5 q27.5 36.5 62.5 49 q35 12.5 76 12.5 q104 0 146 -53 l0 50 q0 26 -23.5 43 q-23.5 17 -66.5 17 q-72 0 -134 -47 l-61 111 q91 73 228 73 q48 0 88 -9.5 q40 -9.5 75 -31 q35 -21.5 54.5 -63 q19.5 -41.5 19.5 -99.5 l0 -292 ZM258 105 q53 0 71 26 l0 27 q-18 26 -71 26 q-63 0 -63 -40 q0 -39 63 -39 ZM447 556 l-105 0 l-64 73 l-61 -73 l-105 0 l88 144 l156 0 l91 -144 ZM280 -209 q-37 0 -63 26 q-26 26 -26 63 q0 37 26 63 q26 26 63 26 q36 0 62 -26 q26 -26 26 -63 q0 -37 -26 -63 q-26 -26 -62 -26 Z" /><glyph glyph-name="uni1EAE" unicode="&#x1eae;" d="M728 0 l-229 0 l-24 78 l-240 0 l-24 -78 l-229 0 l246 667 l254 0 l246 -667 ZM421 254 l-66 215 l-66 -215 l132 0 ZM564 825 l-155 -72 l-120 0 l120 72 l155 0 ZM530 729 q-65 -44 -175 -44 q-109 0 -176 44 l76 31 q37 -27 100 -27 q62 0 100 27 l75 -31 Z" /><glyph glyph-name="uni1EAF" unicode="&#x1eaf;" d="M509 0 l-180 0 l0 46 q-20 -26 -60.5 -42 q-40.5 -16 -85.5 -16 q-62 0 -114 41.5 q-52 41.5 -52 117.5 q0 56 27.5 92.5 q27.5 36.5 62.5 49 q35 12.5 76 12.5 q104 0 146 -53 l0 50 q0 26 -23.5 43 q-23.5 17 -66.5 17 q-72 0 -134 -47 l-61 111 q91 73 228 73 q48 0 88 -9.5 q40 -9.5 75 -31 q35 -21.5 54.5 -63 q19.5 -41.5 19.5 -99.5 l0 -292 ZM258 105 q53 0 71 26 l0 27 q-18 26 -71 26 q-63 0 -63 -40 q0 -39 63 -39 ZM487 790 l-155 -144 l-120 0 l120 144 l155 0 ZM451 599 q-65 -88 -175 -88 q-109 0 -176 88 l76 62 q38 -53 100 -53 q63 0 100 53 l75 -62 Z" /><glyph glyph-name="uni1EB0" unicode="&#x1eb0;" d="M728 0 l-229 0 l-24 78 l-240 0 l-24 -78 l-229 0 l246 667 l254 0 l246 -667 ZM421 254 l-66 215 l-66 -215 l132 0 ZM423 753 l-120 0 l-155 72 l155 0 l120 -72 ZM530 724 q-65 -44 -175 -44 q-109 0 -176 44 l76 31 q37 -27 100 -27 q62 0 100 27 l75 -31 Z" /><glyph glyph-name="uni1EB1" unicode="&#x1eb1;" d="M509 0 l-180 0 l0 46 q-20 -26 -60.5 -42 q-40.5 -16 -85.5 -16 q-62 0 -114 41.5 q-52 41.5 -52 117.5 q0 56 27.5 92.5 q27.5 36.5 62.5 49 q35 12.5 76 12.5 q104 0 146 -53 l0 50 q0 26 -23.5 43 q-23.5 17 -66.5 17 q-72 0 -134 -47 l-61 111 q91 73 228 73 q48 0 88 -9.5 q40 -9.5 75 -31 q35 -21.5 54.5 -63 q19.5 -41.5 19.5 -99.5 l0 -292 ZM258 105 q53 0 71 26 l0 27 q-18 26 -71 26 q-63 0 -63 -40 q0 -39 63 -39 ZM342 646 l-120 0 l-155 144 l155 0 l120 -144 ZM451 599 q-65 -88 -175 -88 q-109 0 -176 88 l76 62 q38 -53 100 -53 q63 0 100 53 l75 -62 Z" /><glyph glyph-name="uni1EB2" unicode="&#x1eb2;" d="M728 0 l-229 0 l-24 78 l-240 0 l-24 -78 l-229 0 l246 667 l254 0 l246 -667 ZM421 254 l-66 215 l-66 -215 l132 0 ZM326 776 l-58 10 q20 29 86 29 q88 0 88 -38 q0 -10 -12 -24 l-70 0 q17 10 17 22 q0 13 -23 13 q-18 0 -28 -12 ZM530 724 q-65 -44 -175 -44 q-109 0 -176 44 l76 31 q37 -27 100 -27 q62 0 100 27 l75 -31 Z" /><glyph glyph-name="uni1EB3" unicode="&#x1eb3;" d="M509 0 l-180 0 l0 46 q-20 -26 -60.5 -42 q-40.5 -16 -85.5 -16 q-62 0 -114 41.5 q-52 41.5 -52 117.5 q0 56 27.5 92.5 q27.5 36.5 62.5 49 q35 12.5 76 12.5 q104 0 146 -53 l0 50 q0 26 -23.5 43 q-23.5 17 -66.5 17 q-72 0 -134 -47 l-61 111 q91 73 228 73 q48 0 88 -9.5 q40 -9.5 75 -31 q35 -21.5 54.5 -63 q19.5 -41.5 19.5 -99.5 l0 -292 ZM258 105 q53 0 71 26 l0 27 q-18 26 -71 26 q-63 0 -63 -40 q0 -39 63 -39 ZM248 703 l-58 19 q20 58 86 58 q38 0 63 -19 q25 -19 25 -56 q0 -22 -12 -48 l-70 0 q17 18 17 44 q0 25 -23 25 q-18 0 -28 -23 ZM451 599 q-65 -88 -175 -88 q-109 0 -176 88 l76 62 q38 -53 100 -53 q63 0 100 53 l75 -62 Z" /><glyph glyph-name="uni1EB4" unicode="&#x1eb4;" d="M728 0 l-229 0 l-24 78 l-240 0 l-24 -78 l-229 0 l246 667 l254 0 l246 -667 ZM421 254 l-66 215 l-66 -215 l132 0 ZM531 721 q-65 -44 -175 -44 q-109 0 -176 44 l76 31 q37 -27 100 -27 q62 0 100 27 l75 -31 ZM407 757 q-35 0 -68 10.5 q-33 10.5 -42 10.5 q-24 0 -24 -18 l-89 0 q0 67 118 67 q35 0 68 -11 q33 -11 42 -11 q24 0 24 19 l89 0 q0 -67 -118 -67 Z" /><glyph glyph-name="uni1EB5" unicode="&#x1eb5;" d="M509 0 l-180 0 l0 46 q-20 -26 -60.5 -42 q-40.5 -16 -85.5 -16 q-62 0 -114 41.5 q-52 41.5 -52 117.5 q0 56 27.5 92.5 q27.5 36.5 62.5 49 q35 12.5 76 12.5 q104 0 146 -53 l0 50 q0 26 -23.5 43 q-23.5 17 -66.5 17 q-72 0 -134 -47 l-61 111 q91 73 228 73 q48 0 88 -9.5 q40 -9.5 75 -31 q35 -21.5 54.5 -63 q19.5 -41.5 19.5 -99.5 l0 -292 ZM258 105 q53 0 71 26 l0 27 q-18 26 -71 26 q-63 0 -63 -40 q0 -39 63 -39 ZM451 599 q-65 -88 -175 -88 q-109 0 -176 88 l76 62 q38 -53 100 -53 q63 0 100 53 l75 -62 ZM323 660 q-35 0 -68 21.5 q-33 21.5 -42 21.5 q-24 0 -24 -37 l-89 0 q0 134 118 134 q35 0 68 -21.5 q33 -21.5 42 -21.5 q24 0 24 37 l89 0 q0 -134 -118 -134 Z" /><glyph glyph-name="uni1EB6" unicode="&#x1eb6;" d="M728 0 l-229 0 l-24 78 l-240 0 l-24 -78 l-229 0 l246 667 l254 0 l246 -667 ZM421 254 l-66 215 l-66 -215 l132 0 ZM356 -209 q-37 0 -63 26 q-26 26 -26 63 q0 37 26 63 q26 26 63 26 q36 0 62 -26 q26 -26 26 -63 q0 -37 -26 -63 q-26 -26 -62 -26 ZM530 779 q-65 -88 -175 -88 q-109 0 -176 88 l76 62 q38 -53 100 -53 q63 0 100 53 l75 -62 Z" /><glyph glyph-name="uni1EB7" unicode="&#x1eb7;" d="M509 0 l-180 0 l0 46 q-20 -26 -60.5 -42 q-40.5 -16 -85.5 -16 q-62 0 -114 41.5 q-52 41.5 -52 117.5 q0 56 27.5 92.5 q27.5 36.5 62.5 49 q35 12.5 76 12.5 q104 0 146 -53 l0 50 q0 26 -23.5 43 q-23.5 17 -66.5 17 q-72 0 -134 -47 l-61 111 q91 73 228 73 q48 0 88 -9.5 q40 -9.5 75 -31 q35 -21.5 54.5 -63 q19.5 -41.5 19.5 -99.5 l0 -292 ZM258 105 q53 0 71 26 l0 27 q-18 26 -71 26 q-63 0 -63 -40 q0 -39 63 -39 ZM280 -209 q-37 0 -63 26 q-26 26 -26 63 q0 37 26 63 q26 26 63 26 q36 0 62 -26 q26 -26 26 -63 q0 -37 -26 -63 q-26 -26 -62 -26 ZM451 612 q-65 -88 -175 -88 q-109 0 -176 88 l76 62 q38 -53 100 -53 q63 0 100 53 l75 -62 Z" /><glyph glyph-name="uni1EB8" unicode="&#x1eb8;" d="M560 0 l-506 0 l0 667 l506 0 l0 -176 l-304 0 l0 -66 l297 0 l0 -176 l-297 0 l0 -73 l304 0 l0 -176 ZM306 -209 q-37 0 -63 26 q-26 26 -26 63 q0 37 26 63 q26 26 63 26 q36 0 62 -26 q26 -26 26 -63 q0 -37 -26 -63 q-26 -26 -62 -26 Z" /><glyph glyph-name="uni1EB9" unicode="&#x1eb9;" d="M286 -12 q-116 0 -192.5 69 q-76.5 69 -76.5 185 q0 107 74 180 q74 73 189 73 q109 0 180 -73.5 q71 -73.5 71 -198.5 l0 -37 l-328 0 q8 -25 35 -43 q27 -18 69 -18 q23 0 58.5 10 q35.5 10 52.5 24 l74 -111 q-34 -29 -91 -44.5 q-57 -15.5 -115 -15.5 ZM360 300 q-14 58 -80 58 q-63 0 -79 -58 l159 0 ZM282 -209 q-37 0 -63 26 q-26 26 -26 63 q0 37 26 63 q26 26 63 26 q36 0 62 -26 q26 -26 26 -63 q0 -37 -26 -63 q-26 -26 -62 -26 Z" /><glyph glyph-name="uni1EBA" unicode="&#x1eba;" d="M560 0 l-506 0 l0 667 l506 0 l0 -176 l-304 0 l0 -66 l297 0 l0 -176 l-297 0 l0 -73 l304 0 l0 -176 ZM269 743 l-58 19 q20 58 86 58 q38 0 63 -19 q25 -19 25 -56 q0 -22 -12 -48 l-70 0 q17 18 17 44 q0 25 -23 25 q-18 0 -28 -23 Z" /><glyph glyph-name="uni1EBB" unicode="&#x1ebb;" d="M286 -12 q-116 0 -192.5 69 q-76.5 69 -76.5 185 q0 107 74 180 q74 73 189 73 q109 0 180 -73.5 q71 -73.5 71 -198.5 l0 -37 l-328 0 q8 -25 35 -43 q27 -18 69 -18 q23 0 58.5 10 q35.5 10 52.5 24 l74 -111 q-34 -29 -91 -44.5 q-57 -15.5 -115 -15.5 ZM360 300 q-14 58 -80 58 q-63 0 -79 -58 l159 0 ZM242 573 l-58 19 q20 58 86 58 q38 0 63 -19 q25 -19 25 -56 q0 -22 -12 -48 l-70 0 q17 18 17 44 q0 25 -23 25 q-18 0 -28 -23 Z" /><glyph glyph-name="uni1EBC" unicode="&#x1ebc;" d="M560 0 l-506 0 l0 667 l506 0 l0 -176 l-304 0 l0 -66 l297 0 l0 -176 l-297 0 l0 -73 l304 0 l0 -176 ZM375 721 q-35 0 -68 21.5 q-33 21.5 -42 21.5 q-24 0 -24 -37 l-89 0 q0 134 118 134 q35 0 68 -21.5 q33 -21.5 42 -21.5 q24 0 24 37 l89 0 q0 -134 -118 -134 Z" /><glyph glyph-name="uni1EBD" unicode="&#x1ebd;" d="M286 -12 q-116 0 -192.5 69 q-76.5 69 -76.5 185 q0 107 74 180 q74 73 189 73 q109 0 180 -73.5 q71 -73.5 71 -198.5 l0 -37 l-328 0 q8 -25 35 -43 q27 -18 69 -18 q23 0 58.5 10 q35.5 10 52.5 24 l74 -111 q-34 -29 -91 -44.5 q-57 -15.5 -115 -15.5 ZM360 300 q-14 58 -80 58 q-63 0 -79 -58 l159 0 ZM324 554 q-35 0 -68 21.5 q-33 21.5 -42 21.5 q-24 0 -24 -37 l-89 0 q0 134 118 134 q35 0 68 -21.5 q33 -21.5 42 -21.5 q24 0 24 37 l89 0 q0 -134 -118 -134 Z" /><glyph glyph-name="uni1EBE" unicode="&#x1ebe;" d="M481 682 l-105 0 l-64 55 l-61 -55 l-105 0 l88 108 l156 0 l91 -108 ZM721 843 l-155 -108 l-120 0 l120 108 l155 0 ZM560 0 l-506 0 l0 667 l506 0 l0 -176 l-304 0 l0 -66 l297 0 l0 -176 l-297 0 l0 -73 l304 0 l0 -176 Z" /><glyph glyph-name="uni1EBF" unicode="&#x1ebf;" d="M446 556 l-105 0 l-64 73 l-61 -73 l-105 0 l88 144 l156 0 l91 -144 ZM679 770 l-155 -144 l-120 0 l120 144 l155 0 ZM286 -12 q-116 0 -192.5 69 q-76.5 69 -76.5 185 q0 107 74 180 q74 73 189 73 q109 0 180 -73.5 q71 -73.5 71 -198.5 l0 -37 l-328 0 q8 -25 35 -43 q27 -18 69 -18 q23 0 58.5 10 q35.5 10 52.5 24 l74 -111 q-34 -29 -91 -44.5 q-57 -15.5 -115 -15.5 ZM360 300 q-14 58 -80 58 q-63 0 -79 -58 l159 0 Z" /><glyph glyph-name="uni1EC0" unicode="&#x1ec0;" d="M484 682 l-105 0 l-64 55 l-61 -55 l-105 0 l88 108 l156 0 l91 -108 ZM560 0 l-506 0 l0 667 l506 0 l0 -176 l-304 0 l0 -66 l297 0 l0 -176 l-297 0 l0 -73 l304 0 l0 -176 ZM186 735 l-120 0 l-155 108 l155 0 l120 -108 Z" /><glyph glyph-name="uni1EC1" unicode="&#x1ec1;" d="M446 556 l-105 0 l-64 73 l-61 -73 l-105 0 l88 144 l156 0 l91 -144 ZM286 -12 q-116 0 -192.5 69 q-76.5 69 -76.5 185 q0 107 74 180 q74 73 189 73 q109 0 180 -73.5 q71 -73.5 71 -198.5 l0 -37 l-328 0 q8 -25 35 -43 q27 -18 69 -18 q23 0 58.5 10 q35.5 10 52.5 24 l74 -111 q-34 -29 -91 -44.5 q-57 -15.5 -115 -15.5 ZM360 300 q-14 58 -80 58 q-63 0 -79 -58 l159 0 ZM147 626 l-120 0 l-155 144 l155 0 l120 -144 Z" /><glyph glyph-name="uni1EC2" unicode="&#x1ec2;" d="M479 682 l-105 0 l-64 55 l-61 -55 l-105 0 l88 108 l156 0 l91 -108 ZM560 0 l-506 0 l0 667 l506 0 l0 -176 l-304 0 l0 -66 l297 0 l0 -176 l-297 0 l0 -73 l304 0 l0 -176 ZM462 780 l-58 14 q19 43 86 43 q38 0 63 -14 q25 -14 25 -42 q0 -17 -12 -36 l-70 0 q17 14 17 33 q0 19 -23 19 q-19 0 -28 -17 Z" /><glyph glyph-name="uni1EC3" unicode="&#x1ec3;" d="M446 556 l-105 0 l-64 73 l-61 -73 l-105 0 l88 144 l156 0 l91 -144 ZM286 -12 q-116 0 -192.5 69 q-76.5 69 -76.5 185 q0 107 74 180 q74 73 189 73 q109 0 180 -73.5 q71 -73.5 71 -198.5 l0 -37 l-328 0 q8 -25 35 -43 q27 -18 69 -18 q23 0 58.5 10 q35.5 10 52.5 24 l74 -111 q-34 -29 -91 -44.5 q-57 -15.5 -115 -15.5 ZM360 300 q-14 58 -80 58 q-63 0 -79 -58 l159 0 ZM368 713 l-58 19 q20 58 86 58 q38 0 63 -19 q25 -19 25 -56 q0 -22 -12 -48 l-70 0 q17 18 17 44 q0 25 -23 25 q-18 0 -28 -23 Z" /><glyph glyph-name="uni1EC4" unicode="&#x1ec4;" d="M480 678 l-105 0 l-64 36 l-61 -36 l-105 0 l88 72 l156 0 l91 -72 ZM560 0 l-506 0 l0 667 l506 0 l0 -176 l-304 0 l0 -66 l297 0 l0 -176 l-297 0 l0 -73 l304 0 l0 -176 ZM363 757 q-35 0 -68 10.5 q-33 10.5 -42 10.5 q-24 0 -24 -18 l-89 0 q0 67 118 67 q35 0 68 -11 q33 -11 42 -11 q24 0 24 19 l89 0 q0 -67 -118 -67 Z" /><glyph glyph-name="uni1EC5" unicode="&#x1ec5;" d="M446 523 l-105 0 l-64 73 l-61 -73 l-105 0 l88 144 l156 0 l91 -144 ZM286 -12 q-116 0 -192.5 69 q-76.5 69 -76.5 185 q0 107 74 180 q74 73 189 73 q109 0 180 -73.5 q71 -73.5 71 -198.5 l0 -37 l-328 0 q8 -25 35 -43 q27 -18 69 -18 q23 0 58.5 10 q35.5 10 52.5 24 l74 -111 q-34 -29 -91 -44.5 q-57 -15.5 -115 -15.5 ZM360 300 q-14 58 -80 58 q-63 0 -79 -58 l159 0 ZM332 682 q-35 0 -68 21.5 q-33 21.5 -42 21.5 q-24 0 -24 -37 l-89 0 q0 134 118 134 q35 0 68 -21.5 q33 -21.5 42 -21.5 q24 0 24 37 l89 0 q0 -134 -118 -134 Z" /><glyph glyph-name="uni1EC6" unicode="&#x1ec6;" d="M475 723 l-105 0 l-64 73 l-61 -73 l-105 0 l88 144 l156 0 l91 -144 ZM560 0 l-506 0 l0 667 l506 0 l0 -176 l-304 0 l0 -66 l297 0 l0 -176 l-297 0 l0 -73 l304 0 l0 -176 ZM306 -209 q-37 0 -63 26 q-26 26 -26 63 q0 37 26 63 q26 26 63 26 q36 0 62 -26 q26 -26 26 -63 q0 -37 -26 -63 q-26 -26 -62 -26 Z" /><glyph glyph-name="uni1EC7" unicode="&#x1ec7;" d="M449 556 l-105 0 l-64 73 l-61 -73 l-105 0 l88 144 l156 0 l91 -144 ZM286 -12 q-116 0 -192.5 69 q-76.5 69 -76.5 185 q0 107 74 180 q74 73 189 73 q109 0 180 -73.5 q71 -73.5 71 -198.5 l0 -37 l-328 0 q8 -25 35 -43 q27 -18 69 -18 q23 0 58.5 10 q35.5 10 52.5 24 l74 -111 q-34 -29 -91 -44.5 q-57 -15.5 -115 -15.5 ZM360 300 q-14 58 -80 58 q-63 0 -79 -58 l159 0 ZM282 -209 q-37 0 -63 26 q-26 26 -26 63 q0 37 26 63 q26 26 63 26 q36 0 62 -26 q26 -26 26 -63 q0 -37 -26 -63 q-26 -26 -62 -26 Z" /><glyph glyph-name="uni1EC8" unicode="&#x1ec8;" d="M256 0 l-202 0 l0 667 l202 0 l0 -667 ZM126 743 l-58 19 q20 58 86 58 q38 0 63 -19 q25 -19 25 -56 q0 -22 -12 -48 l-70 0 q17 18 17 44 q0 25 -23 25 q-18 0 -28 -23 Z" /><glyph glyph-name="uni1EC9" unicode="&#x1ec9;" d="M230 0 l-180 0 l0 483 l180 0 l0 -483 ZM111 573 l-58 19 q20 58 86 58 q38 0 63 -19 q25 -19 25 -56 q0 -22 -12 -48 l-70 0 q17 18 17 44 q0 25 -23 25 q-18 0 -28 -23 Z" /><glyph glyph-name="uni1ECA" unicode="&#x1eca;" d="M256 0 l-202 0 l0 667 l202 0 l0 -667 ZM159 -209 q-37 0 -63 26 q-26 26 -26 63 q0 37 26 63 q26 26 63 26 q36 0 62 -26 q26 -26 26 -63 q0 -37 -26 -63 q-26 -26 -62 -26 Z" /><glyph glyph-name="uni1ECB" unicode="&#x1ecb;" d="M211.5 547.5 q-29.5 -29.5 -71.5 -29.5 q-42 0 -71.5 29.5 q-29.5 29.5 -29.5 71.5 q0 42 29.5 71.5 q29.5 29.5 71.5 29.5 q42 0 71.5 -29.5 q29.5 -29.5 29.5 -71.5 q0 -42 -29.5 -71.5 ZM230 0 l-180 0 l0 483 l180 0 l0 -483 ZM143 -209 q-37 0 -63 26 q-26 26 -26 63 q0 37 26 63 q26 26 63 26 q36 0 62 -26 q26 -26 26 -63 q0 -37 -26 -63 q-26 -26 -62 -26 Z" /><glyph glyph-name="uni1ECC" unicode="&#x1ecc;" d="M643.5 84.5 q-104.5 -96.5 -260.5 -96.5 q-156 0 -260.5 96.5 q-104.5 96.5 -104.5 248.5 q0 152 104.5 248.5 q104.5 96.5 260.5 96.5 q156 0 260.5 -96.5 q104.5 -96.5 104.5 -248.5 q0 -152 -104.5 -248.5 ZM267.5 214 q44.5 -48 115.5 -48 q71 0 115.5 48 q44.5 48 44.5 119 q0 71 -44.5 119 q-44.5 48 -115.5 48 q-71 0 -115.5 -48 q-44.5 -48 -44.5 -119 q0 -71 44.5 -119 ZM385 -209 q-37 0 -63 26 q-26 26 -26 63 q0 37 26 63 q26 26 63 26 q36 0 62 -26 q26 -26 26 -63 q0 -37 -26 -63 q-26 -26 -62 -26 Z" /><glyph glyph-name="uni1ECD" unicode="&#x1ecd;" d="M486 62 q-74 -74 -198 -74 q-124 0 -197.5 74 q-73.5 74 -73.5 180 q0 106 73.5 179.5 q73.5 73.5 197.5 73.5 q124 0 198 -73.5 q74 -73.5 74 -179.5 q0 -106 -74 -180 ZM288 147 q41 0 64 26.5 q23 26.5 23 68.5 q0 41 -23 67.5 q-23 26.5 -64 26.5 q-40 0 -63 -26.5 q-23 -26.5 -23 -67.5 q0 -42 23 -68.5 q23 -26.5 63 -26.5 ZM290 -209 q-37 0 -63 26 q-26 26 -26 63 q0 37 26 63 q26 26 63 26 q36 0 62 -26 q26 -26 26 -63 q0 -37 -26 -63 q-26 -26 -62 -26 Z" /><glyph glyph-name="uni1ECE" unicode="&#x1ece;" d="M643.5 84.5 q-104.5 -96.5 -260.5 -96.5 q-156 0 -260.5 96.5 q-104.5 96.5 -104.5 248.5 q0 152 104.5 248.5 q104.5 96.5 260.5 96.5 q156 0 260.5 -96.5 q104.5 -96.5 104.5 -248.5 q0 -152 -104.5 -248.5 ZM267.5 214 q44.5 -48 115.5 -48 q71 0 115.5 48 q44.5 48 44.5 119 q0 71 -44.5 119 q-44.5 48 -115.5 48 q-71 0 -115.5 -48 q-44.5 -48 -44.5 -119 q0 -71 44.5 -119 ZM351 743 l-58 19 q20 58 86 58 q38 0 63 -19 q25 -19 25 -56 q0 -22 -12 -48 l-70 0 q17 18 17 44 q0 25 -23 25 q-18 0 -28 -23 Z" /><glyph glyph-name="uni1ECF" unicode="&#x1ecf;" d="M486 62 q-74 -74 -198 -74 q-124 0 -197.5 74 q-73.5 74 -73.5 180 q0 106 73.5 179.5 q73.5 73.5 197.5 73.5 q124 0 198 -73.5 q74 -73.5 74 -179.5 q0 -106 -74 -180 ZM288 147 q41 0 64 26.5 q23 26.5 23 68.5 q0 41 -23 67.5 q-23 26.5 -64 26.5 q-40 0 -63 -26.5 q-23 -26.5 -23 -67.5 q0 -42 23 -68.5 q23 -26.5 63 -26.5 ZM260 573 l-58 19 q20 58 86 58 q38 0 63 -19 q25 -19 25 -56 q0 -22 -12 -48 l-70 0 q17 18 17 44 q0 25 -23 25 q-18 0 -28 -23 Z" /><glyph glyph-name="uni1ED0" unicode="&#x1ed0;" d="M546 682 l-105 0 l-64 55 l-61 -55 l-105 0 l88 108 l156 0 l91 -108 ZM786 843 l-155 -108 l-120 0 l120 108 l155 0 ZM643.5 84.5 q-104.5 -96.5 -260.5 -96.5 q-156 0 -260.5 96.5 q-104.5 96.5 -104.5 248.5 q0 152 104.5 248.5 q104.5 96.5 260.5 96.5 q156 0 260.5 -96.5 q104.5 -96.5 104.5 -248.5 q0 -152 -104.5 -248.5 ZM267.5 214 q44.5 -48 115.5 -48 q71 0 115.5 48 q44.5 48 44.5 119 q0 71 -44.5 119 q-44.5 48 -115.5 48 q-71 0 -115.5 -48 q-44.5 -48 -44.5 -119 q0 -71 44.5 -119 Z" /><glyph glyph-name="uni1ED1" unicode="&#x1ed1;" d="M456 556 l-105 0 l-64 73 l-61 -73 l-105 0 l88 144 l156 0 l91 -144 ZM689 770 l-155 -144 l-120 0 l120 144 l155 0 ZM486 62 q-74 -74 -198 -74 q-124 0 -197.5 74 q-73.5 74 -73.5 180 q0 106 73.5 179.5 q73.5 73.5 197.5 73.5 q124 0 198 -73.5 q74 -73.5 74 -179.5 q0 -106 -74 -180 ZM288 147 q41 0 64 26.5 q23 26.5 23 68.5 q0 41 -23 67.5 q-23 26.5 -64 26.5 q-40 0 -63 -26.5 q-23 -26.5 -23 -67.5 q0 -42 23 -68.5 q23 -26.5 63 -26.5 Z" /><glyph glyph-name="uni1ED2" unicode="&#x1ed2;" d="M545 682 l-105 0 l-64 55 l-61 -55 l-105 0 l88 108 l156 0 l91 -108 ZM643.5 84.5 q-104.5 -96.5 -260.5 -96.5 q-156 0 -260.5 96.5 q-104.5 96.5 -104.5 248.5 q0 152 104.5 248.5 q104.5 96.5 260.5 96.5 q156 0 260.5 -96.5 q104.5 -96.5 104.5 -248.5 q0 -152 -104.5 -248.5 ZM267.5 214 q44.5 -48 115.5 -48 q71 0 115.5 48 q44.5 48 44.5 119 q0 71 -44.5 119 q-44.5 48 -115.5 48 q-71 0 -115.5 -48 q-44.5 -48 -44.5 -119 q0 -71 44.5 -119 ZM247 735 l-120 0 l-155 108 l155 0 l120 -108 Z" /><glyph glyph-name="uni1ED3" unicode="&#x1ed3;" d="M456 556 l-105 0 l-64 73 l-61 -73 l-105 0 l88 144 l156 0 l91 -144 ZM486 62 q-74 -74 -198 -74 q-124 0 -197.5 74 q-73.5 74 -73.5 180 q0 106 73.5 179.5 q73.5 73.5 197.5 73.5 q124 0 198 -73.5 q74 -73.5 74 -179.5 q0 -106 -74 -180 ZM288 147 q41 0 64 26.5 q23 26.5 23 68.5 q0 41 -23 67.5 q-23 26.5 -64 26.5 q-40 0 -63 -26.5 q-23 -26.5 -23 -67.5 q0 -42 23 -68.5 q23 -26.5 63 -26.5 ZM157 626 l-120 0 l-155 144 l155 0 l120 -144 Z" /><glyph glyph-name="uni1ED4" unicode="&#x1ed4;" d="M549 682 l-105 0 l-64 55 l-61 -55 l-105 0 l88 108 l156 0 l91 -108 ZM643.5 84.5 q-104.5 -96.5 -260.5 -96.5 q-156 0 -260.5 96.5 q-104.5 96.5 -104.5 248.5 q0 152 104.5 248.5 q104.5 96.5 260.5 96.5 q156 0 260.5 -96.5 q104.5 -96.5 104.5 -248.5 q0 -152 -104.5 -248.5 ZM267.5 214 q44.5 -48 115.5 -48 q71 0 115.5 48 q44.5 48 44.5 119 q0 71 -44.5 119 q-44.5 48 -115.5 48 q-71 0 -115.5 -48 q-44.5 -48 -44.5 -119 q0 -71 44.5 -119 ZM532 780 l-58 14 q19 43 86 43 q38 0 63 -14 q25 -14 25 -42 q0 -17 -12 -36 l-70 0 q17 14 17 33 q0 19 -23 19 q-19 0 -28 -17 Z" /><glyph glyph-name="uni1ED5" unicode="&#x1ed5;" d="M455 556 l-105 0 l-64 73 l-61 -73 l-105 0 l88 144 l156 0 l91 -144 ZM486 62 q-74 -74 -198 -74 q-124 0 -197.5 74 q-73.5 74 -73.5 180 q0 106 73.5 179.5 q73.5 73.5 197.5 73.5 q124 0 198 -73.5 q74 -73.5 74 -179.5 q0 -106 -74 -180 ZM288 147 q41 0 64 26.5 q23 26.5 23 68.5 q0 41 -23 67.5 q-23 26.5 -64 26.5 q-40 0 -63 -26.5 q-23 -26.5 -23 -67.5 q0 -42 23 -68.5 q23 -26.5 63 -26.5 ZM377 713 l-58 19 q20 58 86 58 q38 0 63 -19 q25 -19 25 -56 q0 -22 -12 -48 l-70 0 q17 18 17 44 q0 25 -23 25 q-18 0 -28 -23 Z" /><glyph glyph-name="uni1ED6" unicode="&#x1ed6;" d="M548 678 l-105 0 l-64 36 l-61 -36 l-105 0 l88 72 l156 0 l91 -72 ZM643.5 84.5 q-104.5 -96.5 -260.5 -96.5 q-156 0 -260.5 96.5 q-104.5 96.5 -104.5 248.5 q0 152 104.5 248.5 q104.5 96.5 260.5 96.5 q156 0 260.5 -96.5 q104.5 -96.5 104.5 -248.5 q0 -152 -104.5 -248.5 ZM267.5 214 q44.5 -48 115.5 -48 q71 0 115.5 48 q44.5 48 44.5 119 q0 71 -44.5 119 q-44.5 48 -115.5 48 q-71 0 -115.5 -48 q-44.5 -48 -44.5 -119 q0 -71 44.5 -119 ZM431 757 q-35 0 -68 10.5 q-33 10.5 -42 10.5 q-24 0 -24 -18 l-89 0 q0 67 118 67 q35 0 68 -11 q33 -11 42 -11 q24 0 24 19 l89 0 q0 -67 -118 -67 Z" /><glyph glyph-name="uni1ED7" unicode="&#x1ed7;" d="M455 523 l-105 0 l-64 73 l-61 -73 l-105 0 l88 144 l156 0 l91 -144 ZM486 62 q-74 -74 -198 -74 q-124 0 -197.5 74 q-73.5 74 -73.5 180 q0 106 73.5 179.5 q73.5 73.5 197.5 73.5 q124 0 198 -73.5 q74 -73.5 74 -179.5 q0 -106 -74 -180 ZM288 147 q41 0 64 26.5 q23 26.5 23 68.5 q0 41 -23 67.5 q-23 26.5 -64 26.5 q-40 0 -63 -26.5 q-23 -26.5 -23 -67.5 q0 -42 23 -68.5 q23 -26.5 63 -26.5 ZM341 682 q-35 0 -68 21.5 q-33 21.5 -42 21.5 q-24 0 -24 -37 l-89 0 q0 134 118 134 q35 0 68 -21.5 q33 -21.5 42 -21.5 q24 0 24 37 l89 0 q0 -134 -118 -134 Z" /><glyph glyph-name="uni1ED8" unicode="&#x1ed8;" d="M554 723 l-105 0 l-64 73 l-61 -73 l-105 0 l88 144 l156 0 l91 -144 ZM643.5 84.5 q-104.5 -96.5 -260.5 -96.5 q-156 0 -260.5 96.5 q-104.5 96.5 -104.5 248.5 q0 152 104.5 248.5 q104.5 96.5 260.5 96.5 q156 0 260.5 -96.5 q104.5 -96.5 104.5 -248.5 q0 -152 -104.5 -248.5 ZM267.5 214 q44.5 -48 115.5 -48 q71 0 115.5 48 q44.5 48 44.5 119 q0 71 -44.5 119 q-44.5 48 -115.5 48 q-71 0 -115.5 -48 q-44.5 -48 -44.5 -119 q0 -71 44.5 -119 ZM385 -209 q-37 0 -63 26 q-26 26 -26 63 q0 37 26 63 q26 26 63 26 q36 0 62 -26 q26 -26 26 -63 q0 -37 -26 -63 q-26 -26 -62 -26 Z" /><glyph glyph-name="uni1ED9" unicode="&#x1ed9;" d="M456 556 l-105 0 l-64 73 l-61 -73 l-105 0 l88 144 l156 0 l91 -144 ZM486 62 q-74 -74 -198 -74 q-124 0 -197.5 74 q-73.5 74 -73.5 180 q0 106 73.5 179.5 q73.5 73.5 197.5 73.5 q124 0 198 -73.5 q74 -73.5 74 -179.5 q0 -106 -74 -180 ZM288 147 q41 0 64 26.5 q23 26.5 23 68.5 q0 41 -23 67.5 q-23 26.5 -64 26.5 q-40 0 -63 -26.5 q-23 -26.5 -23 -67.5 q0 -42 23 -68.5 q23 -26.5 63 -26.5 ZM290 -209 q-37 0 -63 26 q-26 26 -26 63 q0 37 26 63 q26 26 63 26 q36 0 62 -26 q26 -26 26 -63 q0 -37 -26 -63 q-26 -26 -62 -26 Z" /><glyph glyph-name="uni1EDA" unicode="&#x1eda;" d="M587 867 l-155 -144 l-120 0 l120 144 l155 0 ZM643.5 84.5 q-104.5 -96.5 -260.5 -96.5 q-156 0 -260.5 96.5 q-104.5 96.5 -104.5 248.5 q0 152 104.5 248.5 q104.5 96.5 260.5 96.5 q166 0 270 -106 q31 24 42 53 q-5 -3 -17 -3 q-24 0 -40.5 17 q-16.5 17 -16.5 44 q0 28 20 48.5 q20 20.5 48 20.5 q32 0 54 -23 q22 -23 22 -62 q0 -83 -75 -139 q58 -85 58 -195 q0 -152 -104.5 -248.5 ZM267.5 214 q44.5 -48 115.5 -48 q71 0 115.5 48 q44.5 48 44.5 119 q0 71 -44.5 119 q-44.5 48 -115.5 48 q-71 0 -115.5 -48 q-44.5 -48 -44.5 -119 q0 -71 44.5 -119 Z" /><glyph glyph-name="uni1EDB" unicode="&#x1edb;" d="M493 700 l-155 -144 l-120 0 l120 144 l155 0 ZM577 534 q0 -78 -71 -136 q54 -68 54 -156 q0 -106 -74 -180 q-74 -74 -198 -74 q-124 0 -197.5 74 q-73.5 74 -73.5 180 q0 106 73.5 179.5 q73.5 73.5 197.5 73.5 q104 0 177 -55 q32 24 42 52 q-5 -3 -17 -3 q-24 0 -40.5 17 q-16.5 17 -16.5 44 q0 28 20 48.5 q20 20.5 48 20.5 q32 0 54 -23 q22 -23 22 -62 ZM288 147 q41 0 64 26.5 q23 26.5 23 68.5 q0 41 -23 67.5 q-23 26.5 -64 26.5 q-40 0 -63 -26.5 q-23 -26.5 -23 -67.5 q0 -42 23 -68.5 q23 -26.5 63 -26.5 Z" /><glyph glyph-name="uni1EDC" unicode="&#x1edc;" d="M643.5 84.5 q-104.5 -96.5 -260.5 -96.5 q-156 0 -260.5 96.5 q-104.5 96.5 -104.5 248.5 q0 152 104.5 248.5 q104.5 96.5 260.5 96.5 q166 0 270 -106 q31 24 42 53 q-5 -3 -17 -3 q-24 0 -40.5 17 q-16.5 17 -16.5 44 q0 28 20 48.5 q20 20.5 48 20.5 q32 0 54 -23 q22 -23 22 -62 q0 -83 -75 -139 q58 -85 58 -195 q0 -152 -104.5 -248.5 ZM267.5 214 q44.5 -48 115.5 -48 q71 0 115.5 48 q44.5 48 44.5 119 q0 71 -44.5 119 q-44.5 48 -115.5 48 q-71 0 -115.5 -48 q-44.5 -48 -44.5 -119 q0 -71 44.5 -119 ZM452 723 l-120 0 l-155 144 l155 0 l120 -144 Z" /><glyph glyph-name="uni1EDD" unicode="&#x1edd;" d="M577 534 q0 -78 -71 -136 q54 -68 54 -156 q0 -106 -74 -180 q-74 -74 -198 -74 q-124 0 -197.5 74 q-73.5 74 -73.5 180 q0 106 73.5 179.5 q73.5 73.5 197.5 73.5 q104 0 177 -55 q32 24 42 52 q-5 -3 -17 -3 q-24 0 -40.5 17 q-16.5 17 -16.5 44 q0 28 20 48.5 q20 20.5 48 20.5 q32 0 54 -23 q22 -23 22 -62 ZM288 147 q41 0 64 26.5 q23 26.5 23 68.5 q0 41 -23 67.5 q-23 26.5 -64 26.5 q-40 0 -63 -26.5 q-23 -26.5 -23 -67.5 q0 -42 23 -68.5 q23 -26.5 63 -26.5 ZM357 556 l-120 0 l-155 144 l155 0 l120 -144 Z" /><glyph glyph-name="uni1EDE" unicode="&#x1ede;" d="M643.5 84.5 q-104.5 -96.5 -260.5 -96.5 q-156 0 -260.5 96.5 q-104.5 96.5 -104.5 248.5 q0 152 104.5 248.5 q104.5 96.5 260.5 96.5 q166 0 270 -106 q31 24 42 53 q-5 -3 -17 -3 q-24 0 -40.5 17 q-16.5 17 -16.5 44 q0 28 20 48.5 q20 20.5 48 20.5 q32 0 54 -23 q22 -23 22 -62 q0 -83 -75 -139 q58 -85 58 -195 q0 -152 -104.5 -248.5 ZM267.5 214 q44.5 -48 115.5 -48 q71 0 115.5 48 q44.5 48 44.5 119 q0 71 -44.5 119 q-44.5 48 -115.5 48 q-71 0 -115.5 -48 q-44.5 -48 -44.5 -119 q0 -71 44.5 -119 ZM354 743 l-58 19 q20 58 86 58 q38 0 63 -19 q25 -19 25 -56 q0 -22 -12 -48 l-70 0 q17 18 17 44 q0 25 -23 25 q-18 0 -28 -23 Z" /><glyph glyph-name="uni1EDF" unicode="&#x1edf;" d="M577 534 q0 -78 -71 -136 q54 -68 54 -156 q0 -106 -74 -180 q-74 -74 -198 -74 q-124 0 -197.5 74 q-73.5 74 -73.5 180 q0 106 73.5 179.5 q73.5 73.5 197.5 73.5 q104 0 177 -55 q32 24 42 52 q-5 -3 -17 -3 q-24 0 -40.5 17 q-16.5 17 -16.5 44 q0 28 20 48.5 q20 20.5 48 20.5 q32 0 54 -23 q22 -23 22 -62 ZM288 147 q41 0 64 26.5 q23 26.5 23 68.5 q0 41 -23 67.5 q-23 26.5 -64 26.5 q-40 0 -63 -26.5 q-23 -26.5 -23 -67.5 q0 -42 23 -68.5 q23 -26.5 63 -26.5 ZM259 573 l-58 19 q20 58 86 58 q38 0 63 -19 q25 -19 25 -56 q0 -22 -12 -48 l-70 0 q17 18 17 44 q0 25 -23 25 q-18 0 -28 -23 Z" /><glyph glyph-name="uni1EE0" unicode="&#x1ee0;" d="M643.5 84.5 q-104.5 -96.5 -260.5 -96.5 q-156 0 -260.5 96.5 q-104.5 96.5 -104.5 248.5 q0 152 104.5 248.5 q104.5 96.5 260.5 96.5 q166 0 270 -106 q31 24 42 53 q-5 -3 -17 -3 q-24 0 -40.5 17 q-16.5 17 -16.5 44 q0 28 20 48.5 q20 20.5 48 20.5 q32 0 54 -23 q22 -23 22 -62 q0 -83 -75 -139 q58 -85 58 -195 q0 -152 -104.5 -248.5 ZM267.5 214 q44.5 -48 115.5 -48 q71 0 115.5 48 q44.5 48 44.5 119 q0 71 -44.5 119 q-44.5 48 -115.5 48 q-71 0 -115.5 -48 q-44.5 -48 -44.5 -119 q0 -71 44.5 -119 ZM436 721 q-35 0 -68 21.5 q-33 21.5 -42 21.5 q-24 0 -24 -37 l-89 0 q0 134 118 134 q35 0 68 -21.5 q33 -21.5 42 -21.5 q24 0 24 37 l89 0 q0 -134 -118 -134 Z" /><glyph glyph-name="uni1EE1" unicode="&#x1ee1;" d="M577 534 q0 -78 -71 -136 q54 -68 54 -156 q0 -106 -74 -180 q-74 -74 -198 -74 q-124 0 -197.5 74 q-73.5 74 -73.5 180 q0 106 73.5 179.5 q73.5 73.5 197.5 73.5 q104 0 177 -55 q32 24 42 52 q-5 -3 -17 -3 q-24 0 -40.5 17 q-16.5 17 -16.5 44 q0 28 20 48.5 q20 20.5 48 20.5 q32 0 54 -23 q22 -23 22 -62 ZM288 147 q41 0 64 26.5 q23 26.5 23 68.5 q0 41 -23 67.5 q-23 26.5 -64 26.5 q-40 0 -63 -26.5 q-23 -26.5 -23 -67.5 q0 -42 23 -68.5 q23 -26.5 63 -26.5 ZM321 554 q-35 0 -68 21.5 q-33 21.5 -42 21.5 q-24 0 -24 -37 l-89 0 q0 134 118 134 q35 0 68 -21.5 q33 -21.5 42 -21.5 q24 0 24 37 l89 0 q0 -134 -118 -134 Z" /><glyph glyph-name="uni1EE2" unicode="&#x1ee2;" d="M643.5 84.5 q-104.5 -96.5 -260.5 -96.5 q-156 0 -260.5 96.5 q-104.5 96.5 -104.5 248.5 q0 152 104.5 248.5 q104.5 96.5 260.5 96.5 q166 0 270 -106 q31 24 42 53 q-5 -3 -17 -3 q-24 0 -40.5 17 q-16.5 17 -16.5 44 q0 28 20 48.5 q20 20.5 48 20.5 q32 0 54 -23 q22 -23 22 -62 q0 -83 -75 -139 q58 -85 58 -195 q0 -152 -104.5 -248.5 ZM267.5 214 q44.5 -48 115.5 -48 q71 0 115.5 48 q44.5 48 44.5 119 q0 71 -44.5 119 q-44.5 48 -115.5 48 q-71 0 -115.5 -48 q-44.5 -48 -44.5 -119 q0 -71 44.5 -119 ZM385 -209 q-37 0 -63 26 q-26 26 -26 63 q0 37 26 63 q26 26 63 26 q36 0 62 -26 q26 -26 26 -63 q0 -37 -26 -63 q-26 -26 -62 -26 Z" /><glyph glyph-name="uni1EE3" unicode="&#x1ee3;" d="M577 534 q0 -78 -71 -136 q54 -68 54 -156 q0 -106 -74 -180 q-74 -74 -198 -74 q-124 0 -197.5 74 q-73.5 74 -73.5 180 q0 106 73.5 179.5 q73.5 73.5 197.5 73.5 q104 0 177 -55 q32 24 42 52 q-5 -3 -17 -3 q-24 0 -40.5 17 q-16.5 17 -16.5 44 q0 28 20 48.5 q20 20.5 48 20.5 q32 0 54 -23 q22 -23 22 -62 ZM288 147 q41 0 64 26.5 q23 26.5 23 68.5 q0 41 -23 67.5 q-23 26.5 -64 26.5 q-40 0 -63 -26.5 q-23 -26.5 -23 -67.5 q0 -42 23 -68.5 q23 -26.5 63 -26.5 ZM290 -209 q-37 0 -63 26 q-26 26 -26 63 q0 37 26 63 q26 26 63 26 q36 0 62 -26 q26 -26 26 -63 q0 -37 -26 -63 q-26 -26 -62 -26 Z" /><glyph glyph-name="uni1EE4" unicode="&#x1ee4;" d="M630 66.5 q-83 -78.5 -246 -78.5 q-163 0 -246.5 78.5 q-83.5 78.5 -83.5 207.5 l0 393 l205 0 l0 -386 q0 -50 32.5 -82.5 q32.5 -32.5 92.5 -32.5 q59 0 91.5 32.5 q32.5 32.5 32.5 82.5 l0 386 l205 0 l0 -392 q0 -130 -83 -208.5 ZM387 -209 q-37 0 -63 26 q-26 26 -26 63 q0 37 26 63 q26 26 63 26 q36 0 62 -26 q26 -26 26 -63 q0 -37 -26 -63 q-26 -26 -62 -26 Z" /><glyph glyph-name="uni1EE5" unicode="&#x1ee5;" d="M556 0 l-180 0 l0 54 q-60 -66 -166 -66 q-80 0 -120 42 q-40 42 -40 108 l0 345 l180 0 l0 -268 q0 -68 70 -68 q42 0 76 38 l0 298 l180 0 l0 -483 ZM305 -209 q-37 0 -63 26 q-26 26 -26 63 q0 37 26 63 q26 26 63 26 q36 0 62 -26 q26 -26 26 -63 q0 -37 -26 -63 q-26 -26 -62 -26 Z" /><glyph glyph-name="uni1EE6" unicode="&#x1ee6;" d="M630 66.5 q-83 -78.5 -246 -78.5 q-163 0 -246.5 78.5 q-83.5 78.5 -83.5 207.5 l0 393 l205 0 l0 -386 q0 -50 32.5 -82.5 q32.5 -32.5 92.5 -32.5 q59 0 91.5 32.5 q32.5 32.5 32.5 82.5 l0 386 l205 0 l0 -392 q0 -130 -83 -208.5 ZM354 743 l-58 19 q20 58 86 58 q38 0 63 -19 q25 -19 25 -56 q0 -22 -12 -48 l-70 0 q17 18 17 44 q0 25 -23 25 q-18 0 -28 -23 Z" /><glyph glyph-name="uni1EE7" unicode="&#x1ee7;" d="M556 0 l-180 0 l0 54 q-60 -66 -166 -66 q-80 0 -120 42 q-40 42 -40 108 l0 345 l180 0 l0 -268 q0 -68 70 -68 q42 0 76 38 l0 298 l180 0 l0 -483 ZM274 573 l-58 19 q20 58 86 58 q38 0 63 -19 q25 -19 25 -56 q0 -22 -12 -48 l-70 0 q17 18 17 44 q0 25 -23 25 q-18 0 -28 -23 Z" /></font>
</defs>
</svg>
