<?xml version="1.0" encoding="iso-8859-1"?>
<!-- Generator: Adobe Illustrator 19.0.0, SVG Export Plug-In . SVG Version: 6.00 Build 0)  -->
<svg xmlns="http://www.w3.org/2000/svg" xmlns:xlink="http://www.w3.org/1999/xlink" version="1.1" id="Layer_1" x="0px" y="0px" viewBox="0 0 512 512" style="enable-background:new 0 0 512 512;" xml:space="preserve" width="512px" height="512px">
<g>
	<g>
		<path d="M430.057,35.006c-11.446-14.949-29.397-23.979-48.438-23.979c-24.391,0-45.953,14.23-55.658,36.063    c-18.817,5.017-32.247,22.017-32.247,42.163c0,10.676,3.901,20.957,10.984,28.947c2.165,2.442,5.272,3.841,8.537,3.841h144.349    c3.007,0,5.892-1.188,8.027-3.303c9.356-9.268,14.51-21.621,14.51-34.783C480.12,56.591,457.513,34.404,430.057,35.006z     M452.385,99.227H319.071c-1.657-3.038-2.543-6.462-2.543-9.974c-0.001-10.825,8.114-19.747,18.872-20.753    c4.578-0.428,8.449-3.56,9.824-7.946c5.009-15.979,19.634-26.714,36.394-26.714c13.492,0,26.115,7.255,32.94,18.933    c2.419,4.138,7.164,6.324,11.886,5.467c1.583-0.287,3.169-0.433,4.713-0.433c14.418,0,26.148,11.73,26.148,26.148    C457.305,89.516,455.581,94.808,452.385,99.227z" fill="#FF6500"/>
	</g>
</g>
<g>
	<g>
		<path d="M500.593,291.407H385.998v-78.481c0-6.3-5.108-11.407-11.407-11.407h-95.623L250.989,43.62    c-0.965-5.447-5.7-9.416-11.232-9.416h-59.295c-5.532,0-10.266,3.97-11.232,9.416l-19.006,107.264L131.216,43.62    c-0.965-5.447-5.7-9.416-11.232-9.416H60.688c-5.532,0-10.266,3.97-11.232,9.416L21.478,201.519H11.407    c-6.3,0-11.407,5.107-11.407,11.407v89.888v186.752c0,6.3,5.107,11.407,11.407,11.407h489.186c6.299,0,11.407-5.107,11.407-11.407    V302.814C512,296.514,506.892,291.407,500.593,291.407z M190.025,57.016h40.168l25.605,144.502h-91.379L190.025,57.016z     M70.252,57.016h40.168l25.605,144.502H44.647L70.252,57.016z M22.814,269.278h261.589c6.299,0,11.407-5.107,11.407-11.407    s-5.108-11.407-11.407-11.407H22.814v-22.131h8.227h118.59h1.183h118.59h93.78v67.074H22.814V269.278z M489.186,478.159H22.814    V359.192h387.066c6.299,0,11.407-5.107,11.407-11.407s-5.108-11.407-11.407-11.407H22.814v-22.157h351.777h114.595V478.159z" fill="#FF6500"/>
	</g>
</g>
<g>
	<g>
		<path d="M159.274,377.159h-81.53c-6.3,0-11.407,5.107-11.407,11.407v55.173c0,6.3,5.107,11.407,11.407,11.407h81.531    c6.3,0,11.407-5.107,11.407-11.407v-55.173C170.681,382.266,165.574,377.159,159.274,377.159z M147.868,432.332h-0.001H89.151    v-32.359h58.717V432.332z" fill="#FF6500"/>
	</g>
</g>
<g>
	<g>
		<path d="M296.765,377.159h-81.531c-6.3,0-11.407,5.107-11.407,11.407v55.173c0,6.3,5.107,11.407,11.407,11.407h81.531    c6.299,0,11.407-5.107,11.407-11.407v-55.173C308.172,382.266,303.065,377.159,296.765,377.159z M285.358,432.332h-58.717v-32.359    h58.717V432.332z" fill="#FF6500"/>
	</g>
</g>
<g>
	<g>
		<path d="M434.257,377.159h-81.532c-6.3,0-11.407,5.107-11.407,11.407v55.173c0,6.3,5.108,11.407,11.407,11.407h81.532    c6.299,0,11.407-5.107,11.407-11.407v-55.173C445.664,382.266,440.556,377.159,434.257,377.159z M422.85,432.332h-58.718v-32.359    h58.718V432.332z" fill="#FF6500"/>
	</g>
</g>
<g>
	<g>
		<path d="M455.585,339.715c-0.525-0.525-1.106-1.004-1.734-1.414c-0.616-0.411-1.278-0.764-1.973-1.049    c-0.684-0.285-1.402-0.502-2.133-0.65c-1.471-0.297-2.976-0.297-4.448,0c-0.731,0.148-1.45,0.365-2.133,0.65    c-0.696,0.285-1.357,0.639-1.973,1.049c-0.627,0.411-1.209,0.89-1.734,1.414c-2.122,2.122-3.343,5.065-3.343,8.065    c0,0.753,0.08,1.494,0.228,2.236c0.139,0.73,0.367,1.449,0.652,2.133c0.285,0.684,0.639,1.346,1.049,1.962    c0.411,0.627,0.89,1.209,1.414,1.745c0.525,0.525,1.106,0.992,1.734,1.414c0.616,0.411,1.278,0.764,1.973,1.049    c0.684,0.285,1.402,0.502,2.133,0.65c0.73,0.148,1.483,0.217,2.223,0.217c0.741,0,1.495-0.068,2.224-0.217    c0.731-0.148,1.45-0.365,2.133-0.65c0.696-0.285,1.357-0.639,1.973-1.049c0.627-0.422,1.209-0.89,1.734-1.414    c0.525-0.536,1.004-1.118,1.414-1.745c0.409-0.616,0.764-1.278,1.049-1.962c0.285-0.684,0.513-1.403,0.65-2.133    c0.148-0.741,0.227-1.483,0.227-2.236C458.927,344.78,457.708,341.837,455.585,339.715z" fill="#FF6500"/>
	</g>
</g>
<g>
	<g>
		<path d="M330.111,249.806c-0.525-0.525-1.106-1.004-1.734-1.426c-0.616-0.411-1.278-0.753-1.963-1.038    c-0.695-0.285-1.413-0.513-2.145-0.65c-1.46-0.297-2.976-0.308-4.448,0c-0.731,0.137-1.45,0.365-2.133,0.65    c-0.696,0.285-1.357,0.627-1.973,1.038c-0.627,0.422-1.209,0.901-1.734,1.426s-1.004,1.106-1.414,1.734    c-0.411,0.616-0.764,1.278-1.049,1.962c-0.285,0.696-0.513,1.414-0.65,2.144c-0.148,0.73-0.228,1.483-0.228,2.224    s0.08,1.494,0.228,2.224c0.137,0.73,0.365,1.449,0.65,2.133c0.285,0.696,0.639,1.357,1.049,1.973    c0.411,0.627,0.89,1.209,1.414,1.734s1.106,1.004,1.734,1.414c0.616,0.411,1.278,0.764,1.973,1.049    c0.684,0.285,1.402,0.513,2.133,0.65c0.73,0.148,1.483,0.228,2.223,0.228c0.741,0,1.495-0.08,2.224-0.228    c0.731-0.137,1.45-0.365,2.145-0.65c0.686-0.285,1.347-0.639,1.963-1.049c0.627-0.411,1.209-0.89,1.734-1.414    c2.122-2.122,3.342-5.065,3.342-8.065S332.234,251.928,330.111,249.806z" fill="#FF6500"/>
	</g>
</g>
<g>
</g>
<g>
</g>
<g>
</g>
<g>
</g>
<g>
</g>
<g>
</g>
<g>
</g>
<g>
</g>
<g>
</g>
<g>
</g>
<g>
</g>
<g>
</g>
<g>
</g>
<g>
</g>
<g>
</g>
</svg>
