<?xml version="1.0" encoding="iso-8859-1"?>
<!-- Generator: Adobe Illustrator 19.0.0, SVG Export Plug-In . SVG Version: 6.00 Build 0)  -->
<svg xmlns="http://www.w3.org/2000/svg" xmlns:xlink="http://www.w3.org/1999/xlink" version="1.1" id="Layer_1" x="0px" y="0px" viewBox="0 0 511.999 511.999" style="enable-background:new 0 0 511.999 511.999;" xml:space="preserve" width="512px" height="512px">
<g>
	<g>
		<path d="M236.081,183.167H177.37c-5.989,0-10.844,4.856-10.844,10.844v58.711c0,5.988,4.855,10.844,10.844,10.844h58.711    c5.989,0,10.844-4.856,10.844-10.844v-58.711C246.925,188.023,242.07,183.167,236.081,183.167z M225.237,241.877h-37.023v-37.023    h37.023V241.877z" fill="#FF6500"/>
	</g>
</g>
<g>
	<g>
		<path d="M333.641,183.167h-58.709c-5.988,0-10.844,4.856-10.844,10.844v58.711c0,5.988,4.856,10.844,10.844,10.844h58.709    c5.988,0,10.844-4.856,10.844-10.844v-58.711C344.485,188.023,339.629,183.167,333.641,183.167z M322.797,241.877h-37.021v-37.023    h37.021V241.877z" fill="#FF6500"/>
	</g>
</g>
<g>
	<g>
		<path d="M236.081,279.991H177.37c-5.989,0-10.844,4.856-10.844,10.844v58.711c0,5.988,4.855,10.844,10.844,10.844h58.711    c5.989,0,10.844-4.856,10.844-10.844v-58.711C246.925,284.847,242.07,279.991,236.081,279.991z M225.237,338.701h-37.023v-37.023    h37.023V338.701z" fill="#FF6500"/>
	</g>
</g>
<g>
	<g>
		<path d="M333.641,279.991h-58.709c-5.988,0-10.844,4.856-10.844,10.844v58.711c0,5.988,4.856,10.844,10.844,10.844h58.709    c5.988,0,10.844-4.856,10.844-10.844v-58.711C344.485,284.847,339.629,279.991,333.641,279.991z M322.797,338.701h-37.021v-37.023    h37.021V338.701z" fill="#FF6500"/>
	</g>
</g>
<g>
	<g>
		<path d="M507.369,293.396l-125.765-87.943v-3.731c2.15,1.179,4.649,1.604,7.087,1.177c2.834-0.498,5.354-2.102,7.004-4.456    l21.549-30.744c1.652-2.357,2.299-5.273,1.799-8.109c-0.5-2.834-2.106-5.354-4.464-7.003L262.214,46.042    c-3.731-2.609-8.697-2.609-12.428,0L97.419,152.586c-2.359,1.649-3.965,4.17-4.466,7.003c-0.5,2.835,0.147,5.752,1.8,8.109    l21.55,30.744c1.65,2.355,4.171,3.958,7.004,4.456c0.624,0.109,1.25,0.163,1.875,0.163c1.82,0,3.611-0.465,5.212-1.344v3.736    L4.631,293.396c-4.421,3.093-5.897,8.964-3.465,13.778l18.441,36.492c1.419,2.809,3.99,4.861,7.043,5.627    c0.87,0.218,1.756,0.325,2.635,0.325c0.981,0,1.955-0.141,2.898-0.402v107.852c0,5.988,4.855,10.844,10.844,10.844h58.424    c0.007,0,0.014,0.001,0.021,0.001c0.006,0,0.014-0.001,0.021-0.001h39.745h79.011c0.007,0,0.014,0.001,0.021,0.001h71.458    c0.008,0,0.014-0.001,0.021-0.001h79.012h39.745c0.007,0,0.014,0.001,0.021,0.001s0.014-0.001,0.021-0.001h58.424    c5.988,0,10.844-4.856,10.844-10.844V349.217c0.942,0.261,1.915,0.402,2.896,0.402c0.882,0,1.765-0.107,2.636-0.325    c3.053-0.766,5.624-2.819,7.042-5.627l18.442-36.492C513.266,302.358,511.79,296.488,507.369,293.396z M130.394,446.225h-18.078    v-76.434c0-5.988-4.855-10.844-10.844-10.844s-10.844,4.856-10.844,10.844v76.434H53.871v-111.45l28.862-20.25l47.661-33.438    V446.225z M130.395,254.593L36.8,320.258c0,0-0.001,0-0.001,0.001l-3.484,2.444l-8.551-16.921l105.632-73.864V254.593z     M280.884,446.226h-49.77v-0.001v-49.769h49.77V446.226z M359.918,211.104v49.129v0.001v185.993h-57.344v-60.615    c0-5.988-4.856-10.844-10.844-10.844h-71.458c-5.989,0-10.844,4.856-10.844,10.844v60.614h-57.343V260.232h-0.001v-73.64    L256,113.687l103.917,72.905V211.104z M376.988,172.075L262.227,91.562c-0.467-0.328-0.954-0.615-1.455-0.86    c-1.504-0.737-3.138-1.106-4.772-1.106c-2.18,0-4.359,0.655-6.228,1.966l-114.761,80.514c-0.001,0.001-0.003,0.002-0.004,0.003    l-7.17,5.031l-9.092-12.971L255.999,68.16l137.255,95.978l-9.092,12.971l-7.166-5.027    C376.994,172.08,376.991,172.077,376.988,172.075z M458.13,446.225h-0.001h-36.757v-76.434c0-5.988-4.856-10.844-10.844-10.844    c-5.988,0-10.844,4.856-10.844,10.844v76.434h-18.078V281.087l67.608,47.432l8.916,6.256V446.225z M478.685,322.703l-3.484-2.444    l-0.001-0.001l-93.596-65.666v-22.674l105.632,73.864L478.685,322.703z" fill="#FF6500"/>
	</g>
</g>
<g>
	<g>
		<path d="M421.154,331.886c-0.13-0.694-0.347-1.377-0.618-2.028c-0.271-0.651-0.607-1.28-0.998-1.875    c-0.389-0.586-0.845-1.151-1.345-1.649c-0.499-0.499-1.052-0.954-1.648-1.344c-0.586-0.39-1.215-0.727-1.876-0.998    c-0.651-0.271-1.333-0.477-2.027-0.618c-1.399-0.282-2.83-0.282-4.229,0c-0.694,0.141-1.377,0.347-2.039,0.618    c-0.652,0.271-1.28,0.607-1.865,0.998c-0.598,0.389-1.151,0.845-1.649,1.344c-0.499,0.499-0.954,1.063-1.345,1.649    c-0.401,0.596-0.727,1.225-0.998,1.875c-0.271,0.652-0.488,1.334-0.629,2.028c-0.141,0.705-0.205,1.41-0.205,2.125    c0,0.705,0.065,1.411,0.205,2.115c0.141,0.694,0.358,1.378,0.629,2.028c0.271,0.65,0.596,1.28,0.998,1.876    c0.39,0.584,0.846,1.139,1.345,1.648c0.499,0.499,1.052,0.943,1.649,1.345c0.586,0.389,1.213,0.727,1.865,0.998    c0.661,0.271,1.345,0.476,2.039,0.618c0.694,0.141,1.41,0.216,2.115,0.216c0.704,0,1.421-0.075,2.115-0.216    c0.694-0.142,1.377-0.347,2.027-0.618c0.661-0.271,1.29-0.608,1.876-0.998c0.596-0.401,1.149-0.846,1.648-1.345    c0.5-0.51,0.955-1.063,1.345-1.648c0.39-0.598,0.727-1.227,0.998-1.876c0.271-0.65,0.488-1.334,0.618-2.028    c0.141-0.704,0.217-1.41,0.217-2.115C421.371,333.295,421.295,332.591,421.154,331.886z" fill="#FF6500"/>
	</g>
</g>
<g>
	<g>
		<path d="M112.099,331.886c-0.13-0.694-0.347-1.377-0.618-2.028c-0.271-0.651-0.607-1.28-0.998-1.875    c-0.39-0.586-0.846-1.151-1.345-1.649c-0.499-0.499-1.052-0.954-1.648-1.344c-0.586-0.39-1.215-0.727-1.865-0.998    c-0.661-0.271-1.345-0.477-2.039-0.618c-1.388-0.282-2.83-0.282-4.229,0c-0.694,0.141-1.377,0.347-2.028,0.618    c-0.661,0.271-1.29,0.607-1.876,0.998c-0.596,0.389-1.149,0.845-1.648,1.344c-0.499,0.499-0.954,1.063-1.345,1.649    c-0.39,0.596-0.727,1.225-0.998,1.875c-0.271,0.652-0.488,1.334-0.618,2.028c-0.141,0.705-0.217,1.41-0.217,2.125    c0,0.705,0.076,1.411,0.217,2.115c0.141,0.693,0.347,1.377,0.618,2.028c0.271,0.651,0.607,1.28,0.998,1.876    c0.39,0.584,0.846,1.139,1.345,1.648c0.499,0.499,1.052,0.943,1.648,1.345c0.586,0.389,1.215,0.727,1.876,0.998    c0.651,0.271,1.334,0.476,2.028,0.618c0.694,0.141,1.41,0.216,2.115,0.216s1.421-0.075,2.115-0.216    c0.694-0.142,1.377-0.347,2.028-0.618c0.661-0.271,1.29-0.608,1.876-0.998c0.596-0.401,1.149-0.846,1.648-1.345    c0.499-0.51,0.954-1.063,1.345-1.648c0.39-0.598,0.727-1.227,0.998-1.876c0.271-0.65,0.488-1.334,0.618-2.028    c0.141-0.704,0.217-1.41,0.217-2.115C112.316,333.295,112.24,332.591,112.099,331.886z" fill="#FF6500"/>
	</g>
</g>
<g>
</g>
<g>
</g>
<g>
</g>
<g>
</g>
<g>
</g>
<g>
</g>
<g>
</g>
<g>
</g>
<g>
</g>
<g>
</g>
<g>
</g>
<g>
</g>
<g>
</g>
<g>
</g>
<g>
</g>
</svg>
